<?xml version="1.0" standalone="no"?>
<!DOCTYPE svg PUBLIC "-//W3C//DTD SVG 1.1//EN" "http://www.w3.org/Graphics/SVG/1.1/DTD/svg11.dtd" >
<svg>
<metadata>
Created by FontForge 20090914 at Wed Jul 14 09:42:43 2021
 By www-data
&#194;&#169;1995 by Three Islands Press, 215 Cedar St., Rockland ME 04841
</metadata>
<defs>
<font id="Marydale" horiz-adv-x="1000" >
  <font-face 
    font-family="Marydale"
    font-weight="400"
    font-stretch="normal"
    units-per-em="1000"
    panose-1="0 0 4 0 0 0 0 0 0 0"
    ascent="800"
    descent="-200"
    x-height="384.001"
    cap-height="689"
    bbox="-347.999 -558.995 1425 1054"
    underline-thickness="48"
    underline-position="-140"
    unicode-range="U+0020-U+F002"
  />
<missing-glyph horiz-adv-x="500" 
d="M63 0v700h375v-700h-375zM125 63h250v575h-250v-575z" />
    <glyph glyph-name=".notdef" horiz-adv-x="500" 
d="M63 0v700h375v-700h-375zM125 63h250v575h-250v-575z" />
    <glyph glyph-name="space" unicode=" " horiz-adv-x="390" 
 />
    <glyph glyph-name="exclam" unicode="!" horiz-adv-x="249" 
d="M187 669c0 -46 -5.66602 -119 -16.999 -219c-2.66699 -26.667 -10.334 -79 -23.001 -157c-10 -60 -14 -93.333 -12 -100c0 -3.33301 1.5 -12 4.5 -26s4.5 -23.667 4.5 -29c-1.33301 -20 -8.33301 -30 -21 -30c-2 0 -4 0.333008 -6 1c-20 4 -30 22.333 -30 55
c0 6.66699 0.333008 14.667 1 24l35 401c0.666992 42 3.33398 86.333 8.00098 133c7.33301 8 16.666 12 27.999 12c18.667 0 28 -21.667 28 -65zM131.001 -82c0.666992 -30 -7.66699 -45.665 -25 -46.998c-8 -0.666992 -14.667 4.66602 -20 15.999
c-5.33301 9.33301 -8 18.666 -8 27.999c0 21.333 4.33301 33 13 35c26 0.666992 39.333 -10 40 -32z" />
    <glyph glyph-name="quotedbl" unicode="&#x22;" horiz-adv-x="237" 
d="M238 669c-11.333 -17.333 -32.3311 -62.667 -62.998 -136c-3.33301 -9.33301 -5.33301 -22 -6 -38c-0.666992 -13.333 -3 -23.666 -7 -30.999s-10 -9 -18 -5c-10.667 5.33301 -16 21.666 -16 48.999c0 14 2 29 6 45c5.33301 26 14.666 53.667 27.999 83
c18 41.333 35 62 51 62c7.33301 0 13.666 -2.83301 18.999 -8.5s7.33301 -12.5 6 -20.5zM141.002 713.999c-20.667 -49.333 -35.666 -102 -44.999 -158c1.33301 -8.66699 1.66602 -24 0.999023 -46c-4 -21.333 -12.333 -32 -25 -32c-16 0 -24 15.333 -24 46
c0 16 2.33301 36 7 60c14 46 28.333 97.667 43 155c5.33301 34 17 48.667 35 44c9.33301 -2.66699 14 -14 14 -34c0 -12 -2 -23.667 -6 -35z" />
    <glyph glyph-name="numbersign" unicode="#" horiz-adv-x="636" 
d="M531 375c-28.667 -10 -78.002 -25.3281 -148.002 -45.9951c-3.33301 -44.667 -3 -74 1 -88c1.33301 -4 5.66602 -12.667 12.999 -26c6.66699 -10.667 10 -19.334 10 -26.001c0 -7.33301 -3.16699 -14.5 -9.5 -21.5s-13.166 -10.5 -20.499 -10.5
c-6.66699 0 -12.667 3.66699 -18 11c-7.33301 10 -13.666 28.667 -18.999 56c-6 30.667 -8.33301 61 -7 91l-86 -28l-7 -106c0 -4 0.666992 -10.667 2 -20s2 -16.333 2 -21c0 -13.333 -5.66699 -22.333 -17 -27c-5.33301 -2 -10.666 -3 -15.999 -3c-22 0 -33 8.66699 -33 26
c0 4 1 8 3 12c6 13.333 9.33301 34 10 62c1.33301 42 2 63.333 2 64c-23.333 -6 -61.666 -12.667 -114.999 -20c-20 -0.666992 -36 3 -48 11s-18 16 -18 24c0 9.33301 2 15.666 6 18.999c8 5.33301 24.333 7 49 5c8 -0.666992 15.667 -1 23 -1c26 0 62.333 6.33301 109 19
l4 123c-67.333 -26.667 -111.333 -40 -132 -40c-12 0 -22.5 4 -31.5 12s-13.5 15.667 -13.5 23c0 4 1.66699 7 5 9c14 7.33301 73 25.666 177 54.999c3.33301 62.667 8 128 14 196c2.66699 4.66699 9 7 19 7c12.667 0 20.334 -4.33301 23.001 -13
c3.33301 -10.667 2.33301 -67.334 -3 -170.001l86 24c0.666992 28 1.66699 52.333 3 73c3.33301 49.333 7.16602 76.166 11.499 80.499s10.166 6.5 17.499 6.5c18.667 0 28.667 -8.33301 30 -25c2 -20 0.333008 -58.333 -5 -115c114.667 25.333 175.667 35.666 183 30.999
c14.667 -8.66699 22 -15 22 -19c0 -2.66699 -2.66699 -5 -8 -7l-80 -21c-51.333 -13.333 -93 -27 -125 -41c-0.666992 -7.33301 -2.33398 -31.666 -5.00098 -72.999c-0.666992 -13.333 -2 -36 -4 -68c54.667 12 120.334 27.333 197.001 46c42.667 13.333 75.667 20 99 20
c6.66699 0 10 -1 10 -3c0 -10.667 -54 -33 -162 -67zM341.998 498.005l-85 -24l-7 -128l87 20z" />
    <glyph glyph-name="dollar" unicode="$" horiz-adv-x="636" 
d="M595 202c-0.666992 -50.667 -22.999 -96.002 -66.999 -136.002c-30 -27.333 -75 -55.333 -135 -84c-6 -2.66699 -11.667 -5 -17 -7c2 -31.333 5.33301 -54.666 10 -69.999c3.33301 -7.33301 5 -15.666 5 -24.999c0 -24 -9.33301 -36 -28 -36
c-8.66699 0 -16.834 4 -24.501 12s-11.5 17.333 -11.5 28c0 4.66699 1 9 3 13c1.33301 6 1 26.333 -1 61c-22.667 -6.66699 -41 -11 -55 -13c2 -92.667 5.16699 -142.167 9.5 -148.5s6.5 -14.833 6.5 -25.5c0 -23.333 -11 -35 -33 -35
c-14.667 0 -23.334 19.833 -26.001 59.5s-4.66699 88.167 -6 145.5c-58.667 -2 -95.667 12.667 -111 44c-4 9.33301 -6 18.333 -6 27c0 13.333 5 24.666 15 33.999s21 14 33 14c6 0 12.5 -1.66699 19.5 -5s10.5 -7.66602 10.5 -12.999
c0 -4.66699 -6.16699 -10.667 -18.5 -18s-18.5 -13.333 -18.5 -18c0 -2.66699 1.33301 -5.33398 4 -8.00098c13.333 -14 37 -19.333 71 -16c0 81.333 5.66699 199.666 17 354.999c-72 12 -121.333 23.667 -148 35c-40 17.333 -61 42.333 -63 75
c-1.33301 23.333 16 47.333 52 72c32 22 89 51.333 171 88c2.66699 1.33301 7 3 13 5c0 30.667 -0.333008 51.334 -1 62.001c-0.666992 6.66699 -1.66699 15.667 -3 27s-2 19 -2 23c0 14.667 9 22 27 22c21.333 0 31.666 -24.333 30.999 -73
c0 -4.66699 -0.333008 -11.667 -1 -21v-19c8 2 16.667 4.66699 26 8c0 4 -0.333008 17 -1 39c0 8.66699 -0.666992 18.834 -2 30.501s-2 18.834 -2 21.501c0 10 5.66699 15.333 17 16c14.667 0.666992 24.334 -4 29.001 -14c3.33301 -7.33301 5.33301 -23.333 6 -48
c0.666992 -18.667 1 -29.334 1 -32.001c19.333 4 36.333 6 51 6c46 0 67.667 -15 65 -45c-0.666992 -6 -3.66699 -11.5 -9 -16.5s-10.666 -7.5 -15.999 -7.5c-7.33301 0 -12 5 -14 15c-1.33301 6 -11 9 -29 9c-13.333 0 -29.333 -2 -48 -6l-12 -250
c145.333 -38.667 217.333 -91 216 -157zM341.001 594.998c-8.66699 -2 -17.335 -5 -26.002 -9c-3.33301 -27.333 -8.66602 -75.333 -15.999 -144c-1.33301 -14 -3.66602 -35 -6.99902 -63c17.333 -2.66699 30 -5 38 -7c3.33301 52 7 126.333 11 223zM262 563.998
c-3.33301 -1.33301 -8.33301 -3.66699 -15 -7c-110.667 -52 -164 -89.667 -160 -113c2.66699 -14 19.334 -25.333 50.001 -34c14.667 -4.66699 50.667 -12 108 -22c1.33301 16 3.66602 40.667 6.99902 74c2 22.667 5.33301 56.667 10 102zM538 202.997
c0 42.667 -53.667 78.333 -161 107c-2 -45.333 -3.33301 -97.333 -4 -156c-0.666992 -62 -0.666992 -104 0 -126c2.66699 0.666992 5.66699 2 9 4c104.667 56 156.667 113 156 171zM328 321.996c-8.66699 1.33301 -22.001 3.66895 -40.001 7.00195
c-8.66699 -122 -13.667 -234.333 -15 -337c18.667 4 36.334 9.33301 53.001 16c-2 33.333 -2.66699 79.666 -2 138.999c0.666992 61.333 2 119.666 4 174.999z" />
    <glyph glyph-name="percent" unicode="%" horiz-adv-x="636" 
d="M295 565c22 -12 32.999 -32.666 32.999 -61.999c0 -30 -14.667 -59.667 -44 -89c-20 -19.333 -43 -36.333 -69 -51c-31.333 -16.667 -59.333 -25 -84 -25c-24 0 -43.333 8 -58 24c-7.33301 8 -11 18.667 -11 32c0 20 7.33301 43 22 69c13.333 22.667 25.333 36.667 36 42
c0.666992 0.666992 5.83398 7.66699 15.501 21s21.167 23.666 34.5 30.999c26 14.667 50.333 22 73 22c18 0 35.333 -4.66699 52 -14zM574.999 665.001c-24 -12 -38.333 -19.666 -43 -22.999c-20.667 -16 -39 -41 -55 -75c-216 -454.667 -324.333 -712 -325 -772
c-0.666992 -32 -13.667 -48 -39 -48c-8.66699 0 -14.334 2 -17.001 6c-7.33301 14.667 -11 26 -11 34c0 10 3.33301 19.333 10 28l76 192c68 170 149.667 357.667 245 563c24 52.667 45.333 89.667 64 111c14.667 17.333 32.667 30 54 38c4.66699 2 9.33398 3 14.001 3
c10.667 0 19 -4.33301 25 -13s9 -17.667 9 -27c0 -8.66699 -2.33301 -14.334 -7 -17.001zM477.999 66.002c2.66699 -9.33301 3.99902 -18.999 3.99902 -28.999c0 -32.667 -15 -64.334 -45 -95.001c-21.333 -22 -43.333 -33 -66 -33c-28 0 -46.667 10.667 -56 32
c-4 9.33301 -6 20.333 -6 33c0 26.667 9 56.667 27 90c29.333 54 49.333 81 60 81c8.66699 0 15.334 -8 20.001 -24c8.66699 -1.33301 16.667 -4 24 -8c18 -9.33301 30.667 -25 38 -47zM241.998 531.003c-12 0 -25.166 -4.33398 -39.499 -13.001s-24.5 -17.667 -30.5 -27
c-4.66699 -13.333 -12 -28.666 -22 -45.999c-4.66699 2 -10.334 3.33301 -17.001 4c-13.333 -18 -20 -32.667 -20 -44c0 -12.667 8.33301 -19 25 -19c26 0 58.333 16.333 97 49c28 24 42 44.333 42 61c0 10 -3.33301 18.333 -10 25s-15 10 -25 10zM433.999 49.002
c-6.66699 16.667 -13.668 25 -21.001 25c-11.333 0 -26.666 -20.333 -45.999 -61c-8 -16.667 -12 -30.667 -12 -42c0 -16 7.33301 -21.333 22 -16c13.333 5.33301 26 14.333 38 27c14.667 16 22 32 22 48c0 6.66699 -1 13 -3 19z" />
    <glyph glyph-name="ampersand" unicode="&#x26;" horiz-adv-x="486" 
d="M299 681c0 -13.333 0.833008 -26.8311 2.5 -40.498s2.5 -21.834 2.5 -24.501c0 -10.667 -8 -18 -24 -22c-14 -4 -25 32.333 -33 109c-6 53.333 -9 75.666 -9 66.999c0 17.333 11.667 25 35 23c10.667 -1.33301 17.667 -11.333 21 -30c2 -12 3.66699 -39.333 5 -82z
M471 216.002c4 -9.33301 -14.001 -33.668 -54.001 -73.001c-45.333 -44.667 -93 -76.667 -143 -96c-66 -26 -126 -24.333 -180 5c-38.667 20.667 -58 56 -58 106c0 31.333 9 59.333 27 84c24 33.333 50 61.333 78 84c12 9.33301 35.667 25.333 71 48
c-10.667 0.666992 -20.667 2 -30 4c-22.667 4.66699 -40 12.667 -52 24c-8.66699 8 -13 17 -13 27c0 34.667 41.333 75 124 121c30 16.667 55.667 25 77 25c29.333 0 44 -11.333 44 -34c0 -2.66699 -0.333008 -5 -1 -7c-4.66699 -7.33301 -9.33398 -11 -14.001 -11
c-2.66699 0 -6.5 1.33301 -11.5 4s-8.83301 4.33398 -11.5 5.00098c-9.33301 2 -33.666 -9.33301 -72.999 -34c-41.333 -24.667 -62 -43.667 -62 -57c0 -12.667 14.333 -19 43 -19c4 0 10.667 0.333008 20 1h20c26 0 40.333 -7.66699 43 -23
c0.666992 -4.66699 -17.666 -20.334 -54.999 -47.001c-48 -34.667 -83.333 -63.667 -106 -87c-38 -39.333 -57 -75 -57 -107c0 -12.667 2.66699 -24.667 8 -36c12 -26 39 -39 81 -39c45.333 0 94 15.667 146 47c24 14.667 52 35.334 84 62.001c24 20 39 30 45 30
c4 0 7.33301 -2.33301 10 -7zM261.999 -125c8 -74 12 -107.999 12 -101.999c0 -16 -8.66699 -22.667 -26 -20c-10.667 1.33301 -17.834 7.16602 -21.501 17.499s-9.16699 41.5 -16.5 93.5c-13.333 88 -15.666 136.333 -6.99902 145s16 13 22 13c10.667 0 19 -15 25 -45
c0.666992 -6.66699 4.66699 -40.667 12 -102z" />
    <glyph glyph-name="quotesingle" unicode="'" horiz-adv-x="169" 
d="M168 742c0 -10.667 -7.33301 -45 -22 -103l-18 -74c-8 -28 -17 -41.667 -27 -41s-15 14.667 -15 42c0 24.667 3.66699 49.667 11 75c4.66699 18.667 11 47.334 19 86.001c4 17.333 9 28.666 15 33.999c4 4 9.33301 6 16 6c14 0 21 -8.33301 21 -25z" />
    <glyph glyph-name="parenleft" unicode="(" horiz-adv-x="336" 
d="M315 695c-58.667 -71.333 -102.667 -133.331 -132 -185.998c-72 -127.333 -108 -254 -108 -380c0 -16.667 0.666992 -33.334 2 -50.001c6.66699 -85.333 22.667 -147 48 -185c18 -25.333 38.333 -38 61 -38c50 0 72.333 -17 67 -51c-1.33301 -8 -7.5 -14.833 -18.5 -20.5
s-21.833 -7.5 -32.5 -5.5c-20 4 -42.667 18.667 -68 44c-30 29.333 -50 53 -60 71c-22 40 -37 98 -45 174c-2.66699 22 -4 44.333 -4 67c0 99.333 22.333 202.666 67 309.999c34 82 76.667 158.333 128 229c44 60 71 89 81 87c20 -4 30 -14 30 -30
c0 -10.667 -5.33301 -22.667 -16 -36z" />
    <glyph glyph-name="parenright" unicode=")" horiz-adv-x="384" 
d="M342 247c2 -18.667 3 -37.332 3 -55.999c0 -101.333 -28.333 -194.333 -85 -279c-40.667 -61.333 -94 -116 -160 -164l-97 -60c-6 -6 -12.333 -12 -19 -18s-18 -9 -34 -9c-20 0 -30 10 -30 30c0 8 2 14.667 6 20s15.833 10.166 35.5 14.499s30.167 7.16602 31.5 8.49902
l81 50c57.333 42.667 104 91.667 140 147c49.333 76.667 74 161.334 74 254.001c0 16 -1 32.667 -3 50c-14.667 154 -48.334 277 -101.001 369c-38.667 66 -76.334 103.667 -113.001 113c-32 8.66699 -48 19 -48 31c0 2.66699 0.333008 6.33398 1 11.001
c2.66699 12.667 11.334 19 26.001 19c11.333 0 25.333 -3.33301 42 -10c36.667 -14 77.334 -55 122.001 -123c69.333 -104.667 112 -237.334 128 -398.001z" />
    <glyph glyph-name="asterisk" unicode="*" horiz-adv-x="492" 
d="M479 565c1.33301 -16 -6.00195 -24.0029 -22.002 -24.0029c-8 0 -15.333 3.66699 -22 11c-3.33301 4 -12 6 -26 6c-28 0 -72.333 -7 -133 -21l-16 -44c8.66699 -24 21 -50 37 -78c16.667 -10.667 25 -22.667 25 -36c0 -12 -6.66699 -18 -20 -18c-12 0 -24.333 10 -37 30
c-2 2.66699 -10 17.667 -24 45c-22 -60.667 -33 -93.334 -33 -98.001c0 -30 -9.66699 -44 -29 -42c-15.333 2 -23 8.66699 -23 20c0 10.667 3.33301 18.667 10 24c3.33301 4 13.666 36.333 30.999 97c4 12.667 9.66699 33.334 17 62.001l-6 19
c-56.667 -16 -90.667 -29.333 -102 -40c-15.333 -14 -28.666 -21 -39.999 -21c-14 0 -21 7 -21 21c0 18 16.667 32.667 50 44c18.667 6.66699 51.334 17.334 98.001 32.001l-32 81c-11.333 23.333 -17 38 -17 44c0 4.66699 2 7.33398 6 8.00098
c6.66699 2.66699 10.334 4 11.001 4c8 0 19.333 -11.667 34 -35c7.33301 -12.667 21 -42.334 41 -89.001l23 66c16.667 44.667 28.167 68.834 34.5 72.501s13.833 5.5 22.5 5.5c14 0 21.667 -6 23 -18c0 -8 -5.33301 -23 -16 -45c-15.333 -30.667 -25.333 -52.667 -30 -66
c48.667 8 86 11.333 112 10c28 -1.33301 45 -2.66602 51 -3.99902c14 -4 21.667 -11.667 23 -23z" />
    <glyph glyph-name="plus" unicode="+" horiz-adv-x="636" 
d="M614 362c0.666992 -5.33301 -1.5 -10.834 -6.5 -16.501s-12.833 -8.5 -23.5 -8.5c-3.33301 0 -7.33301 0.333008 -12 1c-11.333 4 -62 -6 -152 -30c-30 -8 -81.333 -24.333 -154 -49l3 -188c1.33301 -7.33301 0.666016 -15 -2.00098 -23c-4 -12 -11 -18 -21 -18
c-4.66699 0 -10.167 1.83301 -16.5 5.5s-11.166 14.834 -14.499 33.501c0 73.333 -1 130.666 -3 171.999c-101.333 -35.333 -155 -55.666 -161 -60.999c-4 -2.66699 -9.66699 -0.666992 -17 6s-11 14.334 -11 23.001c0 4.66699 1 9 3 13c4 6.66699 65.667 30.667 185 72
l-4 134c0 8.66699 1.83301 18.834 5.5 30.501s7.16699 18.167 10.5 19.5c6 2 11 3 15 3c16.667 0 25 -17 25 -51c0 -20.667 0.333008 -60.334 1 -119.001c58.667 20 105.334 34.333 140.001 43c111.333 28 174.666 39.667 189.999 35c5.33301 0 10.5 -2.83301 15.5 -8.5
s6.5 -11.834 4.5 -18.501z" />
    <glyph glyph-name="comma" unicode="," horiz-adv-x="237" 
d="M148 35c1.33301 -8 -14.999 -42.668 -48.999 -104.001c-36 -65.333 -54.333 -99.166 -55 -101.499s-1 -4.5 -1 -6.5c0 -2.66699 1.33301 -4 4 -4c1.33301 0 4.33301 0.666992 9 2s8 2 10 2c4.66699 0 7.66699 -1.66699 9 -5c4.66699 -8.66699 -1.33301 -20.667 -18 -36
c-18.667 -16 -40.334 -23.333 -65.001 -22c-6.66699 0.666992 -10 5.66699 -10 15c0 19.333 19 68 57 146l47 99c11.333 22 21 34 29 36c19.333 4 30.333 -3 33 -21z" />
    <glyph glyph-name="hyphen" unicode="-" horiz-adv-x="471" 
d="M455 275c0 -9.33301 -5.66797 -16 -17.001 -20c-8 -2.66699 -25.667 -4 -53 -4c-84 0 -155.833 -6.33301 -215.5 -19s-97.167 -19 -112.5 -19c-19.333 0 -29.666 5.33301 -30.999 16c-4 22 11.333 37.667 46 47c21.333 6 65 11.333 131 16c82 6 142.667 9 182 9
c46.667 0 70 -8.66699 70 -26z" />
    <glyph glyph-name="hyphen" unicode="&#x2010;" horiz-adv-x="471" 
d="M455 275c0 -9.33301 -5.66797 -16 -17.001 -20c-8 -2.66699 -25.667 -4 -53 -4c-84 0 -155.833 -6.33301 -215.5 -19s-97.167 -19 -112.5 -19c-19.333 0 -29.666 5.33301 -30.999 16c-4 22 11.333 37.667 46 47c21.333 6 65 11.333 131 16c82 6 142.667 9 182 9
c46.667 0 70 -8.66699 70 -26z" />
    <glyph glyph-name="period" unicode="." horiz-adv-x="201" 
d="M138 21c0 -28 -12.998 -42 -38.998 -42c-24 0 -36 13.667 -36 41c0 12 4.66699 22.333 14 31c7.33301 6.66699 14.666 10.667 21.999 12c11.333 1.33301 20.666 -2.16699 27.999 -10.5s11 -18.833 11 -31.5z" />
    <glyph glyph-name="slash" unicode="/" horiz-adv-x="357" 
d="M392 687c-2.66699 -14.667 -11.333 -30.002 -26 -46.002c-19.333 -20 -32.666 -38 -39.999 -54l-56 -104c-40 -82 -89.667 -198.667 -149 -350c-40.667 -103.333 -68.334 -184.666 -83.001 -243.999c-2.66699 -10 -6.66699 -34.333 -12 -73l-6 -35
c-2 -12 -7.66699 -18 -17 -18c-24 0 -36 10 -36 30c0 4.66699 1 10.667 3 18l25 107c20.667 75.333 51 162 91 260c89.333 222.667 161.666 383.334 216.999 482.001c22.667 41.333 41.334 62 56.001 62c25.333 0 36.333 -11.667 33 -35z" />
    <glyph glyph-name="zero" unicode="0" horiz-adv-x="636" 
d="M589 531c22.667 -34.667 34 -72.332 34 -112.999c0 -75.333 -38.333 -151.666 -115 -228.999c-55.333 -56 -114.666 -101.333 -177.999 -136c-66 -36 -124.333 -54 -175 -54c-34.667 0 -63.334 8.66699 -86.001 26c-42 32.667 -63 79 -63 139c0 68 25.667 149.667 77 245
c46.667 87.333 90 146.666 130 177.999c16.667 13.333 29.667 20 39 20c4 0 9.33301 -1.33301 16 -4s11.667 -4.33398 15 -5.00098c47.333 14 92.666 21 135.999 21c40.667 0 74.334 -7.33301 101.001 -22s49.667 -36.667 69 -66zM514 535.002
c-25.333 22.667 -60.001 34.001 -104.001 34.001c-36.667 0 -74.667 -7.66699 -114 -23c-36.667 -14 -64.667 -30 -84 -48c-32 -29.333 -48 -55.333 -48 -78c0 -10.667 4.66699 -19.334 14 -26.001c11.333 -8.66699 22.333 -14.667 33 -18l11 -4
c0 -2.66699 -5.33301 -6.16699 -16 -10.5s-20 -5.83301 -28 -4.5c-16 3.33301 -31 11.333 -45 24c-47.333 -86 -71 -158.667 -71 -218c0 -40 12 -69.333 36 -88c17.333 -14 39 -21 65 -21c68.667 0 161.334 48 278.001 144c37.333 31.333 67.5 66.833 90.5 106.5
s34.5 78.167 34.5 115.5c0 46 -17.333 84.333 -52 115z" />
    <glyph glyph-name="one" unicode="1" horiz-adv-x="636" 
d="M445 638c0.666992 -6 -11.002 -99.5 -35.002 -280.5s-34.333 -282.167 -31 -303.5c1.33301 -4.66699 3 -9.66699 5 -15c3.33301 -8.66699 5 -17.334 5 -26.001c-4 -20 -13.667 -30 -29 -30c-3.33301 0 -7 0.666992 -11 2c-15.333 4.66699 -24.666 9.66699 -27.999 15
c-2.66699 3.33301 -4 11.333 -4 24c0 8 1 14.5 3 19.5s3 8.16699 3 9.5c-1.33301 5.33301 9.66699 100.333 33 285l31 221l-97 -106c-66.667 -71.333 -103.667 -107.333 -111 -108c-11.333 -1.33301 -17 9.33398 -17 32.001c0 7.33301 1.66699 13.333 5 18
c5.33301 8 42.333 47 111 117c15.333 16 42 46.667 80 92c28.667 34 45.334 51.333 50.001 52c6 1.33301 13.333 0.333008 22 -3s13.667 -8.33301 15 -15z" />
    <glyph glyph-name="two" unicode="2" horiz-adv-x="636" 
d="M573 91c0 -19.333 -8.99902 -30.6699 -26.999 -34.0029c-7.33301 -1.33301 -15 -0.333008 -23 3c-5.33301 2 -11 4.33301 -17 7c-9.33301 2 -42 -3 -98 -15c-58.667 -12.667 -103.334 -25 -134.001 -37c-85.333 -33.333 -133.333 -50 -144 -50
c-4 0 -7.33301 0.666992 -10 2c-15.333 10.667 -20.333 25 -15 43c1.33301 4.66699 17 25.334 47 62.001l116 150c105.333 142 158 238 158 288c0 18.667 -6 33.334 -18 44.001c-23.333 21.333 -53.666 32 -90.999 32c-30 0 -59.833 -6.66699 -89.5 -20
s-52.167 -29.666 -67.5 -48.999c-4.66699 -8.66699 -9.66699 -17.334 -15 -26.001s-11.666 -13 -18.999 -13c-20 0 -30 8 -30 24c0 14.667 10 33 30 55s42.667 39.333 68 52c39.333 19.333 81 29 125 29c56 0 99 -16.333 129 -49c20.667 -22 31 -48 31 -78
c0 -55.333 -42 -141.666 -126 -258.999l-154 -207l124 40c33.333 10 95.666 23.333 186.999 40c21.333 4 37.166 3.33301 47.499 -2s15.5 -16 15.5 -32z" />
    <glyph glyph-name="three" unicode="3" horiz-adv-x="636" 
d="M547 121c-1.33301 -72.667 -26.666 -144.663 -75.999 -215.996c-35.333 -51.333 -81.666 -100.666 -138.999 -147.999l-78 -60c-26.667 -24 -48 -36 -64 -36c-9.33301 0 -18.5 4.66699 -27.5 14s-13.5 18.666 -13.5 27.999c0 14.667 9.33301 24.334 28 29.001
c3.33301 0.666992 11.666 0.666992 24.999 0c10 -0.666992 17.667 1.33301 23 6l83 68c51.333 45.333 91.666 90.666 120.999 135.999c41.333 62 62 122.667 62 182c-0.666992 47.333 -27 84 -79 110c-36 18.667 -85.333 32 -148 40c-30.667 3.33301 -61.334 7 -92.001 11
c-10.667 5.33301 -19.5 12.666 -26.5 21.999s-9.16699 17.666 -6.5 24.999c0.666992 2.66699 24 22.667 70 60c62 50.667 122.333 105 181 163c-160.667 -16.667 -252.667 -24.667 -276 -24c-8 0 -15.5 3.5 -22.5 10.5s-10.5 14.833 -10.5 23.5c0 10.667 7 19.334 21 26.001
c26.667 -1.33301 75.334 1 146.001 7c76 6.66699 125.667 10 149 10c34 0 53.667 -4 59 -12c3.33301 -5.33301 5 -11 5 -17c0 -24.667 -38.333 -71.334 -115 -140.001c-26.667 -22.667 -66.334 -58.334 -119.001 -107.001c62.667 -2.66699 116.334 -11.334 161.001 -26.001
c106.667 -35.333 159.667 -97 159 -185z" />
    <glyph glyph-name="four" unicode="4" horiz-adv-x="636" 
d="M556 332c-41.333 5.33301 -87.002 5.99805 -137.002 1.99805c-25.333 -192.667 -37.333 -293.667 -36 -303c7.33301 -14.667 11 -29.334 11 -44.001c0 -20.667 -8.66699 -31 -26 -31c-5.33301 0 -11.666 1 -18.999 3c-22.667 7.33301 -34 21.666 -34 42.999
c0 8.66699 1.66699 18.334 5 29.001c2.66699 6.66699 17.334 105.334 44.001 296.001c-24.667 -3.33301 -78.667 -12.333 -162 -27c-60 -10.667 -99 -16 -117 -16c-6.66699 0 -11.667 0.666992 -15 2c-14.667 5.33301 -22 15.333 -22 30c0 5.33301 1.66699 10 5 14l57 55
c24 24.667 52 59.667 84 105c16.667 23.333 39 64.333 67 123c26 54.667 43.333 87.334 52 98.001c4 4 8.33301 6 13 6c7.33301 0 14.333 -4.66699 21 -14s10 -19.333 10 -30c0 -7.33301 -2 -14 -6 -20c-10 -16 -43.667 -75.333 -101 -178c-22 -40 -57 -82.667 -105 -128
c51.333 9.33301 126.333 20 225 32c10 72 20.333 142.333 31 211c2.66699 8.66699 5.33398 16 8.00098 22c5.33301 14.667 10 22.667 14 24c9.33301 2.66699 19 -1.83301 29 -13.5s13.333 -21.834 10 -30.501c0 -7.33301 -3 -24 -9 -50
c-7.33301 -31.333 -12 -54.333 -14 -69c-2.66699 -16.667 -7.33398 -47.667 -14.001 -93c48.667 -1.33301 90.667 -5.66602 126 -12.999c16.667 -3.33301 25 -9.66602 25 -18.999c0 -12 -6.66699 -17.333 -20 -16z" />
    <glyph glyph-name="five" unicode="5" horiz-adv-x="636" 
d="M700 597c1.33301 -12.667 -0.166016 -20.501 -4.49902 -23.501s-12.5 -4.5 -24.5 -4.5c-8.66699 0 -15.834 1.33301 -21.501 4s-11.834 4 -18.501 4c-98.667 0 -180.334 -5.66699 -245.001 -17c-28 -4.66699 -60.667 -7.66699 -98 -9s-60.666 0 -69.999 4
c-15.333 6 -23 15.333 -23 28c0 2.66699 0.666992 5.66699 2 9c3.33301 6 33 9.33301 89 10c28 0 52.667 1.66699 74 5c46.667 6.66699 102.334 11.334 167.001 14.001c61.333 2.66699 92.333 4 93 4c11.333 2 22 3 32 3c30 0 46 -10.333 48 -31zM482.001 225.999
c-15.333 -67.333 -52.335 -123.336 -111.002 -168.003c-53.333 -40.667 -108 -61 -164 -61c-46.667 0 -81 15.667 -103 47c-10 14.667 -15 27.334 -15 38.001c0 12.667 7 20.667 21 24c5.33301 1.33301 10 2 14 2c12 0 20.333 -7.33301 25 -22
c5.33301 -16.667 10.333 -26.334 15 -29.001c14.667 -7.33301 30.667 -11 48 -11c48 0 95.167 23.5 141.5 70.5s71.833 97.167 76.5 150.5c4.66699 48.667 -21.333 84.334 -78 107.001c-43.333 16.667 -100.666 25 -171.999 25c-34 0 -65.667 -1.66699 -95 -5
c-9.33301 -1.33301 -17.833 1.83398 -25.5 9.50098s-11.5 15.834 -11.5 24.501c0 2.66699 0.333008 5 1 7c3.33301 9.33301 21.333 35 54 77s52.667 63 60 63c8 0 16.167 -4.33301 24.5 -13s11.5 -18 9.5 -28c-0.666992 -5.33301 -8 -16.666 -22 -33.999
c-24.667 -31.333 -37.667 -47.333 -39 -48c68.667 1.33301 127.334 -3.33398 176.001 -14.001c117.333 -26 176 -80.667 176 -164c0 -15.333 -2 -31.333 -6 -48z" />
    <glyph glyph-name="six" unicode="6" horiz-adv-x="636" 
d="M489 349c28.667 -12.667 43 -42.335 43 -89.002c0 -52.667 -23.333 -103 -70 -151c-82 -82.667 -156 -124 -222 -124c-23.333 0 -44.333 6 -63 18c-36 23.333 -54 77 -54 161c0 88.667 16.667 171.334 50 248.001c27.333 64 61.333 126 102 186c40 58 69 89.667 87 95
c9.33301 2.66699 19.833 -0.166016 31.5 -8.49902s17.5 -17.5 17.5 -27.5c0 -4.66699 -1 -8.66699 -3 -12c-4.66699 -7.33301 -10.334 -11.666 -17.001 -12.999s-11.334 -3 -14.001 -5c-17.333 -14 -40.666 -43.667 -69.999 -89c-38.667 -59.333 -73.667 -127.333 -105 -204
c-17.333 -41.333 -26 -99 -26 -173c0 -32 2.33301 -61.667 7 -89c0 17.333 2.33301 34.666 7 51.999c12 41.333 33.667 80.333 65 117c66 77.333 130.333 116 193 116c14.667 0 28.334 -2.66699 41.001 -8zM446 301.999c-45.333 0 -95 -33.666 -149 -100.999
c-39.333 -49.333 -59 -92 -59 -128c0 -18 7 -27 21 -27c16 0 38.833 9 68.5 27s57.167 39.333 82.5 64c18 17.333 33.667 39.166 47 65.499s20 48.833 20 67.5c0 21.333 -10.333 32 -31 32z" />
    <glyph glyph-name="seven" unicode="7" horiz-adv-x="636" 
d="M565 617c2 -4 2.99609 -8.33105 2.99609 -12.998c0 -11.333 -5.66699 -22 -17 -32l-40 -14c-24.667 -12.667 -52.667 -44 -84 -94c-7.33301 -9.33301 -24.333 -39 -51 -89c51.333 4 90.333 6 117 6c18 0 28.333 -1 31 -3c10 -8.66699 15 -17.334 15 -26.001
c0 -11.333 -8 -17.333 -24 -18c-10 0 -34.333 -1.33301 -73 -4c-16 0 -44.667 -2 -86 -6c-8.66699 -20 -28 -80.667 -58 -182c-18.667 -68 -28 -116.667 -28 -146c0 4 1 -4.66699 3 -26c0.666992 -4 1 -7.66699 1 -11c0 -20 -11 -28.667 -33 -26
c-10 1.33301 -17.833 7.16602 -23.5 17.499s-7.16699 18.5 -4.5 24.5c0.666992 16 11.334 75.667 32.001 179c12 52 28.333 108.667 49 170c-30.667 -6.66699 -53.334 -10 -68.001 -10c-20 0 -30 8 -30 24c0 8 4.5 14.5 13.5 19.5s44.5 10.167 106.5 15.5
c4.66699 11.333 20.334 40.666 47.001 87.999c32.667 54 59.334 92.333 80.001 115c-29.333 0 -96.666 -3.66699 -201.999 -11c-36 -3.33301 -74.667 -7.66602 -116 -12.999c-30.667 -4 -49.667 -6 -57 -6c-6 0 -10.667 0.666992 -14 2c-14 4.66699 -21 15.667 -21 33
c0 7.33301 2.33301 12.333 7 15c18.667 10 91.334 18.333 218.001 25c87.333 4.66699 155.333 7 204 7c62 0 96.333 -3.66699 103 -11z" />
    <glyph glyph-name="eight" unicode="8" horiz-adv-x="636" 
d="M587 338c18.667 -26 28.002 -52 28.002 -78c0 -61.333 -51.667 -123.333 -155 -186c-94 -56.667 -182.667 -85 -266 -85c-54 0 -95.167 11.5 -123.5 34.5s-42.5 57.833 -42.5 104.5c0 36 8 66.667 24 92c24 38.667 58.667 73.334 104 104.001
c-18.667 3.33301 -35.334 7.33301 -50.001 12c-36 12 -59.333 27.333 -70 46c-8 15.333 -12 33.333 -12 54c0 50 19 94.333 57 133c22.667 24 41.667 38.333 57 43l52 8c12.667 5.33301 26.667 9.66602 42 12.999c36.667 9.33301 76 14.666 118 15.999
c75.333 1.33301 128.666 -19 159.999 -61c12 -16 18 -33 18 -51c0 -28 -14.333 -56.333 -43 -85c-5.33301 -5.33301 -32 -24 -80 -56c94 0.666992 154.667 -18.666 182 -57.999zM466.002 561c-21.333 27.333 -61 40.998 -119 40.998c-46.667 0 -87.667 -7 -123 -21
c-72 -28.667 -105.333 -63 -100 -103c1.33301 -11.333 5.33301 -20.333 12 -27c4.66699 -4 18 -13 40 -27c-18 -5.33301 -37 -3.66602 -57 5.00098c-14.667 6.66699 -27 20.667 -37 42c-4 -12 -6 -23.667 -6 -35c0 -18.667 6 -32 18 -40c28.667 -18 60 -27 94 -27
c42 0 90 13.667 144 41c96 48.667 144 90.334 144 125.001c0 9.33301 -3.33301 18 -10 26zM546.002 301.998c-22.667 32 -68.667 48 -138 48c-66 0 -124.667 -13 -176 -39c-104 -52.667 -156 -112 -156 -178c0 -18 4 -35.333 12 -52c13.333 -26.667 46.333 -40 99 -40
c32.667 0 69 5 109 15c36.667 10 67 21.667 91 35c55.333 30.667 95.333 56.334 120 77.001c36.667 30.667 55 60 55 88c0 15.333 -5.33301 30.666 -16 45.999z" />
    <glyph glyph-name="nine" unicode="9" horiz-adv-x="636" 
d="M517 135c-30.667 -72.667 -74.333 -142.667 -131 -210c-42.667 -50.667 -89.667 -96 -141 -136c-40 -31.333 -66 -48.666 -78 -51.999c-6 -1.33301 -11.333 -2 -16 -2c-16.667 0 -25 6.66699 -25 20c0 6 2 10.333 6 13c56 42 104.667 84 146 126
c80 79.333 139.667 160.666 179 243.999c26 55.333 44.667 129 56 221c-3.33301 -8.66699 -10.333 -18 -21 -28c-25.333 -23.333 -68 -47 -128 -71c-68.667 -27.333 -124.667 -41 -168 -41c-37.333 0 -69.333 8.66699 -96 26c-38.667 24 -58 60.333 -58 109
c0 60.667 27.333 115 82 163c68.667 60.667 142 91 220 91c47.333 0 89.333 -11.667 126 -35c66.667 -42.667 100 -111 100 -205c0 -69.333 -17.667 -147 -53 -233zM506.001 430c2 18 -5.33203 37.333 -21.999 58c-14.667 18 -30.667 31.333 -48 40
c-32.667 16 -64.334 24 -95.001 24c-34 0 -69 -9.66699 -105 -29c-39.333 -21.333 -71 -45.666 -95 -72.999c-27.333 -30.667 -41 -61.334 -41 -92.001c0 -15.333 3.66699 -30 11 -44c14 -28.667 40.667 -43 80 -43c38 0 91.333 13.667 160 41c76 30.667 127.667 70 155 118
z" />
    <glyph glyph-name="colon" unicode=":" horiz-adv-x="231" 
d="M141 375c-2.66699 -39.333 -13 -59 -31 -59c-7.33301 0 -14.166 5.16699 -20.499 15.5s-9.5 21.833 -9.5 34.5c0 34.667 11 52.667 33 54c9.33301 0.666992 16.666 -3.33301 21.999 -12s7.33301 -19.667 6 -33zM137 28c0 -12.667 -3.66699 -24.3311 -11 -34.998
s-15 -15.334 -23 -14.001c-20.667 4 -31 17 -31 39c0 28.667 10.333 45.667 31 51c22.667 5.33301 34 -8.33398 34 -41.001z" />
    <glyph glyph-name="semicolon" unicode=";" horiz-adv-x="237" 
d="M157 375c-2.66699 -39.333 -13 -59 -31 -59c-7.33301 0 -14.166 5.16699 -20.499 15.5s-9.5 21.833 -9.5 34.5c0 34.667 11 52.667 33 54c9.33301 0.666992 16.666 -3.33301 21.999 -12s7.33301 -19.667 6 -33zM147 35c1.33301 -8 -14.666 -42.665 -47.999 -103.998
c-36 -66 -54.333 -100 -55 -102s-1 -4 -1 -6c0 -2.66699 1.33301 -4 4 -4c1.33301 0 4.16602 0.666992 8.49902 2s7.83301 2 10.5 2c4 0 7 -1.66699 9 -5c4.66699 -8.66699 -1.33301 -20.334 -18 -35.001c-18.667 -16.667 -40.334 -24.334 -65.001 -23.001
c-6.66699 0.666992 -10 5.66699 -10 15c0 19.333 19 68 57 146l47 99c11.333 22 21 34 29 36c18.667 4 29.334 -3 32.001 -21z" />
    <glyph glyph-name="less" unicode="&#x3c;" horiz-adv-x="636" 
d="M512 67c-10.667 0 -38.333 6.66699 -83 20c-53.333 16.667 -90.333 27 -111 31l-118 21c-44.667 9.33301 -74 22.666 -88 39.999c-12.667 15.333 -19 26.333 -19 33c0 5.33301 3.66699 13.333 11 24s42.166 51.834 104.499 123.501s98.166 111.167 107.499 118.5
s19 11 29 11c16.667 0 23.334 -7.33301 20.001 -22c-2 -7.33301 -34.167 -48.333 -96.5 -123s-93.166 -115.667 -92.499 -123c0.666992 -12 39.667 -28 117 -48c92 -23.333 143.667 -38 155 -44c50 -26 75 -44.333 75 -55c0 -4.66699 -3.66699 -7 -11 -7z" />
    <glyph glyph-name="equal" unicode="=" horiz-adv-x="636" 
d="M582 345c-0.666992 -16.667 -21.001 -24.9961 -61.001 -24.9961c-28 0 -62 -3.33301 -102 -10l-101 -17c-65.333 -10.667 -122.666 -21.334 -171.999 -32.001c-34 -7.33301 -53.667 -11 -59 -11c-4 0 -8 0.333008 -12 1c-21.333 5.33301 -32 12 -32 20
c0 5.33301 2.5 11.666 7.5 18.999s19.5 11.666 43.5 12.999l54 3c134 25.333 266.667 47 398 65c11.333 1.33301 20.333 -0.833984 27 -6.50098s9.66699 -12.167 9 -19.5zM576.999 240.004c10 -5.33301 15 -13.666 15 -24.999c0 -9.33301 -6.66699 -15 -20 -17
c-10 0 -25.667 -0.666992 -47 -2c-5.33301 0 -76 -12.333 -212 -37c-34 -6 -81.333 -15.667 -142 -29c-38.667 -8.66699 -63.667 -13 -75 -13c-10 0 -17 2.66699 -21 8c-5.33301 8.66699 -8 16.667 -8 24c0 8 3.33301 14 10 18c9.33301 5.33301 23.333 8.66602 42 9.99902
c40 3.33301 96 12 168 26c149.333 28.667 237.333 43 264 43c11.333 0 20 -2 26 -6z" />
    <glyph glyph-name="greater" unicode="&#x3e;" horiz-adv-x="636" 
d="M541 286c0.666992 -14 -17.001 -33.665 -53.001 -58.998l-194 -122c-62 -38.667 -101.333 -65.667 -118 -81c-6.66699 -6 -11 -13 -13 -21c-5.33301 -23.333 -16.666 -35 -33.999 -35c-6 0 -12.333 1.33301 -19 4c-9.33301 4 -14 10 -14 18c0 9.33301 6.33301 21 19 35
c23.333 26.667 88.333 75.667 195 147c98 65.333 147 101.666 147 108.999c0.666992 9.33301 -15.333 21.333 -48 36c-112 50.667 -169.333 76.667 -172 78l-91 44c-30.667 16 -47.667 28 -51 36c-1.33301 3.33301 -2 7 -2 11c0 19.333 10 29.666 30 30.999
c6 0.666992 11.833 -2.16602 17.5 -8.49902s8.83398 -11.833 9.50098 -16.5c0.666992 -6.66699 34.667 -22.667 102 -48c91.333 -34 153.666 -59 186.999 -75c67.333 -32.667 101.333 -60.334 102 -83.001z" />
    <glyph glyph-name="question" unicode="?" horiz-adv-x="567" 
d="M537 674c2.66699 -11.333 4.00098 -22.998 4.00098 -34.998c0 -58 -32.333 -118.667 -97 -182c-44 -43.333 -103.333 -88 -178 -134l-96 -58c0 -22.667 9 -48 27 -76c22 -34 36 -61.333 42 -82c1.33301 -4.66699 2 -10 2 -16c0 -33.333 -13 -47.666 -39 -42.999
c-18.667 3.33301 -28 13.666 -28 30.999c0 4 0.666992 9.33301 2 16c0.666992 4.66699 1 7.66699 1 9c-4.66699 14 -14 32.667 -28 56s-23.667 42.333 -29 57c-8.66699 25.333 -12.334 54 -11.001 86c24 10 48 21 72 33c57.333 28 108 58.667 152 92
c100.667 76 151 142.333 151 199c0 11.333 -1.66699 22.666 -5 33.999c-8 26.667 -38.333 40 -91 40c-48.667 0 -101.667 -10.667 -159 -32s-91.333 -43.333 -102 -66c-8.66699 -18.667 -22 -28 -40 -28c-12 0 -19.667 5.66699 -23 17
c-4.66699 15.333 10.333 35.666 45 60.999c30 22 69.667 44 119 66s103.333 33 162 33c86 0 135 -26 147 -78zM252.001 -104.998c0 -12 -3.66895 -22.833 -11.002 -32.5s-15.666 -14.5 -24.999 -14.5c-24 0 -36 12.667 -36 38s10 39.333 30 42
c10.667 1.33301 20.334 -1.16699 29.001 -7.5s13 -14.833 13 -25.5z" />
    <glyph glyph-name="at" unicode="@" horiz-adv-x="579" 
d="M552 522c0 -66 -21.0049 -126 -63.0049 -180c-53.333 -68.667 -115 -109.334 -185 -122.001c-13.333 -16 -32 -35 -56 -57c-31.333 -18.667 -53.333 -28 -66 -28c-22 0 -33 17.667 -33 53c0 26.667 5.66699 53.5 17 80.5s29.333 49.5 54 67.5
c22.667 16.667 43.334 25 62.001 25c6.66699 0 12 -1.33301 16 -4c19.333 -12 29 -29.333 29 -52c0 -13.333 -3 -26.666 -9 -39.999c36.667 18.667 67.667 40.334 93 65.001c60.667 58 88 124.333 82 199c-4 58 -27 87 -69 87c-33.333 0 -73 -17.333 -119 -52
c-43.333 -32.667 -78.333 -69 -105 -109c-57.333 -86.667 -86 -173.334 -86 -260.001c0 -38 7 -70 21 -96c18 -32 44.333 -48 79 -48c56.667 0 134.334 35 233.001 105c0 8 3.33301 15.667 10 23s14.334 11 23.001 11c9.33301 0 17.333 -5.33301 24 -16
c3.33301 -5.33301 5 -10.333 5 -15c0 -10 -8.33301 -20.333 -25 -31l-101 -69c-69.333 -40.667 -128 -61 -176 -61c-25.333 0 -47.666 5.66699 -66.999 17c-21.333 13.333 -39.666 35.666 -54.999 66.999c-16.667 36 -25 77.333 -25 124c0 82.667 27 169.334 81 260.001
c35.333 58.667 79.833 108 133.5 148s103.5 60 149.5 60c38 0 68.833 -14.167 92.5 -42.5s35.5 -64.833 35.5 -109.5zM267.995 243c-8 2 -12 9.33301 -12 22c0 7.33301 1.33301 14.833 4 22.5s4 13.5 4 17.5c-12.667 -3.33301 -23.667 -9 -33 -17
c-22.667 -20 -34.667 -51 -36 -93c0 -3.33301 1.66699 -5 5 -5c7.33301 0 18.5 5.66699 33.5 17s26.5 23.333 34.5 36z" />
    <glyph glyph-name="A" unicode="A" horiz-adv-x="609" 
d="M635 344c1.33301 -23.333 -10.6699 -35.001 -36.0029 -35.001c-6 0 -11 1 -15 3l-129 -38l67 -285c15.333 -12.667 23 -24.667 23 -36c0 -10.667 -6.66699 -19.667 -20 -27c-3.33301 -1.33301 -6.66602 -2 -9.99902 -2c-10 0 -19.667 4.16699 -29 12.5s-13 16.5 -11 24.5
l-71 296c-32.667 -9.33301 -89 -26.666 -169 -51.999l-109 -40c-12 -23.333 -25.667 -57.333 -41 -102l-6 -35c-2 -8 -5.83301 -13.333 -11.5 -16s-11.167 -4 -16.5 -4c-13.333 0 -22 5.66699 -26 17c-4.66699 15.333 8 59.333 38 132c-20 3.33301 -30 14.333 -30 33
c0 4.66699 0.666992 9.66699 2 15c2.66699 10 22.334 20 59.001 30l205 448c9.33301 21.333 22 32 38 32c12 0 20.667 -12.667 26 -38c2 -20 9.66699 -60.333 23 -121c6.66699 -24.667 26.334 -103.667 59.001 -237l140 42c9.33301 4 18 6 26 6
c14.667 0 22.667 -7.66699 24 -23zM392.997 301.999l-37 142.998c-8.66699 30.667 -22 74.334 -40 131.001l-85 -164c-18.667 -37.333 -43.667 -93 -75 -167c26 4.66699 73.667 15 143 31c42.667 10.667 74 19.334 94 26.001z" />
    <glyph glyph-name="B" unicode="B" horiz-adv-x="633" 
d="M625 259c-0.666992 -40 -21.6641 -86 -62.9971 -138c-35.333 -44 -71.333 -77.167 -108 -99.5s-72.334 -40.833 -107.001 -55.5c-16 -6 -32 -12.333 -48 -19c-5.33301 -3.33301 -12.333 -5 -21 -5c-16 0 -27 6 -33 18c-3.33301 6 -5 12 -5 18c0 10 4.33301 19 13 27
s17.667 13 27 15c22.667 2.66699 50 6.66699 82 12c42 14 85.333 43 130 87c50.667 50.667 76 99 76 145c0 26 -24 48.333 -72 67c-52 20.667 -118.333 31 -199 31c-22 0 -50 -3.33301 -84 -10c-36.667 -7.33301 -65 -15.666 -85 -24.999v-109c0 -26 4.33301 -56.667 13 -92
c7.33301 -30 11 -48 11 -54c0 -7.33301 -1.66699 -16.666 -5 -27.999c-2 -6 -9.66699 -9 -23 -9c-27.333 0 -42.333 6.33301 -45 19c-6 33.333 -9 52.333 -9 57c0 10 0.666992 20.333 2 31c2 11.333 1.33301 69 -2 173l3 224c-6.66699 0.666992 -12.667 2 -18 4
c-12 4.66699 -18.333 12.667 -19 24c-0.666992 19.333 10.666 37.666 33.999 54.999c0.666992 7.33301 2 13.666 4 18.999c4.66699 13.333 11.667 21.333 21 24c5.33301 1.33301 10 2 14 2c11.333 0 19.333 -7.33301 24 -22c134 41.333 238.333 62 313 62
c26 0 46.333 -2.83301 61 -8.5s22 -16.5 22 -32.5c0 -14 -6 -31.333 -18 -52c-10 -17.333 -20.333 -31.333 -31 -42c-40.667 -39.333 -79 -72 -115 -98l-86 -59c67.333 -0.666992 125.333 -6 174 -16c115.333 -24 172.666 -70.667 171.999 -140zM440.003 658
c-40.667 0 -99 -10.5 -175 -31.5s-119 -39.5 -129 -55.5c-12.667 -20 -16.667 -79.333 -12 -178c36 18 93.333 50.333 172 97c116.667 77.333 175 129.333 175 156c0 8 -10.333 12 -31 12z" />
    <glyph glyph-name="C" unicode="C" horiz-adv-x="729" 
d="M764 237c2.66699 -5.33301 4 -10.3311 4 -14.998c0 -20 -19.333 -32 -58 -36c-8 -1.33301 -45.333 -17.333 -112 -48c-78.667 -36.667 -144.667 -64.334 -198 -83.001c-82.667 -29.333 -151.334 -44 -206.001 -44c-46.667 0 -83 10.333 -109 31
c-48.667 38 -73 86.667 -73 146c0 87.333 48.333 184.666 145 291.999c88 98 177.667 165.333 269 202c21.333 8.66699 39 13 53 13c14.667 0 24.334 -5 29.001 -15c2.66699 -6.66699 4 -12.667 4 -18c0 -16 -17.667 -27.667 -53 -35
c-43.333 -8.66699 -96.333 -38.667 -159 -90s-115.667 -108 -159 -170c-48.667 -69.333 -73 -130 -73 -182c0 -44 18.333 -78 55 -102c20 -13.333 47.333 -20 82 -20c70.667 0 168.667 28 294 84l184 91c25.333 11.333 42.333 17 51 17c13.333 0 23.333 -6 30 -18z" />
    <glyph glyph-name="D" unicode="D" horiz-adv-x="663" 
d="M679 465c0.666992 -75.333 -61.3311 -162.003 -185.998 -260.003c-60 -47.333 -166.333 -117 -319 -209c-3.33301 -1.33301 -8.33301 -8.66602 -15 -21.999s-16.667 -20.333 -30 -21c-2.66699 0 -5.33398 1.33301 -8.00098 4s-4.33398 4 -5.00098 4
c-2.66699 -0.666992 -6.66699 -0.333984 -12 0.999023c-12 12 -15 28.333 -9 49c2.66699 8 5 16.333 7 25c-10 134.667 -13.667 232.667 -11 294c2.66699 56 8.66699 154.333 18 295l-75 -26c-8.66699 -1.33301 -17.5 1.83398 -26.5 9.50098s-13.5 15.834 -13.5 24.501
s4.33301 15.667 13 21c18 11.333 49.5 21.833 94.5 31.5s89.833 14.834 134.5 15.501c114 2.66699 216.167 -19.5 306.5 -66.5s135.833 -103.5 136.5 -169.5zM619.002 460.997c0 54 -41 100.333 -123 139c-74 34.667 -150.333 51.667 -229 51
c-44 -0.666992 -74.333 -4 -91 -10c-16 -134 -26.333 -256 -31 -366c-2.66699 -68 3 -141.333 17 -220c73.333 40.667 138 80 194 118c136 92 219.333 171.333 250 238c8.66699 18 13 34.667 13 50z" />
    <glyph glyph-name="E" unicode="E" horiz-adv-x="648" 
d="M686 233c-55.333 -14 -126.997 -40.001 -214.997 -78.001c-98.667 -42.667 -192.667 -87.667 -282 -135c-60 -31.333 -92 -46.333 -96 -45c-9.33301 3.33301 -19.666 12.666 -30.999 27.999c-9.33301 13.333 -15 23.666 -17 30.999
c-2.66699 14.667 -1.33398 41.667 3.99902 81c2.66699 19.333 5.66699 72.666 9 159.999s5 153 5 197c0 20 -0.333008 31.667 -1 35s-4 12.333 -10 27c-4 11.333 -6 20 -6 26c0 8 4.66699 14.667 14 20s18.666 8 27.999 8c8.66699 0 17 -2.33301 25 -7l300 112
c66 20.667 108.333 31 127 31c24 0 36 -7.33301 36 -22c0 -7.33301 -3.33301 -14.666 -10 -21.999c-9.33301 -10.667 -22.666 -16 -39.999 -16c-9.33301 0 -17.333 2.33301 -24 7l-83 -25c-60.667 -19.333 -105.667 -36.666 -135 -51.999c-19.333 -10 -73 -33 -161 -69
c2.66699 -52 2.66699 -85.333 0 -100c-0.666992 -20 -3.33398 -52.667 -8.00098 -98c185.333 80.667 287.666 119 306.999 115c16 -3.33301 24 -10.333 24 -21c0 -7.33301 -4 -15 -12 -23c-4 -4 -10.5 -6.66699 -19.5 -8s-15.833 -3.33301 -20.5 -6l-103 -39
c-73.333 -28.667 -132.666 -57.667 -177.999 -87c-2.66699 -31.333 -6 -72.666 -10 -123.999c-0.666992 -10.667 -0.666992 -24.667 0 -42c1.33301 -20.667 2 -35.334 2 -44.001c23.333 12.667 50.666 26.334 81.999 41.001c74.667 34.667 161.667 71.334 261 110.001
c135.333 52.667 219.666 79 252.999 79c6 0 11 -1 15 -3c18 -6 27 -13.333 27 -22c0 -2 -0.5 -3.5 -1.5 -4.5s-19.5 -6.16699 -55.5 -15.5z" />
    <glyph glyph-name="F" unicode="F" horiz-adv-x="582" 
d="M687 744c10 -6 14.999 -13.668 14.999 -23.001c0 -11.333 -7 -19.666 -21 -24.999c-5.33301 -2 -21.5 -3.5 -48.5 -4.5s-53.167 -5.5 -78.5 -13.5c-85.333 -28 -130.333 -42.667 -135 -44c-66.667 -23.333 -138.334 -52.333 -215.001 -87
c-1.33301 -24 -7 -69.667 -17 -137l-11 -74l63 30c48.667 22 90.334 37.667 125.001 47c74.667 20.667 127.334 31 158.001 31c9.33301 0 16 -1.33301 20 -4s6 -7.33398 6 -14.001c0 -16.667 -9 -28 -27 -34c-14.667 -1.33301 -48.667 -7.33301 -102 -18
c-85.333 -21.333 -169 -59.666 -251 -114.999c-7.33301 -72.667 -11 -130 -11 -172c0 -14 0.333008 -25.333 1 -34c0.666992 -4 2 -10.333 4 -19s3 -15 3 -19c0 -18.667 -11 -28 -33 -28c-10 0 -18 3 -24 9c-2 2 -3 11.667 -3 29c0 14.667 1.33301 48 4 100s4 89.333 4 112
c-14.667 7.33301 -22 17.333 -22 30c0 9.33301 2.33301 16.333 7 21c1.33301 2 8.33301 9 21 21c2.66699 24 6 60 10 108l8 103c-75.333 -28 -117.333 -41.333 -126 -40c-17.333 3.33301 -26 13.333 -26 30c0 8 2 15 6 21c3.33301 4 23 11 59 21
c43.333 11.333 72.666 20.333 87.999 27c-0.666992 32.667 6 52 20 58c4 1.33301 7.66699 2 11 2c18.667 0 29.667 -12 33 -36l321 112c76.667 21.333 126.667 32 150 32c6.66699 0 11.334 -1 14.001 -3z" />
    <glyph glyph-name="G" unicode="G" horiz-adv-x="865" 
d="M841 502c4.66699 1.33301 7.00293 -7.99805 7.00293 -27.998c0 -34.667 -5.33301 -82.334 -16 -143.001c-15.333 -84.667 -23 -134.334 -23 -149.001c0 -12 1.66699 -20.667 5 -26c1.33301 -2 6.66602 -5.66699 15.999 -11c7.33301 -4 10.333 -9.33301 9 -16
c-1.33301 -8 -8.83301 -24.167 -22.5 -48.5s-23.167 -37.166 -28.5 -38.499c-10.667 -2.66699 -20.334 5.33301 -29.001 24c-4 8.66699 -6 28 -6 58c0 40 3.33301 82 10 126l10 63c6.66699 44 10.667 85 12 123l-63 -24c12 -15.333 16.333 -34.666 13 -57.999
c-7.33301 -53.333 -40 -112.333 -98 -177c-55.333 -62 -120 -114 -194 -156c-78 -45.333 -147 -68 -207 -68c-70 0 -123 30 -159 90c-32 52 -45.333 113.667 -40 185c6.66699 94 45.334 181.667 116.001 263c52.667 59.333 118 111.666 196 156.999
c61.333 35.333 99.666 52.666 114.999 51.999c24 -0.666992 36 -9.66699 36 -27c0 -3.33301 -0.333008 -7.33301 -1 -12l-92 -48c-72 -38 -132 -80.667 -180 -128c-69.333 -67.333 -112.666 -142 -129.999 -224c-3.33301 -14.667 -5 -31.334 -5 -50.001
c0 -54.667 11.667 -100 35 -136c29.333 -48 74 -69.333 134 -64c50 4 108.667 27.667 176 71c61.333 40 115.333 86 162 138s70 93.667 70 125c0 13.333 -4.66699 23.333 -14 30c-2.66699 2 -7.33398 3 -14.001 3c-26 0 -84.5 -19.5 -175.5 -58.5
s-137.167 -58.5 -138.5 -58.5c-8.66699 1.33301 -17 5.33301 -25 12s-12 13.334 -12 20.001c0 4 2 7.66699 6 11c23.333 18 80.666 45.667 171.999 83c124.667 50.667 249 89 373 115z" />
    <glyph glyph-name="H" unicode="H" horiz-adv-x="690" 
d="M685 439c2 0 -7.33398 1.99512 -28.001 5.99512c-3.33301 1.33301 -8 2 -14 2c-11.333 0 -30.666 -2.66699 -57.999 -8c-44.667 -8 -68.334 -12.333 -71.001 -13c-2 -120.667 -2.33301 -204.667 -1 -252c2 -75.333 9 -125.666 21 -150.999c8.66699 -12 13 -22.333 13 -31
c0 -10.667 -7.33301 -18 -22 -22c-6.66699 -2 -12.334 -3 -17.001 -3c-13.333 0 -23.333 7.33301 -30 22c-3.33301 9.33301 -5 18.666 -5 27.999c0 -2 -3.16699 30.333 -9.5 97s-9.5 110.334 -9.5 131.001v170l-166 -33c-29.333 -5.33301 -74.333 -14.666 -135 -27.999
l-23 -194c-4 -32.667 -6 -69.667 -6 -111v-10c0 -25.333 -1.33301 -41 -4 -47c-5.33301 -8 -12 -12 -20 -12c-8.66699 0 -19.334 4.33301 -32.001 13c-3.33301 2.66699 -5 12 -5 28c0 25.333 4 70 12 134c9.33301 72.667 14.333 110 15 112
c1.33301 13.333 3.66602 40 6.99902 80c-5.33301 0.666992 -10 2.33398 -14 5.00098c-8.66699 5.33301 -13.334 13.666 -14.001 24.999c-1.33301 14.667 9.66699 26 33 34c4.66699 102.667 5.33398 167 2.00098 193c-4.66699 30.667 -4.66699 50.334 0 59.001
c4.66699 6.66699 15.334 10 32.001 10c11.333 0 18.833 -2.16699 22.5 -6.5s6.83398 -18.333 9.50098 -42s4 -43.834 4 -60.501c-2.66699 -30 -6.33398 -77.333 -11.001 -142c21.333 4 70.333 12 147 24c32.667 7.33301 81.334 17 146.001 29
c0 28.667 0.333008 53.334 1 74.001c1.33301 51.333 4 80 8 86c8.66699 16 20.334 24 35.001 24c16.667 0 25 -10.333 25 -31c0 -7.33301 -1.5 -27.666 -4.5 -60.999s-4.16699 -60.666 -3.5 -81.999c82.667 13.333 138.667 20 168 20c8.66699 0 14.334 -0.666992 17.001 -2
c12.667 -8 19 -18 19 -30c0 -8.66699 -3.33301 -16.5 -10 -23.5s-14.667 -10.5 -24 -10.5z" />
    <glyph glyph-name="I" unicode="I" horiz-adv-x="234" 
d="M165 684c9.33301 -3.33301 14 -18.667 14 -46c0 -21.333 -3.33301 -56.333 -10 -105c-8.66699 -68.667 -13.667 -110 -15 -124c-2 -26 -6.33301 -128.667 -13 -308c0 -12 -0.666992 -25 -2 -39c12 -16.667 18 -32 18 -46c0 -9.33301 -4 -16.833 -12 -22.5
s-17 -8.5 -27 -8.5c-14 0 -24 6.66699 -30 20c-2.66699 7.33301 -4 32 -4 74c0 64.667 3 156.667 9 276c6 109.333 10.333 175.333 13 198l10 93c4.66699 28.667 15 43 31 43c5.33301 0 11.333 -1.66699 18 -5z" />
    <glyph glyph-name="J" unicode="J" horiz-adv-x="573" 
d="M524 705c8 -14 9.66992 -65.665 5.00293 -154.998c-3.33301 -76.667 -8.33301 -136.334 -15 -179.001c-18.667 -126 -50.334 -216.333 -95.001 -271c-68.667 -85.333 -152.667 -128 -252 -128c-28.667 0 -58.334 3.66699 -89.001 11s-45.667 11 -45 11
c-12.667 -0.666992 -24.334 1.66602 -35.001 6.99902s-16 13.333 -16 24c0 4 0.666992 8 2 12c5.33301 14.667 15 22 29 22c8 0 38 -10.333 90 -31c9.33301 -3.33301 25.666 -5 48.999 -5c86.667 0 157 30.667 211 92c61.333 70 96.333 187 105 351
c2.66699 42.667 3.33398 93.667 2.00098 153c-1.33301 47.333 -1.33301 73 0 77c5.33301 14.667 15.333 22 30 22c11.333 0 19.333 -4.33301 24 -13z" />
    <glyph glyph-name="K" unicode="K" horiz-adv-x="645" 
d="M626 2c-34.667 0 -81.9971 13.9971 -141.997 41.9971c-76 34.667 -146.667 82.334 -212 143.001c-54 50.667 -96.667 96.667 -128 138l-16 -238c0 -9.33301 0.333008 -20 1 -32c0.666992 -14.667 1 -23.667 1 -27c0 -21.333 -6.33301 -37.333 -19 -48
c-4.66699 -4.66699 -10 -7 -16 -7c-7.33301 0 -16 4.33301 -26 13c-4 4.66699 -6 21.667 -6 51c0 45.333 7.33301 153.666 22 324.999c-0.666992 -1.33301 -4.33398 -0.833008 -11.001 1.5s-10 10.166 -10 23.499c0 6 0.666992 13 2 21c2 10.667 11 20.667 27 30
c2 17.333 4 51 6 101c0.666992 21.333 1 43 1 65c1.33301 27.333 4.33301 44.333 9 51c11.333 14 22.333 21 33 21c5.33301 0 10.666 -2 15.999 -6c8 -5.33301 12 -16 12 -32c0 -7.33301 -1 -22 -3 -44c-2.66699 -25.333 -4.66699 -46.666 -6 -63.999
c-0.666992 -23.333 -2.33398 -45 -5.00098 -65c12.667 8 30 17 52 27c53.333 24.667 127 53.334 221 86.001c110.667 38.667 181.667 58 213 58c12 0 18 -6.66699 18 -20c0 -15.333 -13.667 -29.666 -41 -42.999c-8.66699 -4.66699 -23.667 -7.33398 -45 -8.00098
c-8.66699 -0.666992 -18.667 -2.66699 -30 -6c-180.667 -56 -309.667 -107 -387 -153c6.66699 -13.333 17 -28.666 31 -45.999c34 -43.333 84 -95.333 150 -156c44 -40 93.333 -75 148 -105c21.333 -11.333 59.333 -29.333 114 -54c30.667 -13.333 46 -23.666 46 -30.999
c0 -8 -6.66699 -12 -20 -12z" />
    <glyph glyph-name="L" unicode="L" horiz-adv-x="570" 
d="M593 200l-207.999 -69c-132 -46 -221.333 -84.667 -268 -116c-26.667 -18 -44.334 -27 -53.001 -27c-7.33301 0 -14.333 2.33301 -21 7c-12.667 7.33301 -19 16.333 -19 27c0 6.66699 2.83301 16.334 8.5 29.001s8.83398 22.334 9.50098 29.001
c13.333 230.667 28.333 389 45 475c2.66699 17.333 4.33398 42.666 5.00098 75.999c0 28.667 1.66699 48 5 58c5.33301 16 17 24 35 24c20.667 0 31 -21.667 31 -65c0 -42.667 -7.33301 -88.667 -22 -138c-8 -25.333 -15.667 -69 -23 -131c-8 -64 -10.333 -107 -7 -129
c0.666992 -7.33301 1 -15.333 1 -24c0 -12 -1.33301 -34 -4 -66s-3.66699 -57 -3 -75c43.333 17.333 86.666 33.666 129.999 48.999c104 36.667 198.333 65 283 85c13.333 3.33301 26.666 5 39.999 5c29.333 0 44 -5 44 -15c0 -3.33301 -3 -6.33301 -9 -9z" />
    <glyph glyph-name="M" unicode="M" horiz-adv-x="858" 
d="M806 -48c-29.333 -2 -43.999 9.66699 -43.999 35c0 4.66699 1 15.667 3 33c1.33301 14.667 1.66602 26.334 0.999023 35.001c-6 51.333 -15 124.333 -27 219l-25 187c-4 33.333 -6 66.666 -6 99.999l-134 -251c-90.667 -169.333 -136.334 -258.333 -137.001 -267
c-0.666992 -12 -5.83398 -22.333 -15.501 -31s-20.167 -13 -31.5 -13c-24.667 0 -41 18.333 -49 55c-5.33301 29.333 -17.666 76 -36.999 140c-26 88 -52 162.667 -78 224l-63 171c-58 -346.667 -86.333 -532 -85 -556c1.33301 -13.333 -2 -26.666 -10 -39.999
s-18.667 -20 -32 -20c-24 0 -36 10.667 -36 32c0 14 6.66699 31 20 51c5.33301 7.33301 18.666 85 39.999 233c22.667 154.667 35.334 236.667 38.001 246c6.66699 20.667 10 45.334 10 74.001c0 22 2.66699 35.333 8 40c0.666992 0 10.334 10.667 29.001 32
c12.667 14 22 19.667 28 17s21 -36.334 45 -101.001l83 -228c36.667 -94.667 67.334 -189.334 92.001 -284.001l286 536c6 10 12.333 19.5 19 28.5s17.667 12.833 33 11.5c18.667 -1.33301 30 -17 34 -47c0 -0.666992 3 -50 9 -148c5.33301 -91.333 15.666 -183 30.999 -275
c17.333 -100.667 26 -161 26 -181c0 -38 -8.33301 -57.333 -25 -58z" />
    <glyph glyph-name="N" unicode="N" horiz-adv-x="612" 
d="M536 103c0 -15.333 -2.66797 -26.3271 -8.00098 -32.9941c1.33301 -8 2 -16 2 -24c0 -30 -10 -43.667 -30 -41s-30 17.667 -30 45c0 9.33301 1 18.666 3 27.999l-53 34c-30.667 18 -88.667 94 -174 228c-30 46.667 -61.667 108.667 -95 186
c-34 -230.667 -51 -378 -51 -442c0 -16 1.33301 -25.333 4 -28c6 -6.66699 9 -23 9 -49c0 -40 -10.333 -60 -31 -60c-7.33301 0 -15.666 3 -24.999 9c-4 2.66699 -6 19 -6 49c0 48 4.33301 123 13 225c7.33301 88.667 13.333 146.667 18 174c4 25.333 7 77.333 9 156
c2 65.333 5.66699 102 11 110c7.33301 12 16.333 18 27 18c9.33301 0 17 -4.66699 23 -14c14 -22.667 30.667 -63.334 50 -122.001c21.333 -62 43 -112.333 65 -151c70.667 -124.667 124.667 -200 162 -226c8 -6 21.333 -13 40 -21c-4 208 -4 338.333 0 391
c0.666992 11.333 1 22.666 1 33.999c0 15.333 -0.833008 33.166 -2.5 53.499s-2.5 33.166 -2.5 38.499c0 22.667 10.333 34 31 34c23.333 0 35 -38.333 35 -115c0 -26 -1.5 -61.167 -4.5 -105.5s-4.5 -70.166 -4.5 -77.499c0 -10.667 -1 -30.334 -3 -59.001
s-3 -53.334 -3 -74.001c0 -42.667 3.33301 -89.334 10 -140.001c6.66699 -13.333 10 -23.666 10 -30.999z" />
    <glyph glyph-name="O" unicode="O" horiz-adv-x="696" 
d="M702 389c-2.66699 -45.333 -31.833 -99.5 -87.5 -162.5s-121.167 -116.167 -196.5 -159.5c-82 -48 -156 -72 -222 -72c-31.333 0 -59.333 5.66699 -84 17c-64.667 30 -97 87 -97 171c0 98 37 200.833 111 308.5s146 162.167 216 163.5
c48 1.33301 81.333 -9.66699 100 -33c179.333 -34 266 -111.667 260 -233zM643.001 391c2.66699 80 -44.001 133.666 -140.001 160.999c-40 10.667 -88.333 16 -145 16c-2 -0.666992 -11 -7 -27 -19c-12.667 -9.33301 -23.667 -13.333 -33 -12
c-13.333 2 -22.666 6.33301 -27.999 13s-8 9.66699 -8 9c-56 -45.333 -102.333 -104.666 -139 -177.999c-34.667 -70 -52 -134.667 -52 -194c0 -57.333 17.333 -95.333 52 -114c24 -13.333 51.667 -20 83 -20c58 0 122.667 21 194 63c64.667 38 121 84.167 169 138.5
s72.667 99.833 74 136.5z" />
    <glyph glyph-name="P" unicode="P" horiz-adv-x="567" 
d="M625 695c7.33301 -10 11.0029 -20.6641 11.0029 -31.9971c0 -50 -69.333 -114.333 -208 -193c-84 -48 -183.667 -96.333 -299 -145c-6.66699 -93.333 -10 -164 -10 -212c0 -8.66699 1 -21.167 3 -37.5s3 -28.5 3 -36.5c0 -30 -11.667 -45 -35 -45
c-11.333 0 -19.333 4 -24 12s-5.66699 25.333 -3 52c1.33301 39.333 4.66602 118.666 9.99902 237.999c-4 8.66699 -6 15 -6 19c0 8 2 14.667 6 20c3.33301 40 7.66602 97.667 12.999 173c4 86.667 3 138 -3 154c-1.33301 3.33301 -2 6.66602 -2 9.99902
c0 10.667 4 20.667 12 30s16.667 14 26 14c8.66699 0 16.667 -2.83301 24 -8.5s14.666 -8.83398 21.999 -9.50098c2.66699 0 43 3.66699 121 11c85.333 8.66699 153.333 13 204 13c76.667 0 121.667 -9 135 -27zM564.003 652.003c0 14 -28.001 21 -84.001 21
c-38 0 -85.667 -3 -143 -9c-45.333 -5.33301 -76 -9.66602 -92 -12.999c-22 -4.66699 -53.333 -8.33398 -94 -11.001l-15 -251c82.667 33.333 153.667 65 213 95c142.667 71.333 214.334 127.333 215.001 168z" />
    <glyph glyph-name="Q" unicode="Q" horiz-adv-x="807" 
d="M817 500c0.666992 -54.667 -24.9971 -115.666 -76.9971 -182.999c-38.667 -49.333 -91.334 -101.333 -158.001 -156l-114 -88c8 -16 16 -29.667 24 -41c19.333 -28 37 -42 53 -42c8 0 18.667 -1.66699 32 -5c3.33301 -5.33301 -1 -16.666 -13 -33.999s-24 -26 -36 -26
c-11.333 0 -29.333 15.667 -54 47c-20.667 25.333 -37.334 49.666 -50.001 72.999c-97.333 -56.667 -182.333 -85 -255 -85c-46.667 0 -83.667 13 -111 39c-34.667 32.667 -52 80 -52 142c0 62.667 17 131 51 205c33.333 71.333 74.333 130.666 123 177.999
c35.333 34 84.333 70.333 147 109c55.333 34.667 87.666 52 96.999 52c5.33301 0 10 -1.66699 14 -5s6.66699 -5.33301 8 -6c10.667 6 21.667 11.333 33 16c28 10 55 15.333 81 16c57.333 0.666992 111 -14 161 -44c62.667 -38.667 94.667 -92.667 96 -162zM763.003 502.001
c0 42.667 -20.001 78.668 -60.001 108.001c-37.333 27.333 -79.666 41 -126.999 41c-60.667 0 -102.667 -22 -126 -66c-39.333 -74.667 -59 -153.334 -59 -236.001c0 -83.333 17.667 -159.333 53 -228c62 40 115 80 159 120c106 96 159.333 183 160 261zM396.002 93.002
c-10.667 23.333 -19.998 47.332 -27.998 71.999c-18.667 58.667 -28.334 115.334 -29.001 170.001c-0.666992 88 18 178.667 56 272c-64.667 -31.333 -120 -68.333 -166 -111c-110 -102.667 -165 -226 -165 -370c0 -72 37.333 -108 112 -108c34.667 0 73.667 7.66699 117 23
c39.333 14.667 73.666 32 102.999 52z" />
    <glyph glyph-name="R" unicode="R" horiz-adv-x="675" 
d="M730 14c-3.33301 -10.667 -12.999 -16 -28.999 -16c-19.333 0 -33.666 5.33301 -42.999 16l-115 49c-92.667 40.667 -181.334 88.667 -266.001 144c-30.667 20 -81.334 59 -152.001 117c-4.66699 -49.333 -10 -133 -16 -251c-0.666992 -8 1.33301 -19.167 6 -33.5
s7 -24.833 7 -31.5c0 -10 -3.83301 -18.667 -11.5 -26s-16.834 -11 -27.501 -11c-11.333 0 -20.666 4 -27.999 12c-2.66699 2.66699 -4 12.667 -4 30c0 23.333 3.33301 75 10 155c7.33301 92 12 158.333 14 199l-8 16l9 6c9.33301 100 13 159 11 177
c-2.66699 18 -4 30.333 -4 37c0 24.667 10 40 30 46c5.33301 1.33301 10 2 14 2c16 0 27 -10.333 33 -31c117.333 52 211.666 78 282.999 78c66 0 101 -25.333 105 -76c6 -79.333 -118.333 -169 -373 -269c17.333 -16.667 51.333 -44.334 102 -83.001
c92.667 -60.667 183.667 -111 273 -151c66 -29.333 111 -45.666 135 -48.999c10.667 -1.33301 20.334 -5.33301 29.001 -12c12 -8.66699 18 -19 18 -31c0 -4 -0.666992 -8.33301 -2 -13zM489.001 615c0 16 -18.334 24.001 -55.001 24.001
c-38.667 0 -86.667 -7.66699 -144 -23c-54.667 -14.667 -89 -28.334 -103 -41.001c-4 -3.33301 -8.66699 -4.33301 -14 -3c-6 2 -10 6 -12 12c-1.33301 -27.333 -4.66602 -53 -9.99902 -77s-11 -59 -17 -105c13.333 2 40.333 9.66699 81 23c182.667 76.667 274 140 274 190z
" />
    <glyph glyph-name="S" unicode="S" horiz-adv-x="621" 
d="M595 207c0.666992 -42 -24.333 -83.665 -75 -124.998c-33.333 -27.333 -80.333 -56 -141 -86c-51.333 -25.333 -77.333 -39 -78 -41c-3.33301 -21.333 -18.666 -32 -45.999 -32c-24.667 0 -39.334 6 -44.001 18c-2 5.33301 -3 10.666 -3 15.999
c0 12 5.33301 22.333 16 31c8.66699 7.33301 18.334 11.666 29.001 12.999c44.667 6 101.667 31 171 75c75.333 47.333 113 87 113 119c0 46.667 -44 82.667 -132 108l-246 55c-88 23.333 -132 55.666 -132 96.999c0 46.667 26 91 78 133c42.667 34 96.667 63 162 87
c58 20.667 104.667 30.667 140 30c32.667 -0.666992 56.667 -7 72 -19c3.33301 -2.66699 14 -16.667 32 -42c1.33301 -2 2 -4.33301 2 -7c0 -5.33301 -3.5 -10.333 -10.5 -15s-14.833 -7 -23.5 -7c-7.33301 0 -16.666 5.33301 -27.999 16s-21.333 16 -30 16
c-54.667 0.666992 -121.334 -17.666 -200.001 -54.999c-86 -40 -129 -80.333 -129 -121c0 -30 43.333 -55.667 130 -77c155.333 -37.333 235.666 -57 240.999 -59c87.333 -31.333 131.333 -74 132 -128z" />
    <glyph glyph-name="T" unicode="T" horiz-adv-x="636" 
d="M786 645c0 -6 -9.00391 -13.167 -27.0039 -21.5s-32.333 -12.5 -43 -12.5c-4.66699 0 -7.83398 5.33301 -9.50098 16s-5.16699 16 -10.5 16c-51.333 -2 -102.666 -4.33301 -153.999 -7c-97.333 -7.33301 -176 -22.333 -236 -45
c-14.667 -177.333 -21.334 -302 -20.001 -374c0.666992 -22.667 0.666992 -51 0 -85c0 -28.667 0.333008 -47.667 1 -57c0.666992 -15.333 3.33398 -27 8.00098 -35c2.66699 -4.66699 4 -9.66699 4 -15c0 -11.333 -4 -22 -12 -32s-17.333 -15 -28 -15
c-7.33301 0 -14.166 2.16699 -20.499 6.5s-9.5 51.166 -9.5 140.499c0 138 2.33301 233 7 285c4.66699 42 5.66699 97.333 3 166c-136 -30 -211 -42.667 -225 -38c-17.333 6 -26 17.667 -26 35c0 9.33301 4.33301 17.333 13 24c6.66699 4.66699 28.667 7.33398 66 8.00098
c49.333 1.33301 105.333 11.333 168 30c2.66699 0.666992 6.83398 5.33398 12.501 14.001s13.167 14 22.5 16c8 1.33301 15.833 -0.333984 23.5 -5.00098s11.834 -7 12.501 -7c14.667 6 80 13.333 196 22c110.667 8.66699 188.334 13 233.001 13
c10.667 0 16.667 -0.333008 18 -1c22 -8.66699 33 -22.667 33 -42z" />
    <glyph glyph-name="U" unicode="U" horiz-adv-x="660" 
d="M677 625c-18 -138 -62.0029 -268.998 -132.003 -392.998c-91.333 -160.667 -198 -240 -320 -238c-46.667 0.666992 -87.667 43.334 -123 128.001c-33.333 79.333 -50.666 166.666 -51.999 261.999c-1.33301 98 -0.666016 171.333 2.00098 220
c1.33301 35.333 17.333 51.666 48 48.999c11.333 -1.33301 18.5 -4.83301 21.5 -10.5s3.83301 -19.167 2.5 -40.5c-3.33301 -40.667 -7.33301 -129 -12 -265c-0.666992 -64.667 13 -128.334 41 -191.001c30 -68 62.667 -100.333 98 -97c74.667 8 142.334 54.333 203.001 139
c47.333 64.667 87.333 147 120 247c25.333 78 39 137.667 41 179c0 4 -0.666992 12.5 -2 25.5s-2 22.833 -2 29.5c0 26 8.66699 39.333 26 40c31.333 0.666992 47 -10.666 47 -33.999c0 3.33301 -2.33301 -13.334 -7 -50.001z" />
    <glyph glyph-name="V" unicode="V" horiz-adv-x="622" 
d="M632 723c11.333 -6 17.0029 -15.333 17.0029 -28c0 -16.667 -6 -30.334 -18 -41.001c-7.33301 -6.66699 -16 -27 -26 -61c-14 -48 -31.667 -94.333 -53 -139l-213 -450c-6.66699 -7.33301 -18.334 -11 -35.001 -11c-9.33301 0 -17 1.66699 -23 5
c-2 1.33301 -22 57.333 -60 168c-47.333 138.667 -93.333 258.334 -138 359.001c-2 5.33301 -11.333 19.333 -28 42c-12.667 17.333 -19 31.666 -19 42.999c0 9.33301 4.16699 18.833 12.5 28.5s17.166 14.5 26.499 14.5c17.333 0 35.666 -21.667 54.999 -65
c11.333 -25.333 29 -75 53 -149c24 -76 43.333 -131 58 -165l73 -183c47.333 90.667 116.333 231.334 207 422.001c13.333 29.333 25 62 35 98c7.33301 27.333 11 44 11 50c0 12 4.66699 25.333 14 40c10 17.333 22 26 36 26c4.66699 0 9.66699 -1.33301 15 -4z" />
    <glyph glyph-name="W" unicode="W" horiz-adv-x="840" 
d="M863 647c-3.33301 -3.33301 -15.333 -42.3369 -36 -117.004c-28 -100.667 -60 -199 -96 -295c-60.667 -160.667 -107.667 -240.667 -141 -240c-20 0.666992 -32.333 3.33398 -37 8.00098s-10 19.667 -16 45c-10 38.667 -21.333 76 -34 112
c-19.333 52.667 -34 119.334 -44 200.001c-4.66699 36 -10.667 101 -18 195l-51 -82c-37.333 -63.333 -64.333 -116.666 -81 -159.999c-33.333 -84.667 -64.666 -168.334 -93.999 -251.001c-11.333 -32.667 -20 -50.667 -26 -54c-8 -4.66699 -16.333 -7 -25 -7
c-16 0 -27.667 4.66699 -35 14c-4.66699 6.66699 -7 13 -7 19c0 2 0.5 7.5 1.5 16.5s1.5 17.833 1.5 26.5c0 10 -0.666992 21.333 -2 34c-16.667 133.333 -32.667 243.666 -48 330.999c-10.667 58.667 -21 106.667 -31 144c-7.33301 26.667 -11 40.667 -11 42
c0 8 4 16.167 12 24.5s16.333 12.5 25 12.5c8 0 17 -3.16699 27 -9.5s16.667 -28.833 20 -67.5c8.66699 -87.333 21.667 -179.666 39 -276.999c6 -34 14.333 -91.333 25 -172c9.33301 28.667 19 56 29 82c23.333 62.667 46 113.667 68 153l104 182
c32.667 56.667 51.667 94 57 112c3.33301 10.667 14.666 16 33.999 16c13.333 0 22.166 -3.5 26.499 -10.5s6.5 -17.833 6.5 -32.5c0 -4 -0.333008 -15 -1 -33s-1 -35 -1 -51c0 -56.667 4.33301 -122.667 13 -198c6 -54.667 15.667 -106 29 -154
c6 -23.333 20.333 -68.333 43 -135c16 22.667 32.667 52.334 50 89.001c42 87.333 83.667 203 125 347c10.667 38 21 81.667 31 131c7.33301 34.667 13.333 56.334 18 65.001c6.66699 11.333 19.334 16 38.001 14c20.667 -2 31 -11 31 -27
c0 -15.333 -6.33301 -29.333 -19 -42z" />
    <glyph glyph-name="X" unicode="X" horiz-adv-x="545" 
d="M520 686c3.33301 -7.33301 -15.6641 -36.333 -56.9971 -87c-70 -86.667 -125.333 -158.667 -166 -216c90 -193.333 141 -295 153 -305c22 -18 33 -31.333 33 -40c0 -8 -4.66699 -16.333 -14 -25c-4 -3.33301 -8.33301 -5 -13 -5c-10.667 0 -24 9 -40 27
c-12.667 14 -23.334 29.333 -32.001 46c-46.667 88.667 -88 172 -124 250c-0.666992 -1.33301 -3 -5 -7 -11l-128 -183c-62 -94 -91.667 -154 -89 -180c0.666992 -10 -3.5 -20.5 -12.5 -31.5s-18.833 -16.5 -29.5 -16.5c-8.66699 0 -15.834 4.66699 -21.501 14
s-8.5 18.666 -8.5 27.999c0 10.667 7.66699 30.334 23 59.001l30 59c13.333 24.667 35.666 60.334 66.999 107.001l147 216c-22.667 49.333 -38 81.666 -46 96.999c-17.333 36 -34.333 67 -51 93l-26 36c-10.667 16 -16 29 -16 39c0 13.333 8 23.333 24 30
c6 2.66699 11.667 4 17 4c16 0 30 -12 42 -36l26 -65l67 -146c66 91.333 122 165 168 221c21.333 28.667 40.333 43 57 43c11.333 0 20.333 -7.33301 27 -22z" />
    <glyph glyph-name="Y" unicode="Y" horiz-adv-x="526" 
d="M568 680c0 -6.66699 -5.99805 -14 -17.998 -22c-14 -8.66699 -21.333 -14 -22 -16c-14.667 -29.333 -104.334 -115 -269.001 -257c4 -30.667 5 -76 3 -136c-3.33301 -86 -1 -162 7 -228c0.666992 -3.33301 3.16699 -10.666 7.5 -21.999s6.5 -20 6.5 -26
c0 -10 -4.66699 -18 -14 -24c-6 -3.33301 -12.333 -5 -19 -5c-11.333 0 -20.833 4.66699 -28.5 14s-10.167 21.333 -7.5 36c1.33301 6.66699 0 26.334 -4 59.001c-5.33301 43.333 -8.66602 86.166 -9.99902 128.499s-3 89.833 -5 142.5c-7.33301 3.33301 -16 9 -26 17
c-8.66699 28 -17 56.333 -25 85c-18 54.667 -39.333 102 -64 142c-8.66699 14 -21.334 25 -38.001 33c-12 6 -18 14 -18 24c0 15.333 9 23 27 23c13.333 0 27.5 -4.33301 42.5 -13s26.5 -20 34.5 -34c16 -28 42.667 -88.333 80 -181l109 86c79.333 66 136 120.333 170 163
l19 25c9.33301 10.667 18.666 16 27.999 16c6.66699 0 14 -3.33301 22 -10s12 -13.334 12 -20.001z" />
    <glyph glyph-name="Z" unicode="Z" horiz-adv-x="690" 
d="M783 39c-6 0 -13.6689 2 -23.002 6c-6 2 -11.667 4.33301 -17 7c-11.333 2.66699 -47.333 4 -108 4c-98 0 -193 -5.33301 -285 -16c-50.667 -6.66699 -109 -16.334 -175 -29.001c-68 -13.333 -111.333 -24 -130 -32c-12 -5.33301 -23 -8 -33 -8c-26 0 -39 11.667 -39 35
c0 6.66699 1.66699 12 5 16c49.333 74.667 134 195.667 254 363c56.667 73.333 122 150 196 230c-47.333 -6 -89.666 -12.667 -126.999 -20c-89.333 -16.667 -144.666 -34.667 -165.999 -54c-19.333 -16.667 -33.333 -25 -42 -25s-17 5.33301 -25 16
c-3.33301 4 -5 8.33301 -5 13c0 14.667 23 36 69 64c15.333 10 77.833 26.5 187.5 49.5s178.5 34.5 206.5 34.5c4.66699 0 7.66699 -0.666992 9 -2c16 -10 21 -24.667 15 -44l-75 -66c-64.667 -61.333 -137.667 -145.333 -219 -252
c-25.333 -33.333 -60 -82.666 -104 -147.999c-48.667 -71.333 -77 -115.333 -85 -132c61.333 10 155 23.333 281 40c89.333 8.66699 181.333 13 276 13c99.333 0 153.333 -4 162 -12c14 -9.33301 21 -18.333 21 -27c0 -16 -8 -24 -24 -24z" />
    <glyph glyph-name="bracketleft" unicode="[" horiz-adv-x="282" 
d="M280 -185c2.66699 -8 -38.002 -26.332 -122.002 -54.999c-16.667 -6 -33 -12.333 -49 -19c-19.333 -6.66699 -33.333 -10 -42 -10c-5.33301 0 -9.33301 1.33301 -12 4c-16 18.667 -24 70 -24 154c0 127.333 17.667 311 53 551c6 42 9 79.667 9 113
c0 24.667 -1.83301 47.667 -5.5 69s-5.5 32.333 -5.5 33c0 4 1.33301 7 4 9c8 8 16.333 12 25 12c2 0 9.33301 -1 22 -3s24.334 -2.66699 35.001 -2c14 1.33301 33.167 6.83301 57.5 16.5s38.833 14.5 43.5 14.5s7 -2.66699 7 -8c0 -12.667 -19.667 -29.334 -59 -50.001
c-12 -6 -33.667 -11.667 -65 -17c0 -36 -2 -72 -6 -108c-41.333 -339.333 -62 -552.333 -62 -639c0 -39.333 4.33301 -66 13 -80c0.666992 -1.33301 3.33398 -2 8.00098 -2c7.33301 0 30.833 4.16699 70.5 12.5s67.167 12.5 82.5 12.5c12.667 0 20 -2.66699 22 -8z" />
    <glyph glyph-name="backslash" unicode="\" horiz-adv-x="318" 
d="M292 61c10.667 -21.333 15.999 -38.667 15.999 -52c0 -16 -8.33301 -24 -25 -24c-3.33301 0 -7.33301 0.333008 -12 1c-24 4.66699 -91.667 180.667 -203 528l-52 158c-12.667 41.333 -17.667 65.333 -15 72c6 13.333 14.333 20 25 20
c6.66699 0 14.834 -2.16699 24.501 -6.5s20.167 -26.833 31.5 -67.5c46 -168.667 71.667 -262 77 -280c40.667 -138.667 85 -255 133 -349z" />
    <glyph glyph-name="bracketright" unicode="]" horiz-adv-x="312" 
d="M250 684c0 -8 -3.00293 -53.335 -9.00293 -136.002c-27.333 -381.333 -41 -604 -41 -668c0 -2.66699 1.5 -5.5 4.5 -8.5s4.5 -7.16699 4.5 -12.5c0 -4 -0.666992 -9 -2 -15c-3.33301 -14 -30 -39.167 -80 -75.5s-83.667 -54.5 -101 -54.5c-9.33301 0 -14 6 -14 18
c0 10.667 9.33301 23.334 28 38.001l44 32c26 22.667 46.667 41.667 62 57c4.66699 52.667 10.667 170.667 18 354c4.66699 112.667 13.334 233 26.001 361c2 17.333 3.66699 47 5 89c-16 -5.33301 -54 -9.66602 -114 -12.999c-18.667 -1.33301 -28 5 -28 19
c0 18 6.66699 28 20 30c22.667 -0.666992 50.667 0 84 2c42.667 12 66.334 18 71.001 18c10.667 0 17.334 -3.33301 20.001 -10c1.33301 -2.66699 2 -11 2 -25z" />
    <glyph glyph-name="asciicircum" unicode="^" horiz-adv-x="330" 
d="M263 334c-13.333 0 -21.9951 4.33301 -25.9951 13c-8.66699 19.333 -19.334 59.333 -32.001 120c-20.667 92.667 -32.334 144.334 -35.001 155.001c-16.667 -32.667 -48.334 -105 -95.001 -217c-2.66699 -8 -10.334 -12 -23.001 -12c-18.667 0 -28 8.66699 -28 26
c0 7.33301 2.33301 16 7 26c3.33301 6 29.333 63.333 78 172c31.333 71.333 51 108.666 59 111.999c3.33301 1.33301 6.66602 2 9.99902 2c16 0 29.333 -21.667 40 -65c1.33301 -4.66699 10 -50.334 26 -137.001c6.66699 -33.333 17 -69.666 31 -108.999
c12 -32.667 18 -53 18 -61c0 -16.667 -10 -25 -30 -25z" />
    <glyph glyph-name="underscore" unicode="_" horiz-adv-x="490" 
d="M500 -122h-500v47h500v-47z" />
    <glyph glyph-name="grave" unicode="`" horiz-adv-x="357" 
d="M325 474c0 -14.667 -6.33203 -22.002 -18.999 -22.002c-3.33301 0 -7.33301 0.666992 -12 2c-16 5.33301 -55.333 35.333 -118 90c-64.667 56 -107.667 99 -129 129c-3.33301 4.66699 -5 10.667 -5 18c0 13.333 7.66699 20 23 20c5.33301 0 11.666 -1 18.999 -3
c4.66699 -1.33301 15 -11.333 31 -30c26 -29.333 52.333 -56.666 79 -81.999l43 -42c19.333 -18.667 35 -31 47 -37l15 -1c6.66699 0 12.667 -4.66699 18 -14s8 -18.666 8 -27.999z" />
    <glyph glyph-name="a" unicode="a" horiz-adv-x="369" 
d="M287 5c-2.66699 -3.33301 -7.66797 -4.66602 -15.001 -3.99902s-13 3.16699 -17 7.5s-7.33301 12.166 -10 23.499c-50 -33.333 -94.333 -50 -133 -50c-24.667 0 -44 7.33301 -58 22s-21 33.667 -21 57c0 34 12.333 67.5 37 100.5s53 51.833 85 56.5
c49.333 6.66699 85.666 -24.666 108.999 -93.999c10.667 27.333 16 57.666 16 90.999c0 46 -11 89 -33 129c-14.667 27.333 -37 41 -67 41c-18.667 0 -36.5 -4.83301 -53.5 -14.5s-26.167 -18.5 -27.5 -26.5c0.666992 -3.33301 -2 -5 -8 -5c-18 0 -27.667 7.66699 -29 23
c-1.33301 16.667 11.334 32.5 38.001 47.5s55 22.5 85 22.5c22.667 0 41.334 -4.66699 56.001 -14c59.333 -37.333 89 -104.333 89 -201c0 -45.333 -6.66699 -93.333 -20 -144c-10 -42 -17.667 -64.667 -23 -68zM229.999 85c-19.333 60 -40.001 87.999 -62.001 83.999
c-29.333 -5.33301 -52 -19.666 -68 -42.999c-13.333 -18.667 -20 -39 -20 -61c0 -15.333 3.33301 -25 10 -29s14.667 -6 24 -6c30.667 0 69.334 18.333 116.001 55z" />
    <glyph glyph-name="b" unicode="b" horiz-adv-x="381" 
d="M372 299c3.33301 -7.33301 4.99805 -15.3301 4.99805 -23.9971c0 -41.333 -35.333 -97.333 -106 -168l-121 -108l-16 -20c-3.33301 -4 -9 -5.33301 -17 -4c-19.333 3.33301 -29 14 -29 32c0 4 0.333008 7.66699 1 11c-20 -0.666992 -32.667 4.33301 -38 15
c-4 10 -3.66699 57 1 141c4 77.333 8 130.666 12 159.999c-4.66699 3.33301 -10 12.333 -16 27c-1.33301 12 8.33398 22.667 29.001 32c22.667 86 34 156 34 210c0 4 -1.33301 11.667 -4 23s-4 20 -4 26c0 15.333 8 23.666 24 24.999
c9.33301 0.666992 18.333 -6.33301 27 -21c8.66699 -16.667 13 -36.334 13 -59.001c0 -24 -3.33301 -51 -10 -81c-13.333 -56 -21.666 -93.333 -24.999 -112c128 1.33301 208 -33.667 240 -105zM153.998 351.003c-11.333 0 -22.001 -0.667969 -32.001 -2.00098
c-5.33301 -22.667 -12 -67.667 -20 -135c-0.666992 -16.667 -1 -33 -1 -49c0 -50 3 -93 9 -129c140 100 210 178 210 234c0 28.667 -22 50.334 -66 65.001c-31.333 10.667 -64.666 16 -99.999 16z" />
    <glyph glyph-name="c" unicode="c" horiz-adv-x="510" 
d="M547 183c-0.666992 -4.66699 -24.667 -22.001 -72 -52.001c-54.667 -34 -108.667 -62.667 -162 -86c-70.667 -30 -130.334 -45 -179.001 -45c-48 0 -83.333 14.667 -106 44c-12.667 16 -19 35.667 -19 59c0 56 28.667 119.333 86 190
c56 68.667 106.667 106.334 152 113.001c6 0.666992 11.667 1 17 1c22.667 0 34 -8 34 -24c0 -9.33301 -4.33301 -19.666 -13 -30.999s-17.667 -17 -27 -17c-3.33301 0 -8.66602 0.833008 -15.999 2.5s-13 2.5 -17 2.5c-2.66699 0 -5.33398 -0.333008 -8.00098 -1
c-17.333 -4.66699 -45.666 -32.334 -84.999 -83.001c-45.333 -58 -68 -106 -68 -144c0 -24 10 -42.333 30 -55c12 -7.33301 27.667 -11 47 -11c52.667 0 129.667 26.333 231 79l145 82c2.66699 1.33301 5.66699 2 9 2c6.66699 0 12.167 -2.83301 16.5 -8.5
s5.83301 -11.5 4.5 -17.5z" />
    <glyph glyph-name="d" unicode="d" horiz-adv-x="519" 
d="M493 635c-4 -11.333 -11.998 -68.332 -23.998 -170.999c-12.667 -110 -20.667 -198.333 -24 -265c7.33301 -0.666992 13.666 -2 18.999 -4c13.333 -4.66699 21 -11.334 23 -20.001c1.33301 -5.33301 2 -10 2 -14c0 -11.333 -5.66699 -19.666 -17 -24.999
c-14.667 -5.33301 -29.334 -10.333 -44.001 -15c4 -22 6 -41.667 6 -59c0 -31.333 -7 -46 -21 -44c-20 2.66699 -31.833 11.167 -35.5 25.5s-6.83398 28.5 -9.50098 42.5c-102 -66.667 -185.667 -100 -251 -100c-36 0 -63 12 -81 36c-16 22 -24 47 -24 75
c0 57.333 29.333 115.333 88 174c56.667 56 109 84 157 84c34 0 62.667 -11.333 86 -34c14 -14 31.333 -40 52 -78c30 249.333 43.333 380.333 40 393c-4 16.667 -6 30.667 -6 42c0 18 5.66699 26.667 17 26c14.667 -0.666992 26.834 -5.83398 36.501 -15.501
s14.5 -21.167 14.5 -34.5c0 -6.66699 -1.33301 -13 -4 -19zM361.002 146.001c-3.33301 25.333 -8.33301 47.666 -15 66.999c-15.333 46.667 -36 75.667 -62 87c-8 3.33301 -16.667 5 -26 5c-39.333 0 -81.5 -25.167 -126.5 -75.5s-67.5 -95.833 -67.5 -136.5
c0 -36.667 20 -55 60 -55c26.667 0 64 12.333 112 37c9.33301 4.66699 51 28.334 125 71.001z" />
    <glyph glyph-name="e" unicode="e" horiz-adv-x="486" 
d="M477 219c10 -7.33301 15 -16.334 15 -27.001c0 -14.667 -7.66699 -27.334 -23 -38.001l-114 -84c-74.667 -50 -135.334 -75 -182.001 -75c-42.667 0 -80 21.667 -112 65c-28.667 40.667 -43 83 -43 127c0 61.333 29.333 115 88 161c54.667 43.333 113.334 65 176.001 65
c34 0 62.667 -7.66699 86 -23c2.66699 -1.33301 4 -3.66602 4 -6.99902c0 -11.333 -16.667 -30.666 -50 -57.999c-28 -23.333 -58.667 -45 -92 -65c-44.667 -27.333 -95 -42.666 -151 -45.999c-2 -8 -3 -17.667 -3 -29c0 -29.333 9 -58 27 -86
c23.333 -36.667 51.333 -54.334 84 -53.001c33.333 1.33301 82 23.333 146 66c53.333 36 85 61 95 75c14 24.667 25.333 37 34 37c4.66699 0 9.66699 -1.66699 15 -5zM295 364.999c-36.667 0 -73.333 -9.33105 -110 -27.998c-32 -16 -59.333 -38.333 -82 -67
c12 0.666992 24 2.66699 36 6c28.667 7.33301 56.5 19.166 83.5 35.499s51.167 34.166 72.5 53.499z" />
    <glyph glyph-name="f" unicode="f" horiz-adv-x="390" 
d="M427 661c-3.33301 -12 -10.333 -18.0029 -21 -18.0029c-5.33301 0 -12.333 2 -21 6c-5.33301 2.66699 -10.333 5.33398 -15 8.00098c-14 5.33301 -27.333 8 -40 8c-45.333 0 -79.333 -33 -102 -99c-20.667 -58.667 -30.334 -135.667 -29.001 -231v-23
c0.666992 -9.33301 1 -17 1 -23c31.333 4.66699 66 7 104 7c26 0 41.667 1.83301 47 5.5s11 5.5 17 5.5c9.33301 0 17.333 -3.16699 24 -9.5s10 -14.166 10 -23.499c-1.33301 -18.667 -16.666 -28.667 -45.999 -30c-36 0.666992 -87.667 -1.66602 -155 -6.99902
c0 -110.667 -4.66699 -198.667 -14 -264c-7.33301 -50 -18.666 -111 -33.999 -183c-11.333 -53.333 -16 -82.666 -14 -87.999c2 -8.66699 0 -17.5 -6 -26.5s-15 -13.5 -27 -13.5c-6.66699 0 -13.334 1.33301 -20.001 4c-11.333 4.66699 -17 14 -17 28
c0 11.333 3.66699 21 11 29c4.66699 5.33301 12 30.666 22 75.999c12.667 53.333 22.667 110.333 30 171c9.33301 78 14 163 14 255c-16 -3.33301 -27.333 -7.16602 -34 -11.499s-15 -13.833 -25 -28.5c-7.33301 -10 -16 -15 -26 -15c-8.66699 0 -16.5 3.5 -23.5 10.5
s-10.5 14.833 -10.5 23.5c0 7.33301 3.33301 14.333 10 21c26.667 26.667 62.667 44.667 108 54v27c0.666992 13.333 1 23.333 1 30c0 251.333 63 377 189 377c9.33301 0 19 -0.666992 29 -2c45.333 -6.66699 66.333 -23.334 63 -50.001z" />
    <glyph glyph-name="g" unicode="g" horiz-adv-x="474" 
d="M703 -54c1.33301 -2.66699 2.00293 -4.99609 2.00293 -6.99609c0 -16.667 -20 -23.667 -60 -21c-13.333 0.666992 -21.833 3.83398 -25.5 9.50098s-7.16699 11.5 -10.5 17.5c-33.333 1.33301 -67 1 -101 -1c-11.333 -0.666992 -46.333 -4.33398 -105 -11.001
c10 -22 15 -50.667 15 -86c0 -68 -21 -143.667 -63 -227c-23.333 -45.333 -55.666 -84.666 -96.999 -117.999c-50 -40.667 -101.333 -61 -154 -61c-38.667 0 -76.334 11.667 -113.001 35c-54 34 -81 81.667 -81 143c0 53.333 22.333 104.666 67 153.999
c54 60 109.667 104.333 167 133c42 21.333 104.333 41.666 187 60.999c-8.66699 13.333 -18.667 25 -30 35c-26.667 24 -57.334 37.333 -92.001 40c-10 0.666992 -19.667 1 -29 1c-34 0 -66 -5.5 -96 -16.5s-47 -16.5 -51 -16.5c-7.33301 0 -14.5 2.5 -21.5 7.5
s-10.5 10.833 -10.5 17.5c0 4 1.33301 8 4 12c5.33301 8.66699 19 16.667 41 24c-9.33301 22 -13.333 43.333 -12 64c1.33301 20 11.666 44 30.999 72l81 98c-19.333 12 -28.666 22.333 -27.999 31c1.33301 17.333 8.66602 26 21.999 26c6 0 12.667 -3 20 -9
c2.66699 -2 10 -3 22 -3c18.667 0 60.667 4 126 12s107.333 12 126 12c9.33301 0 16 -0.666992 20 -2c16 -4.66699 24 -11.334 24 -20.001c0 -6 -4.33301 -12.333 -13 -19c-28 -0.666992 -63.333 -2.66699 -106 -6c-19.333 -2.66699 -44.333 -6.66699 -75 -12l24 -25
c16 -20.667 25 -39.667 27 -57c3.33301 -28.667 -4.33398 -55.334 -23.001 -80.001c-12.667 -17.333 -36 -39.333 -70 -66c11.333 -2.66699 34.333 -13.667 69 -33c23.333 -16.667 47 -42.334 71 -77.001c74 8 132.667 11.333 176 10c84.667 -2 133 -15.667 145 -41z
M287.003 227.004c-7.33301 40.667 -32.333 65.335 -75 74.002c-41.333 -36.667 -73.333 -73.334 -96 -110.001c-18 -27.333 -27.333 -48.333 -28 -63c-1.33301 -12.667 1.33398 -27.334 8.00098 -44.001c13.333 2.66699 36.666 9.33398 69.999 20.001
c32 13.333 59 29.666 81 48.999c30.667 25.333 44 50 40 74zM351.003 -77.9951c-42.667 -8 -82.668 -19.333 -120.001 -34c-90 -34.667 -160.333 -83 -211 -145c-38 -46 -57 -87.333 -57 -124c0 -36 18.667 -68 56 -96c24.667 -18.667 52.334 -28 83.001 -28
c35.333 0 71 11.667 107 35c33.333 22 60 49 80 81c52 82.667 78 156.667 78 222c0 30 -5.33301 59.667 -16 89z" />
    <glyph glyph-name="h" unicode="h" horiz-adv-x="474" 
d="M436 69c-0.666992 -7.33301 -0.499023 -16.6631 0.500977 -27.9961s1.5 -18 1.5 -20c0 -14.667 -8.66699 -22.334 -26 -23.001c-16.667 -0.666992 -27 8.33301 -31 27c-2 9.33301 -2 24.666 0 45.999c2 24.667 3 54.667 3 90c0 106.667 -9.66699 165.667 -29 177
c-4.66699 2.66699 -10 4 -16 4c-28 0 -67.333 -23 -118 -69c-48 -42.667 -79.667 -80.334 -95 -113.001c-22 -46 -30.333 -93.333 -25 -142c4 -40.667 -8.33301 -61 -37 -61c-10.667 0 -19 3 -25 9s-9 14 -9 24c0 8.66699 4.33301 22.667 13 42c2.66699 6 5 43.333 7 112
c2.66699 94 9 187.333 19 280l16 189c4 42 13.333 62.667 28 62c23.333 -1.33301 35 -13.333 35 -36c0 -10 -2.66699 -31 -8 -63c-6.66699 -38.667 -11.334 -71.334 -14.001 -98.001c-5.33301 -57.333 -10 -111.333 -14 -162c-2.66699 -31.333 -4.33398 -63 -5.00098 -95
c94.667 117.333 174.334 176 239.001 176c9.33301 0 18.333 -1.33301 27 -4c44 -15.333 66 -91 66 -227c0 -28.667 -1 -61 -3 -97z" />
    <glyph glyph-name="i" unicode="i" horiz-adv-x="234" 
d="M156 699c-4.66699 -10 -13.667 -30.666 -27 -61.999c-4.66699 -12.667 -8 -26.667 -10 -42c-1.33301 -11.333 -4 -18.333 -8 -21c-10 -12 -19.333 -14 -28 -6c-5.33301 4.66699 -8 14.667 -8 30c0 20.667 5.66699 43 17 67c0.666992 1.33301 6.66699 17.666 18 48.999
c4 11.333 11 17 21 17c18.667 0 27 -10.667 25 -32zM154 365.001c-14 -128.667 -22.0029 -209.671 -24.0029 -243.004c-1.33301 -25.333 0.333984 -45.166 5.00098 -59.499s7 -22.5 7 -24.5c0 -4.66699 -1 -10.667 -3 -18c-2.66699 -10 -10.667 -15 -24 -15
c-8 0 -16 3.16699 -24 9.5s-12 27.833 -12 64.5c0 2 3.33301 74 10 216c2.66699 46.667 4.33398 72.334 5.00098 77.001c4 24 13 36.333 27 37c10 0.666992 18.333 -3.16602 25 -11.499s9.33398 -19.166 8.00098 -32.499z" />
    <glyph glyph-name="j" unicode="j" horiz-adv-x="261" 
d="M196 675c2.66699 -29.333 -3.99902 -43.999 -19.999 -43.999c-20 0 -31.333 12.667 -34 38c-0.666992 14 0.166016 23 2.49902 27s7.5 6.66699 15.5 8c22 3.33301 34 -6.33398 36 -29.001zM197.001 -227.999c-30 -100 -78.333 -175.334 -145 -226.001
c-56 -42 -117.667 -63 -185 -63c-55.333 0 -100 13 -134 39c-54 41.333 -81 95 -81 161c0 36.667 6.33301 63.667 19 81c3.33301 4 6.33301 5.33301 9 4c4 -0.666992 6 -4.33398 6 -11.001c0.666992 -1.33301 0.5 -7.66602 -0.5 -18.999s-1.5 -21.666 -1.5 -30.999
c0 -99.333 50.333 -157 151 -173c10 -1.33301 20 -2 30 -2c65.333 0 125.333 28.5 180 85.5s88 124.833 100 203.5c6 35.333 9 77 9 125c0 71.333 -6 154 -18 248l-20 131c0 4.66699 -1.83301 10 -5.5 16s-5.5 12.333 -5.5 19c1.33301 12.667 10.333 19 27 19
c10 0 18.333 -3.66699 25 -11c10 -9.33301 22 -59 36 -149c15.333 -99.333 23 -191.333 23 -276c0 -72 -6.33301 -129 -19 -171z" />
    <glyph glyph-name="k" unicode="k" horiz-adv-x="588" 
d="M650 76c2 -16 -12.3311 -29.666 -42.998 -40.999c-13.333 -6 -26.666 -11.667 -39.999 -17c-23.333 -8.66699 -50.333 -13.334 -81 -14.001c-108.667 -2.66699 -235.667 58.333 -381 183c-8.66699 -43.333 -12.334 -95 -11.001 -155c0 -11.333 2.16699 -26 6.5 -44
s6.5 -30 6.5 -36c0 -17.333 -12.667 -26 -38 -26c-21.333 0 -30.333 50.333 -27 151c4 128 19 257 45 387c22 112 38.667 170.333 50 175c5.33301 2.66699 10.666 4 15.999 4c9.33301 0 16.833 -4.16699 22.5 -12.5s8.5 -17.166 8.5 -26.499
c0 -3.33301 -4.66699 -17.333 -14 -42c-12.667 -30.667 -23.334 -70.667 -32.001 -120c-5.33301 -29.333 -13 -74.333 -23 -135l160 48c113.333 32 188.333 50 225 54c13.333 1.33301 20 -5.66699 20 -21c0 -9.33301 -4.33301 -17 -13 -23l-115 -27
c-90 -21.333 -181.667 -51.333 -275 -90c17.333 -18.667 37 -36.667 59 -54c54 -42 115.667 -78.667 185 -110c48 -21.333 91.667 -32 131 -32c27.333 0 51.333 5 72 15c14 7.33301 23.5 15.166 28.5 23.499s14.167 12.5 27.5 12.5c18 0 28 -9 30 -27z" />
    <glyph glyph-name="l" unicode="l" horiz-adv-x="213" 
d="M177 713c5.33301 -6 8 -14.999 8 -26.999c0 -10.667 -4 -42.334 -12 -95.001c-11.333 -78.667 -21.333 -154 -30 -226c-11.333 -92.667 -17 -182.667 -17 -270c0 -32.667 1 -62 3 -88c2.66699 -43.333 -5.33301 -65 -24 -65c-7.33301 0 -15.166 2.83301 -23.499 8.5
s-12.5 33.167 -12.5 82.5c0 74.667 11 226.667 33 456l14 158c4 41.333 8.66699 64.333 14 69c8.66699 8 16 12 22 12c7.33301 0 15.666 -5 24.999 -15z" />
    <glyph glyph-name="m" unicode="m" horiz-adv-x="630" 
d="M566 21c-10 0 -17.335 4.3291 -22.002 12.9961c-7.33301 13.333 -11 50.333 -11 111c1.33301 43.333 2.33301 86.666 3 129.999c0.666992 68 -7.33301 106.667 -24 116c-4.66699 2.66699 -20.334 -17.333 -47.001 -60c-29.333 -47.333 -55.333 -98.333 -78 -153
c-16.667 -40.667 -33.667 -93.667 -51 -159c-8.66699 -33.333 -18.667 -48.666 -30 -45.999c-18 4.66699 -28.667 15.334 -32 32.001c0 2 -1.33301 36.667 -4 104c-6 166 -13.333 251.667 -22 257c-12.667 8 -34.667 -23 -66 -93c-32.667 -72 -54.334 -142 -65.001 -210v-46
c0 -20 -3.16699 -32.167 -9.5 -36.5s-14.833 -6.16602 -25.5 -5.49902c-11.333 0.666992 -18.833 3.83398 -22.5 9.50098s-5.5 19.834 -5.5 42.501s5.33301 90 16 202c2 21.333 2.33301 44.666 1 69.999c-2 33.333 -3 49.333 -3 48c0 22 10.333 33 31 33
c8 0 14.333 -2.66699 19 -8c12 -12.667 20 -34 24 -64c46.667 97.333 81.334 146 104.001 146c19.333 0 35.333 -12 48 -36c10.667 -16 19.334 -103 26.001 -261c24.667 56 48 104 70 144c52.667 97.333 93.667 148 123 152c10.667 1.33301 22.834 -5.16699 36.501 -19.5
s22.167 -27.833 25.5 -40.5c6 -21.333 9.66699 -74.666 11 -159.999c0.666992 -67.333 0.333984 -113 -0.999023 -137c0 -5.33301 1.66699 -13.833 5 -25.5s5 -20.167 5 -25.5c0 -16 -9.66699 -24 -29 -24z" />
    <glyph glyph-name="n" unicode="n" horiz-adv-x="384" 
d="M331 -50c-10.667 0 -20.834 4.33301 -30.501 13s-14.5 19.334 -14.5 32.001c0 2.66699 0.5 6.5 1.5 11.5s1.5 8.83301 1.5 11.5c0 -1.33301 -1.66699 18.667 -5 60c-4 39.333 -5.66699 80.666 -5 123.999c2.66699 101.333 -0.666016 155.666 -9.99902 162.999
c-7.33301 6 -26.333 -19.833 -57 -77.5s-58 -118.167 -82 -181.5c-9.33301 -24.667 -18.333 -53 -27 -85c-4.66699 -17.333 -9.33398 -27.666 -14.001 -30.999c-7.33301 -3.33301 -13.666 -5 -18.999 -5c-18.667 0 -28 15 -28 45c0 7.33301 1 31 3 71
c2.66699 43.333 4.33398 85.666 5.00098 126.999c1.33301 66 5.66602 126 12.999 180c2.66699 15.333 10 23 22 23c13.333 0 24 -5.33301 32 -16c2.66699 -3.33301 4 -9 4 -17c0 -5.33301 -1.5 -20.833 -4.5 -46.5s-4.83301 -49.5 -5.5 -71.5
c-0.666992 -45.333 -1 -69.666 -1 -72.999c77.333 160.667 135 237 173 229c23.333 -4.66699 38.333 -32.334 45 -83.001c4.66699 -33.333 6.66699 -96 6 -188c0 -87.333 1 -134.333 3 -141c11.333 -23.333 17 -39.666 17 -48.999c0 -16.667 -7.66699 -25 -23 -25z" />
    <glyph glyph-name="o" unicode="o" horiz-adv-x="366" 
d="M342 264c1.33301 -11.333 2 -22.666 2 -33.999c0 -66 -25.667 -123 -77 -171c-46 -42 -93 -63 -141 -63c-14.667 0 -27 2.66699 -37 8c-18.667 9.33301 -35.167 27.5 -49.5 54.5s-21.5 56.833 -21.5 89.5c0 27.333 5.66699 53.666 17 78.999
c50.667 115.333 106 175.333 166 180c25.333 2 51.333 -7.33301 78 -28c34.667 -26 55.667 -64.333 63 -115zM281 302c-8 16.667 -15.666 28.333 -22.999 35c-10.667 9.33301 -26.334 15.333 -47.001 18l1 -5c-16.667 -4 -32.667 -12 -48 -24
c-36 -29.333 -64.667 -75.333 -86 -138c-4 -11.333 -6 -24.333 -6 -39c0 -24 4.66699 -45.667 14 -65c12.667 -24 29.667 -36 51 -36c22 0 46.667 10.667 74 32c26 19.333 44 39 54 59c19.333 38.667 29 73 29 103c0 20.667 -4.33301 40.667 -13 60z" />
    <glyph glyph-name="p" unicode="p" horiz-adv-x="348" 
d="M336 244c2.66699 -26 -12.002 -59.3301 -44.002 -99.9971c-24 -32 -54.667 -64.333 -92 -97c-32.667 -28.667 -52.667 -43.667 -60 -45c-8 -2 -16.167 0 -24.5 6s-13.5 12.333 -15.5 19c-4 -30 -8.33301 -105.333 -13 -226c-2 -116 -0.666992 -178.667 4 -188
c3.33301 -6.66699 5 -13 5 -19c0 -9.33301 -3.16699 -16.833 -9.5 -22.5s-13.166 -7.5 -20.499 -5.5c-19.333 5.33301 -29 19 -29 41c0 6.66699 1.33301 12.667 4 18c0.666992 1.33301 1 4.66602 1 9.99902c0 1.33301 -1 20.833 -3 58.5s-3 74.5 -3 110.5
c0 28.667 0.666992 57.667 2 87c4 91.333 9.66699 171.333 17 240l29 220c-18.667 6.66699 -27 18 -25 34c2.66699 12 13.334 22 32.001 30c15.333 6.66699 28.333 10 39 10c41.333 -0.666992 83 -16.334 125 -47.001c48.667 -36.667 75.667 -81.334 81 -134.001z
M280.998 236.003c5.33301 24.667 -7.33398 52.667 -38.001 84s-61.334 48 -92.001 50c-5.33301 -26 -13.666 -71.333 -24.999 -136c-6 -36.667 -14 -98 -24 -184c30.667 16 57.334 33 80.001 51c56 44 89 89 99 135z" />
    <glyph glyph-name="q" unicode="q" horiz-adv-x="339" 
d="M523 -218c-0.666992 -12.667 -36.6699 -61.332 -108.003 -145.999c-75.333 -90 -125.666 -133.333 -150.999 -130c-32.667 4.66699 -56.667 54 -72 148c-9.33301 60 -14 125 -14 195c0 78.667 9.66699 172 29 280c-57.333 -78 -100.666 -117 -129.999 -117
c-25.333 0 -38 26 -38 78c0 38.667 6.66699 84 20 136c14.667 54.667 37.334 104.334 68.001 149.001c28.667 41.333 53 63.666 73 66.999c10 2 22 -1.5 36 -10.5s20.333 -17.5 19 -25.5c-2 -14 -8 -21 -18 -21h-6h-6c-31.333 0 -63.333 -37.667 -96 -113
c-28.667 -67.333 -43 -119.333 -43 -156c0 -12.667 1.33301 -23.334 4 -32.001c0.666992 -2 2 -3 4 -3c10 0 33.333 25 70 75c34 47.333 58.667 87 74 119c4 7.33301 6 15.333 6 24c0 3.33301 -0.333008 7.83301 -1 13.5s-1 9.5 -1 11.5c0 6.66699 2.83301 11.5 8.5 14.5
s12.5 4.5 20.5 4.5c14 0 24 -5 30 -15c2 -3.33301 3 -7 3 -11c0 -6 -5.66699 -26.667 -17 -62l-23 -71c-7.33301 -26 -15.333 -72 -24 -138c-10.667 -80 -16 -147 -16 -201c1.33301 -152.667 16 -245 44 -277c1.33301 -1.33301 3.33301 -2 6 -2
c14.667 0 53.667 36.833 117 110.5s97.666 110.834 102.999 111.501c14.667 1.33301 23.334 1.66602 26.001 0.999023s3.66699 -3 3 -7z" />
    <glyph glyph-name="r" unicode="r" horiz-adv-x="408" 
d="M432 424c9.33301 -3.33301 14.0059 -12.0029 14.0059 -26.0029c0 -12 -7.66699 -20 -23 -24c-5.33301 -1.33301 -13 -0.333008 -23 3s-17.667 5 -23 5c-8.66699 0 -17.334 -2.66699 -26.001 -8c-62.667 -35.333 -133 -112.333 -211 -231
c-14.667 -22 -23.834 -51.667 -27.501 -89s-6.83398 -57.666 -9.50098 -60.999c-6 -7.33301 -13.333 -11 -22 -11c-10.667 0 -19.667 4 -27 12c-5.33301 5.33301 -8 14.666 -8 27.999c0 8.66699 2 29 6 61c5.33301 36.667 8.66602 69 9.99902 97
c1.33301 24.667 2 47.334 2 68.001c0 50.667 -3.66699 91 -11 121s-11 42.333 -11 37c0 1.33301 0.666992 3 2 5c7.33301 12 16.666 18 27.999 18c7.33301 0 14.666 -3.33301 21.999 -10c12 -11.333 18.667 -44 20 -98c0.666992 -26 1 -66.333 1 -121
c14 18.667 28 36.334 42 53.001c34 40.667 64.333 73.334 91 98.001c32.667 30.667 52.667 48.667 60 54c26 18 52 27 78 27c14.667 0 30 -2.66699 46 -8z" />
    <glyph glyph-name="s" unicode="s" horiz-adv-x="342" 
d="M323 476c2.66699 -14.667 -4.33594 -21.9961 -21.0029 -21.9961c-7.33301 0 -15 2 -23 6s-13 6 -15 6c-14.667 -0.666992 -29.667 -7.33398 -45 -20.001l-79 -73c-23.333 -20.667 -41.666 -45.334 -54.999 -74.001c-12 -26 -16.667 -47 -14 -63
c4.66699 -27.333 19.667 -48 45 -62l86 -33c46.667 -18 73.334 -29 80.001 -33c22.667 -14 35.667 -34 39 -60c2 -18 -26 -45 -84 -81c-54.667 -34 -86.667 -50.333 -96 -49c-24 0.666992 -36 9.66699 -36 27c0 5.33301 2 10.333 6 15l80 38c49.333 24.667 73 43.667 71 57
c-2 12 -23 24.333 -63 37c-55.333 17.333 -92.666 31.666 -111.999 42.999c-41.333 23.333 -64 54.333 -68 93c-6 50.667 15.333 104 64 160c21.333 24 63.666 62.333 126.999 115c20 16.667 41.333 20 64 10l29 -17c12.667 -8.66699 19.334 -15.334 20.001 -20.001z" />
    <glyph glyph-name="t" unicode="t" horiz-adv-x="396" 
d="M453 426c0.666992 -13.333 -7.33398 -20.0029 -24.001 -20.0029c-4 0 -10 0.5 -18 1.5s-13.333 1.5 -16 1.5c-45.333 0 -101 -7.33301 -167 -22c-14.667 -122 -22 -224 -22 -306c0 -18 0.333008 -34.333 1 -49c0 -0.666992 0.833008 -4.66699 2.5 -12
s2.5 -13.333 2.5 -18c0 -17.333 -9.33301 -25.333 -28 -24c-12 0.666992 -21.333 7.33398 -28 20.001c-5.33301 10.667 -7.66602 22.334 -6.99902 35.001c0 35.333 3.66699 105 11 209c4 30.667 9.33301 75.334 16 134.001c-16 -4 -44.333 -13.333 -85 -28
c-15.333 -7.33301 -31 -17 -47 -29c-10.667 -8 -18 -11.333 -22 -10c-20.667 5.33301 -31 15 -31 29c0 17.333 21 34 63 50c23.333 9.33301 66.666 23.666 129.999 42.999c4.66699 27.333 12.667 91.333 24 192c0.666992 4 0.666992 10.667 0 20
c-1.33301 12 -2 20.333 -2 25c0 26 7.66699 39 23 39c20.667 0 31 -24 31 -72c0 -15.333 -1 -33.333 -3 -54c-4 -25.333 -11 -72.333 -21 -141c54.667 10.667 107.334 14.667 158.001 12c18.667 -0.666992 31 -2 37 -4c14 -3.33301 21.333 -10.666 22 -21.999z" />
    <glyph glyph-name="u" unicode="u" horiz-adv-x="342" 
d="M313 355c-6.66699 -47.333 -19.335 -105.667 -38.002 -175c-28 -100 -54.667 -156 -80 -168c-10.667 -5.33301 -21 -8 -31 -8c-73.333 0 -114 130.667 -122 392c-0.666992 13.333 1.5 22.833 6.5 28.5s11.167 7.83398 18.5 6.50098c20.667 -4 30.667 -16.667 30 -38
c-3.33301 -86 2.66699 -162.667 18 -230c14 -64.667 30.667 -97 50 -97c6.66699 0 13.334 5.66699 20.001 17c21.333 37.333 39 91 53 161c9.33301 49.333 14.333 87.666 15 114.999c0.666992 25.333 11.334 37.333 32.001 36c16 -0.666992 25.333 -14 28 -40z" />
    <glyph glyph-name="v" unicode="v" horiz-adv-x="441" 
d="M492 467c0 -30 -18.332 -60.3359 -54.999 -91.0029c-20 -17.333 -61.667 -72.666 -125 -165.999c-60 -88 -95 -142.667 -105 -164c-15.333 -36 -32.666 -54 -51.999 -54c-4.66699 0 -9.33398 1.33301 -14.001 4c-8.66699 4.66699 -15.667 14.667 -21 30
c-3.33301 12.667 -7 25.334 -11 38.001c-14 59.333 -31.333 127 -52 203c-16 44.667 -24 71 -24 79c0 12.667 6.33301 19 19 19c10.667 0 21.667 -7.66699 33 -23s20 -34.333 26 -57c3.33301 -21.333 12.333 -64.666 27 -129.999
c3.33301 -13.333 9.66602 -37.333 18.999 -72l121 173l145 197c14 33.333 28.333 50 43 50c7.33301 0 13.5 -4 18.5 -12s7.5 -16 7.5 -24z" />
    <glyph glyph-name="w" unicode="w" horiz-adv-x="708" 
d="M732 423c12 -6 17.999 -14.666 17.999 -25.999c0 -15.333 -8.33301 -30.666 -25 -45.999c-14 -12.667 -68.667 -85.334 -164 -218.001c-33.333 -46 -54.666 -75 -63.999 -87c-26 -35.333 -41.833 -53.666 -47.5 -54.999s-12.834 -1.66602 -21.501 -0.999023
c-10.667 1.33301 -17.334 4.33301 -20.001 9c-12 20.667 -32 91.667 -60 213c-5.33301 25.333 -14 63 -26 113c-18 -20 -34.333 -39 -49 -57c-36 -44.667 -61.333 -82 -76 -112l-42 -102c-20.667 -42 -40.667 -62.667 -60 -62c-16.667 0.666992 -26.667 19.667 -30 57
c-1.33301 52 -3 104.333 -5 157c-1.33301 30.667 -4 66.334 -8 107.001c-2 25.333 -2.33301 40.666 -1 45.999c4 13.333 12.667 20 26 20c8 0 15 -2.33301 21 -7c8.66699 -6.66699 13.334 -15.334 14.001 -26.001l2 -45c0 -31.333 1 -78 3 -140
c0.666992 -10.667 1.66699 -22 3 -34l28 56c23.333 42.667 46 76.667 68 102l83 98c4.66699 8 15.667 12 33 12c11.333 0 20.333 -2.33301 27 -7c4 -2.66699 9.33301 -19.834 16 -51.501l19 -92.5c10.667 -48.667 26.334 -105.334 47.001 -170.001l235 306
c10 32 22.667 48 38 48c5.33301 0 11.333 -1.66699 18 -5z" />
    <glyph glyph-name="x" unicode="x" horiz-adv-x="270" 
d="M251 409c0.666992 -2 -27.332 -68.3301 -83.999 -198.997l54 -145c15.333 -35.333 22.666 -56 21.999 -62c1.33301 -6 -1.33398 -11 -8.00098 -15s-14.667 -5 -24 -3c-16 3.33301 -26 21.666 -30 54.999c0 2.66699 -13.333 39 -40 109
c-55.333 -130.667 -82.666 -197.667 -81.999 -201c1.33301 -11.333 0.333008 -21.666 -3 -30.999c-5.33301 -16.667 -16.666 -24 -33.999 -22c-8 0 -14.667 4.16699 -20 12.5s-8 17.166 -8 26.499c0 8.66699 2 14.667 6 18s42 92.333 114 267l-57 145
c-4 11.333 -6 20.666 -6 27.999c0 14 7.33301 21 22 21c15.333 0 37.666 -42.667 66.999 -128l1 -2c42 101.333 66.667 153.666 74 156.999c3.33301 1.33301 6.66602 2 9.99902 2c14.667 0 23.334 -11 26.001 -33z" />
    <glyph glyph-name="y" unicode="y" horiz-adv-x="393" 
d="M364 267c-9.33301 -94.667 -25 -245.003 -47 -451.003c-4.66699 -42 -10.667 -89 -18 -141c-5.33301 -37.333 -8 -59.333 -8 -66c0 -3.33301 0.333008 -5.66602 1 -6.99902c9.33301 -12 14 -25.333 14 -40c0 -17.333 -11.333 -26.333 -34 -27
c-28 -0.666992 -42 10 -42 32c0 19.333 4 30 12 32c4.66699 1.33301 17.667 107.333 39 318c14 138.667 22 258.667 24 360c-118.667 -146.667 -196.667 -219.667 -234 -219c-19.333 0.666992 -29 22.334 -29 65.001c0 22 9 96.333 27 223
c5.33301 39.333 8.33301 60.666 9 63.999c4 16.667 11 26.334 21 29.001c5.33301 2 12.833 -0.333008 22.5 -7s14.834 -14 15.501 -22c0 -4.66699 -6.66699 -40.667 -20 -108c-13.333 -69.333 -20 -115 -20 -137c0 -13.333 2.66699 -20 8 -20c10.667 0 35 20.333 73 61
c15.333 16.667 53.666 60.667 114.999 132c0.666992 0.666992 6 10.334 16 29.001c6.66699 12 14 18 22 18c3.33301 0 7 -0.666992 11 -2c16 -6 24 -34 24 -84c0 -11.333 -0.666992 -22 -2 -32z" />
    <glyph glyph-name="z" unicode="z" horiz-adv-x="462" 
d="M566 98c-5.33301 -2.66699 -12.998 -4.33301 -22.998 -5h-27c-20 -2 -90.667 -18 -212 -48c-115.333 -28.667 -196.333 -43 -243 -43c-10.667 0 -27 7.33301 -49 22c-4 2.66699 -6 6 -6 10c0 6 19.333 25.333 58 58c57.333 48 109.666 98.333 156.999 151
c37.333 40.667 56 69 56 85c0 2 -0.666992 3.66699 -2 5c-4 4 -22 5 -54 3c-28 -2 -48.667 -4.66699 -62 -8c-2 -0.666992 -16.333 -5 -43 -13c-17.333 -5.33301 -30.333 -8 -39 -8c-16 0 -24 6.33301 -24 19s14.333 24.334 43 35.001c23.333 8.66699 49 15 77 19
c18.667 2.66699 38.667 4 60 4c28.667 0 54.167 -2 76.5 -6s34.166 -8.66699 35.499 -14c1.33301 -2.66699 2 -6.33398 2 -11.001c0 -28 -20.667 -66.333 -62 -115c-16.667 -20 -51.667 -55.667 -105 -107c-45.333 -42.667 -68 -65.667 -68 -69s36.333 0.666992 109 12
c65.333 10 117.333 19 156 27c9.33301 2 44 10 104 24c38 9.33301 59.333 13 64 11s10 -6.66699 16 -14s9 -13.333 9 -18c0 -2.66699 -1.33301 -4.66699 -4 -6z" />
    <glyph glyph-name="braceleft" unicode="{" horiz-adv-x="420" 
d="M529 727c-4 -14.667 -10.667 -21.998 -20 -21.998c-6 0 -13.333 2.66699 -22 8c-5.33301 3.33301 -10.333 6.66602 -15 9.99902c-24 8.66699 -45.333 13 -64 13c-40 0 -69 -21.5 -87 -64.5s-28 -109.833 -30 -200.5c-2 -76.667 -24 -129.334 -66 -158.001
c-30 -20 -83.667 -33 -161 -39c64 -20.667 105.667 -35.667 125 -45c28.667 -15.333 55.667 -39 81 -71c38 -49.333 57 -107.333 57 -174c0 -4 -0.333008 -9.66699 -1 -17v-15c0 -29.333 3.33301 -52.333 10 -69c9.33301 -22.667 27.333 -43 54 -61
c9.33301 -6 21.833 -7.33301 37.5 -4s27.167 2.66602 34.5 -2.00098c11.333 -8 17 -19 17 -33c0 -18.667 -6.83301 -29.834 -20.5 -33.501s-26.5 -5.5 -38.5 -5.5c-44 0 -79.333 21 -106 63c-26 40 -38 90.667 -36 152c0.666992 46.667 -1.66602 81.334 -6.99902 104.001
c-6.66699 26.667 -21.667 54 -45 82c-30 36.667 -75.333 64 -136 82l-162 35c-26 6.66699 -37.667 16.334 -35 29.001c5.33301 22 20 33 44 33c8 0 20.833 -1.83301 38.5 -5.5s30.5 -5.5 38.5 -5.5c86 1.33301 145.333 14.333 178 39c29.333 22.667 44.666 62 45.999 118
c2.66699 120 20 204.333 52 253c26 39.333 65.667 59 119 59c15.333 0 34.333 -1.66699 57 -5c48 -7.33301 69 -24 63 -50z" />
    <glyph glyph-name="bar" unicode="|" horiz-adv-x="201" 
d="M146 30c0 -16.667 -10.998 -25.002 -32.998 -25.002c-15.333 0 -24.333 5 -27 15c-18.667 66.667 -26 142.334 -22 227.001c4.66699 106.667 11 220.334 19 341.001c5.33301 88 7.66602 133.667 6.99902 137c-0.666992 7.33301 3.66602 16 12.999 26s20 15.333 32 16
c16.667 0.666992 25 -6.33301 25 -21c0 -8 -4.5 -17.5 -13.5 -28.5s-17.833 -151.833 -26.5 -422.5c-2 -61.333 1.83301 -122.333 11.5 -183s14.5 -88 14.5 -82z" />
    <glyph glyph-name="braceright" unicode="}" horiz-adv-x="360" 
d="M392 273c-9.33301 -6.66699 -19.001 -10.667 -29.001 -12c-13.333 -2 -33.333 -10 -60 -24c-12 -6 -24 -18.833 -36 -38.5s-19.667 -39.834 -23 -60.501c-6 -31.333 -9.66699 -70.666 -11 -117.999c-1.33301 -52.667 -3 -86.334 -5 -101.001
c-8 -68 -18.333 -117.333 -31 -148c-16.667 -41.333 -40.334 -62 -71.001 -62c-20.667 0 -44.667 8.33301 -72 25c-32.667 20 -49 36.667 -49 50c0 4 1.66699 9 5 15c6 7.33301 12.667 11 20 11c10 0 22.167 -8.33301 36.5 -25s27.5 -25 39.5 -25
c33.333 0 56.666 58.667 69.999 176c2 14 3.33301 47.333 4 100c0.666992 44 4.5 84.667 11.5 122s22.167 70.333 45.5 99c-34 13.333 -57.667 26 -71 38c-17.333 17.333 -28.666 42.333 -33.999 75c-1.33301 6.66699 -0.666016 31.667 2.00098 75
c3.33301 52.667 5 93.334 5 122.001c0 102.667 -17 154 -51 154c-5.33301 0 -12 -1.66699 -20 -5s-14 -5 -18 -5c-17.333 0 -27.666 10 -30.999 30c-0.666992 6.66699 1.16602 12.5 5.49902 17.5s10.833 7.16699 19.5 6.5c13.333 2 36.666 3.33301 69.999 4
c50.667 -4 76 -77.333 76 -220c0 -14 -0.333008 -34 -1 -60v-55c0 -48 3.66699 -76.667 11 -86c26.667 -33.333 58.334 -50 95.001 -50c7.33301 0 14 1 20 3c8.66699 2.66699 18 8 28 16c8 6.66699 15.333 10 22 10c4.66699 0 9.33398 -1 14.001 -3
c16 -5.33301 24 -15.666 24 -30.999c0 -8.66699 -3.66699 -15.334 -11 -20.001z" />
    <glyph glyph-name="asciitilde" unicode="~" horiz-adv-x="636" 
d="M562 271c0 -11.333 -5.00098 -17.668 -15.001 -19.001c-5.33301 -1.33301 -19.333 -8.66602 -42 -21.999c-58.667 -36 -96.334 -58.667 -113.001 -68c-50.667 -26.667 -90 -40 -118 -40c-23.333 0 -39 11.667 -47 35c-2.66699 8 -5 29.333 -7 64
c-2 23.333 -7.66699 35 -17 35c-12.667 0 -31.167 -10.833 -55.5 -32.5s-37.166 -37.334 -38.499 -47.001s-7.33301 -14.5 -18 -14.5c-18.667 0 -28 7.66699 -28 23c0 22.667 19.333 48.334 58 77.001s70 41.667 94 39c12 -1.33301 23 -9 33 -23
c14 -18 20.667 -42.667 20 -74c-0.666992 -20.667 2.66602 -32 9.99902 -34c15.333 -3.33301 55.333 12 120 46c62 32 99 55 111 69c10.667 12 20.334 18 29.001 18c6.66699 0 12.334 -3.5 17.001 -10.5s7 -14.167 7 -21.5z" />
    <glyph glyph-name="nonbreakingspace" unicode="&#xa0;" horiz-adv-x="498" 
 />
    <glyph glyph-name="exclamdown" unicode="&#xa1;" horiz-adv-x="309" 
d="M192 625c2 -20.667 -1.33301 -32.333 -10 -35c-26 -2.66699 -40 7 -42 29c-3.33301 30 3.66699 46 21 48c8 1.33301 15 -3 21 -13s9.33301 -19.667 10 -29zM202 352.001l-7.00098 -401.999c2 -42 2.33301 -86.333 1 -133c-8 -10 -17.667 -15 -29 -15
c-8 0 -14.667 3.66699 -20 11c-12.667 15.333 -15.667 106 -9 272c1.33301 29.333 5.33301 82.333 12 159c4.66699 60 6.33398 93.333 5.00098 100c-4 13.333 -8.33301 31.333 -13 54c0 10 2.5 18.333 7.5 25s10.833 8.66699 17.5 6c24 -2.66699 35.667 -28.334 35 -77.001z
" />
    <glyph glyph-name="cent" unicode="&#xa2;" horiz-adv-x="636" 
d="M545 232c0 -13.333 -8.00098 -21.667 -24.001 -25c-8.66699 -2 -29.667 -12.333 -63 -31c-39.333 -22.667 -68.333 -38 -87 -46s-50 -19.667 -94 -35c-16 -86 -24 -138.333 -24 -157c0 -5.33301 0.833008 -10.166 2.5 -14.499s2.5 -6.83301 2.5 -7.5
c0 -6 -5.16699 -12.667 -15.5 -20s-20.5 -11 -30.5 -11c-19.333 0 -29 8 -29 24c0 5.33301 2.33301 15.333 7 30c10.667 34 22 83 34 147c-34.667 -2.66699 -61.667 4 -81 20c-23.333 19.333 -34.333 50.333 -33 93c0.666992 34 17.334 72 50.001 114
c28.667 38 64.667 72.667 108 104c10 81.333 25 164 45 248c8 33.333 20 50 36 50c8.66699 0 17 -4.83301 25 -14.5s11 -17.5 9 -23.5c-9.33301 -30 -27 -103.333 -53 -220c34.667 18 63.334 27 86.001 27c9.33301 0 19 -3 29 -9s15 -13 15 -21
c0 -7.33301 -7.66699 -11 -23 -11c-6 0 -12.667 0.333008 -20 1c-19.333 2.66699 -52 -13 -98 -47c-5.33301 -48 -17 -133 -35 -255c37.333 11.333 78.666 29.666 123.999 54.999c38.667 22 62 37.667 70 47c11.333 13.333 22 20 32 20c8 0 15.833 -3.33301 23.5 -10
s11.5 -14 11.5 -22zM259.999 346.999c-66.667 -63.333 -100 -117 -100 -161c0 -14 4.33301 -26 13 -36c11.333 -14.667 31 -21 59 -19c8.66699 54.667 18 126.667 28 216z" />
    <glyph glyph-name="sterling" unicode="&#xa3;" horiz-adv-x="636" 
d="M589 24c0 -10.667 -5.33301 -17.335 -16 -20.002c-15.333 -7.33301 -40.333 -16 -75 -26c-7.33301 -1.33301 -14.333 -2 -21 -2c-24 0 -45.667 7 -65 21c-12 8.66699 -26.833 23.667 -44.5 45s-31.5 35.333 -41.5 42c-24.667 16.667 -50 25 -76 25
c-19.333 0 -34.666 -5.33301 -45.999 -16c-22.667 -18.667 -56.667 -52 -102 -100c-6 -7.33301 -14 -11 -24 -11c-20 0 -30 7.33301 -30 22c0 16 19.667 42.333 59 79l79 70c22.667 23.333 36 72 40 146c-16.667 0 -46.667 -1 -90 -3c-12 -0.666992 -22.167 2.5 -30.5 9.5
s-12.5 14.5 -12.5 22.5c0 12.667 8.33301 19.667 25 21c24 -0.666992 60 -0.333984 108 0.999023c0.666992 127.333 18.667 217.333 54 270c26.667 38.667 64.667 58 114 58c13.333 0 30 -1.33301 50 -4c45.333 -7.33301 66.333 -24 63 -50
c-3.33301 -12.667 -10 -19 -20 -19c-6 0 -13.333 2.33301 -22 7c-5.33301 2.66699 -10.333 5.33398 -15 8.00098c-18 6.66699 -34.333 10 -49 10c-82 0 -122.667 -93 -122 -279c30 0.666992 60 1 90 1c25.333 0.666992 40.666 2.83398 45.999 6.50098s11.333 5.5 18 5.5
c8.66699 0 16.334 -3.16699 23.001 -9.5s10 -14.166 10 -23.499c-0.666992 -12 -4.33398 -18.667 -11.001 -20c-8.66699 0 -17 -0.333008 -25 -1c-48 -2 -84.333 -4.33301 -109 -7c-16.667 -1.33301 -30 -2 -40 -2c-0.666992 -63.333 -8 -109 -22 -137
c58 -2.66699 106.667 -31.334 146 -86.001c26 -36 52.333 -54 79 -54c16.667 0 35 5.66699 55 17c9.33301 10.667 17.333 16 24 16s12.667 -3.66699 18 -11s8 -14.666 8 -21.999z" />
    <glyph glyph-name="currency" unicode="&#xa4;" horiz-adv-x="420" 
d="M371 159c0.666992 -3.33301 -2 -6.50195 -8 -9.50195s-13.333 -4.5 -22 -4.5c-28.667 0 -46 14 -52 42c-0.666992 4 -8 16.667 -22 38c-43.333 -42.667 -85 -64 -125 -64c-6.66699 0 -13 0.666992 -19 2c-5.33301 -19.333 -22 -28.666 -50 -27.999
c-18.667 0.666992 -28 9.66699 -28 27c0 10.667 4.33301 18 13 22c1.33301 0.666992 4.33301 3.66699 9 9c-12 12.667 -18 30 -18 52c0 56.667 25.667 121.667 77 195l-44 64c-6 8.66699 -9 16 -9 22c0 10 10 15 30 15c14.667 0 34.334 -17.667 59.001 -53
c41.333 51.333 66.666 77 75.999 77c6 0 9.83301 -4.5 11.5 -13.5s2.83398 -17.5 3.50098 -25.5c8 0 24.667 -5 50 -15c14.667 18 27 27 37 27c13.333 0 21.666 -8.33301 24.999 -25c0.666992 -1.33301 -7.66602 -13.666 -24.999 -36.999c12.667 -20.667 19 -43.667 19 -69
c0 -46.667 -18.333 -93.667 -55 -141l38 -60c6.66699 -7.33301 13 -15 19 -23c7.33301 -10 10.666 -18 9.99902 -24zM270 468.998c-8 5.33301 -16.667 8 -26 8c-18 0 -36.667 -10 -56 -30c8 -13.333 18.333 -29.333 31 -48zM301 423.998l-53 -70l31 -49
c18.667 27.333 28 54.333 28 81c0 12 -2 24.667 -6 38zM185 351.998l-31 47.001c-33.333 -55.333 -50 -101.333 -50 -138c0 -6.66699 0.666992 -12.334 2 -17.001zM243 262.999l-29 45l-70 -96c28 -0.666992 61 16.333 99 51z" />
    <glyph glyph-name="yen" unicode="&#xa5;" horiz-adv-x="636" 
d="M597 653c0 -7.33301 -5.32812 -16.9971 -15.9951 -28.9971c-5.33301 -6 -11.833 -9.16699 -19.5 -9.5s-12.834 -1.83301 -15.501 -4.5c-14 -11.333 -47.333 -53.333 -100 -126l-99 -140c-13.333 -17.333 -20 -32.333 -20 -45c0 -4 1.33301 -16 4 -36l139 59
c41.333 14.667 65.666 22 72.999 22c15.333 0 23 -8 23 -24c0 -9.33301 -6.16699 -17.5 -18.5 -24.5s-25.5 -10.5 -39.5 -10.5c-23.333 0 -81.333 -22 -174 -66c0.666992 -6.66699 1 -19 1 -37c25.333 9.33301 48 16.666 68 21.999
c40.667 11.333 75.334 19.666 104.001 24.999c18 3.33301 28.833 5.83301 32.5 7.5s8.5 2.5 14.5 2.5c24.667 0 34.667 -11 30 -33c-1.33301 -7.33301 -8.16602 -15.833 -20.499 -25.5s-23.5 -14.5 -33.5 -14.5s-15.667 6 -17 18c-0.666992 4 -3.66699 6 -9 6
c-9.33301 0 -52 -13 -128 -39c-8.66699 -3.33301 -21.667 -9 -39 -17c0.666992 -23.333 5.33398 -65 14.001 -125c5.33301 -9.33301 8 -17.333 8 -24c0 -14 -7.33301 -22.333 -22 -25c-12.667 -2 -23.334 1.16699 -32.001 9.5s-12 18.833 -10 31.5
c0.666992 3.33301 -2 18.333 -8 45c-6.66699 29.333 -10.334 48.666 -11.001 57.999l-42 -23c-22 -13.333 -57.667 -32.333 -107 -57c-4 -1.33301 -7.66699 -2 -11 -2c-8.66699 0 -14.834 3.66699 -18.501 11s-4.83398 14.666 -3.50098 21.999c1.33301 9.33301 11 19 29 29
c49.333 26.667 99.666 51 150.999 73l-1 32l-113 -53c-32.667 -15.333 -51 -25.666 -55 -30.999c-6.66699 -7.33301 -14.334 -11 -23.001 -11c-10.667 0 -19 6 -25 18c-2 2.66699 -3 5.66699 -3 9c0 16.667 25 35.667 75 57l142 60c-2 26 -5 42 -9 48l-108 186
c-4 8 -17.333 28.667 -40 62c-11.333 17.333 -17 30.333 -17 39c0 17.333 6.66699 26 20 26c18 0 40 -18.667 66 -56c13.333 -18.667 32.666 -57 57.999 -115c19.333 -44.667 33 -66 41 -64c8.66699 2.66699 73.334 76 194.001 220c19.333 19.333 39 41 59 65
c4 20 14.333 30 31 30c6.66699 0 13.5 -2.66699 20.5 -8s10.5 -11.333 10.5 -18z" />
    <glyph glyph-name="brokenbar" unicode="&#xa6;" horiz-adv-x="201" 
d="M135 731c1.33301 -2.66699 2 -5.99902 2 -9.99902c0 -3.33301 -2 -19 -6 -47c-5.33301 -32.667 -9 -66 -11 -100c-4 -68 -5 -107.667 -3 -119c0.666992 -2.66699 3 -5.83398 7 -9.50098s6 -8.16699 6 -13.5c0 -8.66699 -3.66699 -18 -11 -28s-15 -15 -23 -15
c-8.66699 0 -15.5 6 -20.5 18s-7.5 49.667 -7.5 113c0 101.333 5.66699 173.333 17 216c3.33301 14 11 21 23 21c10 0 19 -8.66699 27 -26zM133 293.001c-13.333 -118.667 -20.665 -193.334 -21.998 -224.001c-2 -23.333 -0.666992 -41.666 4 -54.999s7 -20.666 7 -21.999
c0 -4.66699 -1 -10.334 -3 -17.001c-2.66699 -9.33301 -10 -14 -22 -14c-8 0 -15.667 3 -23 9s-11 25.667 -11 59c0 2 3.33301 68.333 10 199c2 43.333 3.33301 67 4 71c3.33301 22 11.666 33.667 24.999 35c9.33301 0 17.166 -3.83301 23.499 -11.5
s8.83301 -17.5 7.5 -29.5z" />
    <glyph glyph-name="section" unicode="&#xa7;" horiz-adv-x="420" 
d="M359 330c19.333 -31.333 29.0039 -63.335 29.0039 -96.002c0 -48 -21.667 -96 -65 -144c-6.66699 -7.33301 -13 -13.333 -19 -18c8.66699 -24 13 -50.333 13 -79c0 -70.667 -28.667 -122.334 -86 -155.001c-36.667 -20.667 -73.334 -30.334 -110.001 -29.001
c-20 0.666992 -32 1.66699 -36 3c-6.66699 3.33301 -9.66699 11 -9 23c0 20.667 13 31 39 31c6 0 12.333 -0.666992 19 -2c21.333 -4.66699 46.666 3.33301 75.999 24c36 26.667 54 63.667 54 111c0 21.333 -2.66699 40.333 -8 57c-15.333 7.33301 -21 18 -17 32
c-14.667 20 -42.334 41.333 -83.001 64c-45.333 26 -75.333 46 -90 60c-28 27.333 -42 61 -42 101c0 6.66699 0.333008 13.334 1 20.001c5.33301 56.667 41.666 102.667 108.999 138c-16 32 -24 60.333 -24 85c0 40.667 20.667 78.667 62 114
c37.333 31.333 73.333 47 108 47c10 0 18.667 -1.66699 26 -5c17.333 -9.33301 26 -19.333 26 -30c0 -7.33301 -4.5 -13.666 -13.5 -18.999s-16.5 -7.33301 -22.5 -6c-18 4 -41.667 -0.666992 -71 -14c-38.667 -18 -58 -46 -58 -84c0 -23.333 5.66699 -45.666 17 -66.999
c21.333 3.33301 34 -3.66699 38 -21c1.33301 -9.33301 0.333008 -16.666 -3 -21.999l73 -53c30.667 -22 53 -44 67 -66zM334.004 247.998c-4.66699 29.333 -17.001 53.9961 -37.001 73.9961c-10.667 10.667 -31.5 25.834 -62.5 45.501s-53.833 37.834 -68.5 54.501
c-57.333 -22 -86 -56 -86 -102c0 -13.333 2.33301 -27.666 7 -42.999c8 -26 35 -51.333 81 -76c54 -30.667 90 -56.667 108 -78c1.33301 0 2.33301 0.333008 3 1c8.66699 2.66699 19.334 11.334 32.001 26.001c17.333 20.667 26 45 26 73c0 8 -1 16.333 -3 25z" />
    <glyph glyph-name="dieresis" unicode="&#xa8;" horiz-adv-x="371" 
d="M349 621c-0.666992 -4.66699 -3.99902 -12.668 -9.99902 -24.001c-16 -32.667 -25.333 -59.334 -28 -80.001c-0.666992 -5.33301 -3.33398 -12.666 -8.00098 -21.999c-6.66699 -6 -13 -9 -19 -9c-12 0 -18 11.333 -18 34c0 21.333 5.66699 44 17 68
c4 8.66699 7.66699 18 11 28l8 25c4.66699 8.66699 11.667 13 21 13c8 0 14.5 -3.16699 19.5 -9.5s7.16699 -14.166 6.5 -23.499zM198.001 624.999c-0.666992 -2 -3.66699 -10.335 -9 -25.002c-6 -17.333 -9 -39.666 -9 -66.999c-0.666992 -12.667 -2.66699 -21.667 -6 -27
c-5.33301 -6.66699 -14 -9 -26 -7c-9.33301 2 -14 15.667 -14 41c0 14 1.33301 30.333 4 49c2 12.667 5.66699 31.334 11 56.001c5.33301 13.333 12.333 20 21 20c4 0 8.33301 -1 13 -3c14.667 -8 19.667 -20.333 15 -37z" />
    <glyph glyph-name="copyright" unicode="&#xa9;" horiz-adv-x="714" 
d="M653 411c1.33301 -59.333 -16.498 -123.002 -53.498 -191.002s-83.833 -124 -140.5 -168c-62 -48 -124.333 -72 -187 -72c-47.333 0 -91 19.333 -131 58c-50 48 -75 113.333 -75 196c0 77.333 27 150.666 81 219.999c33.333 42.667 65.666 73.334 96.999 92.001l18 18
c6 6.66699 16 12.667 30 18c11.333 4 22.333 8.33301 33 13c26.667 12.667 45.667 21 57 25c21.333 8 41.666 12.333 60.999 13c17.333 0.666992 29.5 -2.66602 36.5 -9.99902s12.167 -11.333 15.5 -12c28 -4 56 -17.333 84 -40c47.333 -37.333 72 -90.666 74 -159.999z
M608.002 418.998c-3.33301 90 -55 137.336 -155 142.003c-49.333 2 -92.333 -7 -129 -27c-41.333 -22 -62 -52 -62 -90c0 -8.66699 1 -17.667 3 -27c4 -16.667 6 -24.667 6 -24c0 -6 -2.66699 -9 -8 -9c-13.333 -2 -24.666 5.66699 -33.999 23
c-7.33301 14.667 -11 31 -11 49l-27 -25c-20 -23.333 -36.667 -49.333 -50 -78c-18 -38.667 -27 -77.334 -27 -116.001c0 -72 20 -126.667 60 -164c31.333 -30 67 -44.333 107 -43c79.333 3.33301 154.666 48.666 225.999 135.999c70 85.333 103.667 169.666 101 252.999z
M461.002 276.001c4.66699 -6 7.00098 -11.667 7.00098 -17c0 -7.33301 -6.33301 -16.333 -19 -27l-46 -36c-27.333 -22 -58.333 -33 -93 -33c-26.667 0 -47 10.333 -61 31c-8.66699 12 -13 28.333 -13 49c0 39.333 12.333 77.333 37 114c27.333 40 59 60 95 60
c6 0 11.667 -0.666992 17 -2c0.666992 0 3.16699 6.16699 7.5 18.5s11.833 18.5 22.5 18.5c20 -1.33301 30 -13.333 30 -36c0 -4.66699 -0.666992 -9 -2 -13c-0.666992 -1.33301 -2.33398 -20 -5.00098 -56c-2 -21.333 -11.667 -32.333 -29 -33
c-15.333 -0.666992 -24.833 7 -28.5 23s-7.16699 24 -10.5 24c-13.333 1.33301 -29.333 -7 -48 -25c-24 -23.333 -36.667 -54 -38 -92c-1.33301 -20 7 -30 25 -30c15.333 0 35.333 7 60 21c21.333 12 36 23 44 33c12.667 14.667 21.667 22 27 22
c6.66699 0 13.667 -4.66699 21 -14z" />
    <glyph glyph-name="ordfeminine" unicode="&#xaa;" horiz-adv-x="402" 
d="M305 424c-3.33301 -3.33301 -8.66309 -4.66602 -15.9961 -3.99902s-12.833 2.66699 -16.5 6s-6.83398 9 -9.50098 17c-42.667 -25.333 -81.334 -38 -116.001 -38c-22 0 -39.5 6.16699 -52.5 18.5s-19.5 28.166 -19.5 47.499c0 28 11.167 55.5 33.5 82.5
s48.166 42.167 77.499 45.5c43.333 5.33301 75.333 -18 96 -70c7.33301 20 11 40.333 11 61c0 32.667 -9 61.667 -27 87c-12 16.667 -28.333 25 -49 25c-17.333 0 -34.5 -5 -51.5 -15s-25 -18 -24 -24s-3.16699 -9 -12.5 -9c-16 0 -25.333 6.33301 -28 19
c-3.33301 16 8.66699 32.167 36 48.5s55.666 24.5 84.999 24.5c13.333 0 25 -2 35 -6c57.333 -24 86 -73.667 86 -149c0 -53.333 -12.667 -109 -38 -167zM341.003 360c12 -5.33301 18.0029 -12.001 18.0029 -20.001s-5.33301 -15.167 -16 -21.5s-20.334 -9.5 -29.001 -9.5
c-5.33301 0 -9.83301 1.83301 -13.5 5.5s-6.5 5.83398 -8.5 6.50098c-36.667 8 -98.334 6 -185.001 -6c-18 -2 -29.333 -2 -34 0c-16.667 7.33301 -25 15.666 -25 24.999c0 12.667 7.66699 20.334 23 23.001c27.333 5.33301 67.666 8 120.999 8
c80 0 129.667 -3.66699 149 -11zM246.006 489.999c-14.667 45.333 -30.667 66.667 -48 64c-24 -4 -43.333 -15 -58 -33c-12 -16 -18 -32 -18 -48s9.33301 -24 28 -24c26 0 58 13.667 96 41z" />
    <glyph glyph-name="guillemotleft" unicode="&#xab;" horiz-adv-x="540" 
d="M500 221c4.66699 -3.33301 7 -9.33301 7 -18c0 -18.667 -6 -28 -18 -28c-6 0 -19.333 7.33301 -40 22c-27.333 18.667 -52.333 33 -75 43c-58 25.333 -88 38.333 -90 39c-28.667 15.333 -43 29.333 -43 42c0 4 1 7.66699 3 11c3.33301 6 31 18 83 36
c80.667 26.667 123.5 41 128.5 43s9.83301 3 14.5 3c12.667 0 19 -7.66699 19 -23c0 -14 -3.66699 -22 -11 -24c-54 -12.667 -107.333 -29.667 -160 -51c6.66699 -4 41 -20.667 103 -50c40.667 -20 67 -35 79 -45zM289 221c4.66699 -3.33301 7 -9.33301 7 -18
c0 -18.667 -6 -28 -18 -28c-6 0 -19.333 7.33301 -40 22c-27.333 18.667 -52.333 33 -75 43c-58 25.333 -88 38.333 -90 39c-28.667 15.333 -43 29.333 -43 42c0 4 1 7.66699 3 11c3.33301 6 31 18 83 36c80.667 26.667 123.5 41 128.5 43s9.83301 3 14.5 3
c12.667 0 19 -7.66699 19 -23c0 -14 -3.66699 -22 -11 -24c-54 -12.667 -107.333 -29.667 -160 -51c6.66699 -4 41 -20.667 103 -50c40.667 -20 67 -35 79 -45z" />
    <glyph glyph-name="logicalnot" unicode="&#xac;" horiz-adv-x="1395" 
d="M1379 342c0 -6 -3.66211 -14.002 -10.9951 -24.002c0 -8 -4.66699 -40.333 -14 -97c15.333 -2.66699 23 -8.66699 23 -18c0 -18.667 -10 -28.667 -30 -30c-0.666992 -4 -3.66699 -15.667 -9 -35c-2 -7.33301 -8.33301 -11 -19 -11s-17.5 3.66699 -20.5 11
s-4.5 17 -4.5 29c-13.333 -0.666992 -45.333 -2.66699 -96 -6l-149 -11c-8 -7.33301 -15 -11 -21 -11c-8 0 -13.833 1.16699 -17.5 3.5s-5.83398 3.5 -6.50098 3.5c-4 0 -33.667 -2.66699 -89 -8s-84.333 -8 -87 -8c0.666992 0 -1.5 -4.16699 -6.5 -12.5
s-11.833 -12.5 -20.5 -12.5c-11.333 0 -19.333 3.33301 -24 10l-7 10c-16.667 -1.33301 -45.334 -4.33301 -86.001 -9c-38 -4.66699 -58.333 -7 -61 -7c0.666992 0 -1.5 -4.83301 -6.5 -14.5s-13.167 -14.5 -24.5 -14.5c-6 0 -11.5 2.5 -16.5 7.5s-7.5 10.833 -7.5 17.5
c-33.333 -4 -87.666 -10 -162.999 -18c0.666992 0 -1.5 -4 -6.5 -12s-11.5 -12.333 -19.5 -13c-13.333 -1.33301 -23.333 5.33398 -30 20.001c-46 -3.33301 -92.667 -8.66602 -140 -15.999c-0.666992 -10 -3.33398 -19 -8.00098 -27c-6 -10 -13.333 -14.333 -22 -13
c-12 2 -19.5 8 -22.5 18s-3.83301 15 -2.5 15c-13.333 0 -41 -4.33301 -83 -13c-21.333 -4.66699 -32 10.666 -32 45.999c0 8 0.666992 24.167 2 48.5s2 44.333 2 60s0.333008 24.334 1 26.001s1 4.16699 1 7.5c-26 6.66699 -38 17 -36 31c0 11.333 7.33301 17 22 17
c3.33301 0 8.16602 -1 14.499 -3s12.166 -3 17.499 -3c14 0 38.167 2 72.5 6s53.166 6 56.499 6c1.33301 0 3.66602 1.83301 6.99902 5.5s6 5.5 8 5.5c13.333 0 21 -2.33301 23 -7c3.33301 0 31 3.66699 83 11s79 11 81 11s4.66699 2.5 8 7.5s7 7.5 11 7.5
c16.667 0 25.667 -2.66699 27 -8l177 18c3.33301 3.33301 9 7 17 11c7.33301 0.666992 13 -0.333008 17 -3s7.66699 -4 11 -4c4.66699 0 30.834 1 78.501 3s72.334 3 74.001 3s4.16699 2.16699 7.5 6.5s8.66602 6.5 15.999 6.5c10 0 17 -3.66699 21 -11l170 7l6.5 8
c4.33301 5.33301 10.5 8 18.5 8c12 0 20.333 -5.66699 25 -17l230 2l8.5 8c5.66699 5.33301 13.5 8 23.5 8c2 0 5.66699 -2.33301 11 -7s9 -7 11 -7c10.667 0 16 -6.33301 16 -19zM1020 314.998l-161 -10l-22 -125l166 16c11.333 73.333 17 113 17 119zM605.005 291.998
c-20.667 -2 -54.668 -5.66699 -102.001 -11c0.666992 0 -20.333 -2.66699 -63 -8c-18.667 -91.333 -27 -137 -25 -137c8 0 34.833 2.83301 80.5 8.5s71.834 8.5 78.501 8.5zM181.004 242.998c-6 -0.666992 -23 -2.66602 -51 -5.99902c-20 -2 -35 -3 -45 -3l-6 -116l19 -5
c6 -4 10 -8 12 -12c32.667 3.33301 49 5.66602 49 6.99902z" />
    <glyph glyph-name="minus" unicode="&#xad;" horiz-adv-x="636" 
d="M554 275c0 -9.33301 -5.66602 -16 -16.999 -20c-8 -2.66699 -25.667 -4 -53 -4c-84 0 -156 -6.33301 -216 -19c-64.667 -13.333 -104 -20 -118 -20c-19.333 0 -30 5 -32 15c-4.66699 22.667 11.333 38.667 48 48c23.333 6 68.666 11.667 135.999 17c82 6 142.667 9 182 9
c46.667 0 70 -8.66699 70 -26z" />
    <glyph glyph-name="minus" unicode="&#x2212;" horiz-adv-x="636" 
d="M554 275c0 -9.33301 -5.66602 -16 -16.999 -20c-8 -2.66699 -25.667 -4 -53 -4c-84 0 -156 -6.33301 -216 -19c-64.667 -13.333 -104 -20 -118 -20c-19.333 0 -30 5 -32 15c-4.66699 22.667 11.333 38.667 48 48c23.333 6 68.666 11.667 135.999 17c82 6 142.667 9 182 9
c46.667 0 70 -8.66699 70 -26z" />
    <glyph glyph-name="registered" unicode="&#xae;" horiz-adv-x="747" 
d="M690 320c0 -64.667 -26.665 -125 -79.998 -181c-45.333 -47.333 -103 -86.333 -173 -117c-64 -27.333 -119.333 -40.666 -166 -39.999c-84 1.33301 -143.667 39.666 -179 114.999c-20 42 -30.667 89.667 -32 143c-1.33301 66.667 18.667 131.334 60 194.001
c35.333 54 80.666 99 135.999 135c51.333 33.333 95 49.666 131 48.999c18.667 -0.666992 32.667 -5.33398 42 -14.001c3.33301 -3.33301 7.66602 -6.66602 12.999 -9.99902c78.667 -0.666992 140.667 -28.667 186 -84c42 -50.667 62.667 -114 62 -190zM641.002 340
c-6.66699 113.333 -54.3301 179.333 -142.997 198c-26 6 -41 7.33301 -45 4l-1 -1l-1 -1c-4.66699 -4 -9.66699 -4.33301 -15 -1l-1 1c-1.33301 0.666992 -4.33301 1 -9 1c-36 0 -60.667 -5 -74 -15c-2.66699 -2 -3.66699 -4 -3 -6c4 -8 5 -15.333 3 -22
c-2.66699 -7.33301 -8.33398 -11.333 -17.001 -12c-9.33301 -0.666992 -19.333 5.66602 -30 18.999l-14 20c-6.66699 0.666992 -23.334 -9.66602 -50.001 -30.999c-34 -26.667 -62 -57.667 -84 -93c-30 -47.333 -45.667 -98 -47 -152
c-2 -72.667 13.667 -128.334 47 -167.001c27.333 -33.333 64.666 -51.333 111.999 -54c34 -2 80 9.33301 138 34c66.667 28.667 120.667 64.334 162 107.001c52 53.333 76 110.333 72 171zM511.006 208c0.666992 -6.66699 -2.33594 -11.6699 -9.00293 -15.0029
s-12.334 -4.66602 -17.001 -3.99902c-6.66699 5.33301 -20.667 11.333 -42 18c-6.66699 0.666992 -35.667 1 -87 1c-10 0 -20.5 1 -31.5 3s-17.167 3 -18.5 3c-5.33301 0 -9.33301 -9.33301 -12 -28c0 -4 -2.66699 -7.66699 -8 -11s-10.666 -4.66602 -15.999 -3.99902
c-15.333 1.33301 -23.333 9 -24 23c0 -7.33301 2 24 6 94v57c0 19.333 2.5 31.166 7.5 35.499s10.5 5.83301 16.5 4.5c10.667 -2 14.334 -3 11.001 -3c-2 0 5.5 6.16699 22.5 18.5s35.833 18.5 56.5 18.5c40.667 -1.33301 61 -19.666 61 -54.999
c0 -19.333 -7.33301 -37.666 -22 -54.999c-8.66699 -10.667 -22 -22.334 -40 -35.001c-14.667 -10.667 -22 -17 -22 -19c0.666992 -3.33301 17.334 -5.66602 50.001 -6.99902c39.333 -2 65 -4.66699 77 -8c8.66699 -2.66699 17.334 -5.66699 26.001 -9s13.667 -11 15 -23z
M381.003 362.997c0 10.667 -5.33301 16 -16 16s-22 -5.33301 -34 -16c-8.66699 -8.66699 -15 -23 -19 -43v-27c8.66699 2.66699 22 11.667 40 27c19.333 18 29 32.333 29 43z" />
    <glyph glyph-name="macron" unicode="&#xaf;" horiz-adv-x="360" 
d="M332 529c-12 -6 -42.334 -12 -91.001 -18s-94 -9 -136 -9c-23.333 0 -42.666 1.16699 -57.999 3.5s-23 9.83301 -23 22.5c0 9.33301 8 18.666 24 27.999c3.33301 2.66699 14.666 3 33.999 1c31.333 -2 66.333 -2.33301 105 -1c48.667 2 79.334 5 92.001 9
c2 0.666992 5 3.33398 9 8.00098s9 7 15 7c8.66699 0 18.167 -3.16699 28.5 -9.5s15.5 -13.5 15.5 -21.5c0 -7.33301 -5 -14 -15 -20z" />
    <glyph glyph-name="macron" unicode="&#x2c9;" horiz-adv-x="360" 
d="M332 529c-12 -6 -42.334 -12 -91.001 -18s-94 -9 -136 -9c-23.333 0 -42.666 1.16699 -57.999 3.5s-23 9.83301 -23 22.5c0 9.33301 8 18.666 24 27.999c3.33301 2.66699 14.666 3 33.999 1c31.333 -2 66.333 -2.33301 105 -1c48.667 2 79.334 5 92.001 9
c2 0.666992 5 3.33398 9 8.00098s9 7 15 7c8.66699 0 18.167 -3.16699 28.5 -9.5s15.5 -13.5 15.5 -21.5c0 -7.33301 -5 -14 -15 -20z" />
    <glyph glyph-name="degree" unicode="&#xb0;" horiz-adv-x="285" 
d="M242 615c1.33301 -6.66699 1.99902 -13.333 1.99902 -20c0 -39.333 -20.667 -78.333 -62 -117c-25.333 -24 -50.333 -36 -75 -36c-14.667 0 -28 4.33301 -40 13c-10 6.66699 -16.167 13.667 -18.5 21s-3.5 15.333 -3.5 24c0 32.667 13.333 70 40 112
c11.333 17.333 25.833 36 43.5 56s29.5 30 35.5 30c8 0 13.333 -7.66699 16 -23c10 -1.33301 19 -4 27 -8c18.667 -10.667 30.334 -28 35.001 -52zM167.999 629.001c-18.667 0 -38.333 -21.3311 -59 -63.998c-10.667 -22.667 -16 -41.334 -16 -56.001
c0 -18.667 9.33301 -24.667 28 -18c16 5.33301 32 16.666 48 33.999c18.667 20 28 39.667 28 59c0 10 -2.66699 20 -8 30s-12.333 15 -21 15z" />
    <glyph glyph-name="plusminus" unicode="&#xb1;" horiz-adv-x="636" 
d="M562 436c0.666992 -5.33301 -1.66895 -10.833 -7.00195 -16.5s-13 -8.5 -23 -8.5c-4 0 -8 0.333008 -12 1c-11.333 4 -49.666 -2.66699 -114.999 -20c-10 -2.66699 -40 -12 -90 -28l3 -188c1.33301 -7.33301 0.666016 -15 -2.00098 -23c-4 -12 -11 -18 -21 -18
c-4.66699 0 -10.167 1.83301 -16.5 5.5s-11.166 14.834 -14.499 33.501c0 73.333 -1 130.666 -3 171.999c-101.333 -35.333 -155 -55.666 -161 -60.999c-4 -2.66699 -9.66699 -0.666992 -17 6s-11 14.334 -11 23.001c0 4.66699 1 9 3 13c4 6.66699 65.667 30.667 185 72
l-4 134c0 8.66699 1.83301 18.834 5.5 30.501s7.16699 18.167 10.5 19.5c6 2 11 3 15 3c16.667 0 25 -17 25 -51c0 -20.667 0.333008 -60.334 1 -119.001c22.667 7.33301 48 14.666 76 21.999c68.667 17.333 116.334 26 143.001 26c4.66699 0 8 -0.333008 10 -1
c4.66699 0 9.66699 -2.83301 15 -8.5s7 -11.834 5 -18.501zM557.997 84c0 -9.33301 -5.99902 -16.001 -17.999 -20.001c-8 -2.66699 -25.667 -4 -53 -4c13.333 0 -2.33398 0.333008 -47.001 1c-33.333 0.666992 -64.666 0.666992 -93.999 0
c-41.333 -2 -78.333 -5.33301 -111 -10c-75.333 -11.333 -115.333 -17 -120 -17c-20.667 0 -31 6.66699 -31 20c0 19.333 18.333 33.333 55 42c23.333 5.33301 66.666 10.333 129.999 15c54 4 111.333 5.33301 172 4c62 -1.33301 97 -5.16602 105 -11.499
s12 -12.833 12 -19.5z" />
    <glyph glyph-name="twosuperior" unicode="&#xb2;" horiz-adv-x="300" 
d="M331 319c0 -16 -7.33594 -25.3359 -22.0029 -28.0029c-6 -0.666992 -11.333 0 -16 2c-7.33301 2.66699 -11.666 4.33398 -12.999 5.00098c-5.33301 0.666992 -25.666 -2.66602 -60.999 -9.99902c-38 -8 -66.667 -16 -86 -24c-60 -23.333 -94 -34 -102 -32
c-6.66699 1.33301 -11.5 6 -14.5 14s-3.5 15.333 -1.5 22c1.33301 4 12 18.333 32 43c28.667 35.333 53.667 67.666 75 96.999c67.333 91.333 101 152.333 101 183c0 10.667 -3 19 -9 25c-14 12.667 -32.667 19 -56 19c-19.333 0 -38.666 -4.66699 -57.999 -14
c-21.333 -10 -36.166 -23 -44.499 -39s-19.833 -20.667 -34.5 -14c-8 3.33301 -12 9.33301 -12 18c0 13.333 8.33301 28 25 44c13.333 13.333 27.333 23.666 42 30.999c26.667 13.333 54.667 20 84 20c38 0 67.333 -11.333 88 -34c14.667 -15.333 22 -33.666 22 -54.999
c0 -37.333 -27.667 -94.666 -83 -171.999l-89 -119l63 20c22 6.66699 62.667 15.334 122 26.001c13.333 2.66699 24.666 2 33.999 -2s14 -12.667 14 -26z" />
    <glyph glyph-name="threesuperior" unicode="&#xb3;" horiz-adv-x="300" 
d="M282 425c-0.666992 -62 -29.999 -115.667 -87.999 -161c-19.333 -15.333 -48 -33 -86 -53c-14 -8 -29.333 -6 -46 6c-11.333 8.66699 -17 16 -17 22c0 10 11 12.667 33 8c4.66699 -1.33301 7.66699 -1.66602 9 -0.999023l32 20c79.333 48.667 118.666 102 117.999 160
c0 28 -19.333 48 -58 60c-17.333 5.33301 -48.333 10.666 -93 15.999c-6.66699 0.666992 -11 1.33398 -13 2.00098c-18 9.33301 -25 20.666 -21 33.999c0.666992 2.66699 14.167 14.667 40.5 36s52.166 44.333 77.499 69c-71.333 -6.66699 -112.666 -10 -123.999 -10
c-5.33301 0 -10.833 2.66699 -16.5 8s-8.5 11.333 -8.5 18c0 8.66699 5.66699 15.667 17 21c12.667 -0.666992 49.667 1.33301 111 6c50 4 78 1.66699 84 -7c2 -3.33301 3 -7 3 -11c0 -16.667 -21 -44 -63 -82l-49 -44c37.333 -2.66699 69.333 -10.667 96 -24
c42 -21.333 62.667 -52.333 62 -93z" />
    <glyph glyph-name="acute" unicode="&#xb4;" horiz-adv-x="462" 
d="M355 695c-0.666992 -4.66699 -9 -16.334 -25 -35.001c-26 -30 -49.667 -60 -71 -90c-19.333 -27.333 -41.333 -60.666 -66 -99.999c1.33301 3.33301 2 -2 2 -16c0 -6 -4 -12.333 -12 -19c-10.667 -8 -21 -12 -31 -12c-16 0 -22.333 9.33301 -19 28
c2.66699 16.667 27 60.5 73 131.5s82.333 118.833 109 143.5c5.33301 5.33301 12.333 8 21 8c16 0 22.333 -13 19 -39z" />
    <glyph glyph-name="mu" unicode="&#xb5;" horiz-adv-x="420" 
d="M372 1c6.66699 -6.66699 9.99707 -17.667 9.99707 -33c0 -22 -14 -32 -42 -30c-22.667 1.33301 -34 10.333 -34 27c0 14.667 5.33301 28 16 40c0.666992 1.33301 -4.66602 47.666 -15.999 138.999c-24 -78 -47 -122 -69 -132c-11.333 -5.33301 -22 -8 -32 -8
c-40 0 -70.333 40.667 -91 122c-14.667 -114 -22.667 -222.333 -24 -325c-2 -116 -0.666992 -178.667 4 -188c3.33301 -6.66699 5 -13 5 -19c0 -9.33301 -3.16699 -16.833 -9.5 -22.5s-13.166 -7.5 -20.499 -5.5c-19.333 5.33301 -29 19 -29 41
c0 6.66699 1.33301 12.667 4 18c0.666992 1.33301 1 4.66602 1 9.99902c0 1.33301 -1 20.833 -3 58.5s-3 74.167 -3 109.5c0 29.333 0.666992 58.666 2 87.999c5.33301 127.333 20 281.333 44 462c0 12.667 -0.333008 27 -1 43c-0.666992 13.333 1.33301 22.833 6 28.5
s11 7.83398 19 6.50098c12 -2.66699 23 -12 33 -28c8 -14 12 -25 12 -33c-3.33301 -85.333 0.333984 -157.666 11.001 -216.999s24.334 -89 41.001 -89c12 0 26.667 22.333 44 67c20.667 54 33.667 113 39 177c2.66699 26 4.66699 42.667 6 50c4 22.667 11 35.667 21 39
c4 1.33301 8 2 12 2c11.333 0 20.166 -5.16699 26.499 -15.5s8.83301 -21.166 7.5 -32.499c-7.33301 -110.667 -11 -185.667 -11 -225c0 -69.333 7 -111 21 -125z" />
    <glyph glyph-name="mu" unicode="&#x3bc;" horiz-adv-x="420" 
d="M372 1c6.66699 -6.66699 9.99707 -17.667 9.99707 -33c0 -22 -14 -32 -42 -30c-22.667 1.33301 -34 10.333 -34 27c0 14.667 5.33301 28 16 40c0.666992 1.33301 -4.66602 47.666 -15.999 138.999c-24 -78 -47 -122 -69 -132c-11.333 -5.33301 -22 -8 -32 -8
c-40 0 -70.333 40.667 -91 122c-14.667 -114 -22.667 -222.333 -24 -325c-2 -116 -0.666992 -178.667 4 -188c3.33301 -6.66699 5 -13 5 -19c0 -9.33301 -3.16699 -16.833 -9.5 -22.5s-13.166 -7.5 -20.499 -5.5c-19.333 5.33301 -29 19 -29 41
c0 6.66699 1.33301 12.667 4 18c0.666992 1.33301 1 4.66602 1 9.99902c0 1.33301 -1 20.833 -3 58.5s-3 74.167 -3 109.5c0 29.333 0.666992 58.666 2 87.999c5.33301 127.333 20 281.333 44 462c0 12.667 -0.333008 27 -1 43c-0.666992 13.333 1.33301 22.833 6 28.5
s11 7.83398 19 6.50098c12 -2.66699 23 -12 33 -28c8 -14 12 -25 12 -33c-3.33301 -85.333 0.333984 -157.666 11.001 -216.999s24.334 -89 41.001 -89c12 0 26.667 22.333 44 67c20.667 54 33.667 113 39 177c2.66699 26 4.66699 42.667 6 50c4 22.667 11 35.667 21 39
c4 1.33301 8 2 12 2c11.333 0 20.166 -5.16699 26.499 -15.5s8.83301 -21.166 7.5 -32.499c-7.33301 -110.667 -11 -185.667 -11 -225c0 -69.333 7 -111 21 -125z" />
    <glyph glyph-name="paragraph" unicode="&#xb6;" horiz-adv-x="450" 
d="M370 310c0 -6 -12.6641 -17.3291 -37.9971 -33.9961l-50 -31c-4.66699 -17.333 -7.33398 -30.333 -8.00098 -39c-1.33301 -11.333 -2.33301 -36.333 -3 -75c-1.33301 -46 0.333984 -69 5.00098 -69v0c1.33301 0 3.66602 0.333008 6.99902 1c10 2 17.167 1 21.5 -3
s5.5 -10.667 3.5 -20c-2 -10 -5.66699 -18.667 -11 -26c-10 -13.333 -15.333 -20.333 -16 -21c-7.33301 -12.667 -17.333 -19 -30 -19c-11.333 0 -20.333 7 -27 21c-2.66699 5.33301 -3.33398 12.666 -2.00098 21.999c2.66699 14.667 4 28.667 4 42
c-0.666992 62 3 116 11 162c-21.333 -9.33301 -44 -16 -68 -20c-7.33301 -26.667 -9.66602 -61 -6.99902 -103c0 -1.33301 0.5 -4.33301 1.5 -9s1.5 -8.66699 1.5 -12c0 -10 -7 -19 -21 -27c-4 -2.66699 -8 -4 -12 -4c-6.66699 0 -12.334 3.5 -17.001 10.5s-7 14.5 -7 22.5
c2 26 6.66699 65.333 14 118c-10.667 0 -21 2.66699 -31 8c-20 12 -32 33 -36 63c-8 62 29 129.667 111 203l10 59l10.5 82.5c3.66699 27.667 9.83398 42.167 18.501 43.5c9.33301 1.33301 18.666 0 27.999 -4s14 -10 14 -18c1.33301 -22.667 -3.33398 -55.667 -14.001 -99
c-2 -8.66699 -4.33301 -17.334 -7 -26.001c23.333 9.33301 42.666 11.666 57.999 6.99902c2.66699 16 5.33398 30.667 8.00098 44c-1.33301 -4.66699 -2 11.333 -2 48c0 17.333 4 27.666 12 30.999c4 2.66699 8.66699 4 14 4c21.333 0 33 -13 35 -39
c2 -28 -2 -60.333 -12 -97l-17 -66c-1.33301 -21.333 -4 -43.333 -8 -66c-2 -10 -6 -27 -12 -51c14 9.33301 26 14 36 14c7.33301 0 14.5 -2.83301 21.5 -8.5s10.5 -12.167 10.5 -19.5zM270.003 441.004c0 10.667 -3.66602 16.002 -10.999 16.002c-12 0 -29 -10 -51 -30
c-2.66699 -14.667 -12.334 -73.334 -29.001 -176.001c24.667 7.33301 47.667 17.333 69 30c6.66699 35.333 14 88.666 22 159.999zM149.004 370.006c-27.333 -31.333 -41 -61.666 -41 -90.999c0 -16.667 7 -27.334 21 -32.001c5.33301 36 12 77 20 123z" />
    <glyph glyph-name="periodcentered" unicode="&#xb7;" horiz-adv-x="207" 
d="M144 261c0 -28 -12.998 -42 -38.998 -42c-24 0 -36 13.667 -36 41c0 12 4.66699 22.333 14 31c7.33301 6.66699 14.666 10.667 21.999 12c11.333 1.33301 20.666 -2.16699 27.999 -10.5s11 -18.833 11 -31.5z" />
    <glyph glyph-name="periodcentered" unicode="&#x2219;" horiz-adv-x="207" 
d="M144 261c0 -28 -12.998 -42 -38.998 -42c-24 0 -36 13.667 -36 41c0 12 4.66699 22.333 14 31c7.33301 6.66699 14.666 10.667 21.999 12c11.333 1.33301 20.666 -2.16699 27.999 -10.5s11 -18.833 11 -31.5z" />
    <glyph glyph-name="cedilla" unicode="&#xb8;" horiz-adv-x="321" 
d="M264 -117c-8 -24.667 -26.001 -50.665 -54.001 -77.998c-26 -24.667 -49.833 -41.5 -71.5 -50.5s-34.5 -13.5 -38.5 -13.5c-16.667 0 -25 8.33301 -25 25c0 6 2.16699 12 6.5 18s9.5 9 15.5 9c0.666992 0 2.33398 -0.333008 5.00098 -1h8c13.333 0 31 9 53 27
c37.333 31.333 56 59.666 56 84.999c0 10 -3.66699 18.333 -11 25c-32 28 -48.667 57 -50 87c0 4.66699 -0.833008 11.834 -2.5 21.501s-2.5 16.5 -2.5 20.5c0 15.333 10.333 22.666 31 21.999s30.667 -6.33398 30 -17.001c0 -2 -0.666992 -7.5 -2 -16.5s-2 -16.5 -2 -22.5
c0 -16 4.66699 -29.5 14 -40.5l29 -33.5c10 -13.333 15 -27 15 -41c0 -8 -1.33301 -16.667 -4 -26z" />
    <glyph glyph-name="onesuperior" unicode="&#xb9;" horiz-adv-x="300" 
d="M237 667c0.666992 -4.66699 -6.83496 -65.8301 -22.502 -183.497s-22.5 -183.167 -20.5 -196.5c0.666992 -2 1.66699 -4.66699 3 -8c2.66699 -6.66699 4 -13.334 4 -20.001c-3.33301 -16.667 -11.666 -25 -24.999 -25c-2.66699 0 -5.66699 0.666992 -9 2
c-10.667 3.33301 -17.5 6.83301 -20.5 10.5s-4.5 10.5 -4.5 20.5c0 4 1.33301 10 4 18c-0.666992 8.66699 6.33301 71 21 187l18 124c-76.667 -83.333 -118.667 -125.333 -126 -126c-4.66699 -0.666992 -8.66699 2.16602 -12 8.49902s-5 13.166 -5 20.499
c0 8.66699 11.333 24.334 34 47.001l42 42c26 31.333 55.333 63.333 88 96v0c5.33301 0.666992 11 -0.333008 17 -3c8.66699 -2.66699 13.334 -7.33398 14.001 -14.001z" />
    <glyph glyph-name="ordmasculine" unicode="&#xba;" horiz-adv-x="402" 
d="M346 611c1.33301 -9.33301 1.99902 -18.333 1.99902 -27c0 -51.333 -21.333 -95.666 -64 -132.999c-38.667 -33.333 -78.667 -50 -120 -50c-14.667 0 -27 2.66699 -37 8c-16 8 -30.333 22.5 -43 43.5s-19 44.167 -19 69.5c0 21.333 5 42 15 62
c43.333 89.333 91 135.666 143 138.999c22.667 2 45.334 -5.33301 68.001 -22c30 -20.667 48.333 -50.667 55 -90zM340.999 360c12 -5.33301 18.0029 -12.001 18.0029 -20.001s-5.33301 -15.167 -16 -21.5s-20.334 -9.5 -29.001 -9.5c-5.33301 0 -9.83301 1.83301 -13.5 5.5
s-6.5 5.83398 -8.5 6.50098c-36.667 8 -98.334 6 -185.001 -6c-18 -2 -29.333 -2 -34 0c-16.667 7.33301 -25 15.666 -25 24.999c0 12.667 7.66699 20.334 23 23.001c27.333 5.33301 67.666 8 120.999 8c80 0 129.667 -3.66699 149 -11zM287.002 635.999
c-10.667 23.333 -29.666 36 -56.999 38c-10.667 1.33301 -24 -4.66699 -40 -18c-26.667 -21.333 -49.334 -56.333 -68.001 -105c-3.33301 -8 -5 -17.333 -5 -28c0 -18.667 4 -35 12 -49c10 -17.333 23.333 -26 40 -26s36.667 8.33301 60 25c20.667 14 36 28.333 46 43
c16 24 24 46.333 24 67c0 15.333 -4 33 -12 53z" />
    <glyph glyph-name="guillemotright" unicode="&#xbb;" horiz-adv-x="540" 
d="M518 332c1.33301 -3.33301 2 -7 2 -11c0 -12.667 -14.333 -26.667 -43 -42c-1.33301 -0.666992 -31 -13.667 -89 -39c-22.667 -10 -47.667 -24.333 -75 -43c-21.333 -14.667 -34.666 -22 -39.999 -22c-12 0 -18 9.33301 -18 28c0 8.66699 2 14.667 6 18
c12.667 10 39 25 79 45c62 29.333 96.667 46 104 50c-24.667 10 -78.334 27 -161.001 51c-7.33301 2 -11 10 -11 24c0 15.333 6.66699 23 20 23c4 0 8.5 -1 13.5 -3s47.833 -16.333 128.5 -43c52.667 -18 80.667 -30 84 -36zM281 332c2 -3.33301 2.99707 -7 2.99707 -11
c0 -12.667 -14.333 -26.667 -43 -42c-2 -0.666992 -32 -13.667 -90 -39c-22.667 -10 -47.667 -24.333 -75 -43c-21.333 -14.667 -34.666 -22 -39.999 -22c-12 0 -18 9.33301 -18 28c0 8.66699 2 14.667 6 18c12.667 10 39.334 25 80.001 45
c61.333 29.333 95.666 46 102.999 50c-24 10 -77.333 27 -160 51c-7.33301 2 -11 10 -11 24c0 15.333 6.33301 23 19 23c4.66699 0 9.33398 -1 14.001 -3s47.334 -16.333 128.001 -43c52.667 -18 80.667 -30 84 -36z" />
    <glyph glyph-name="onequarter" unicode="&#xbc;" horiz-adv-x="786" 
d="M722 187c-24.667 3.33301 -52.333 4.00391 -83 2.00391l-16 -121c-4.66699 -40.667 -7 -63.667 -7 -69c5.33301 -10 8 -20 8 -30c0 -18 -7.33301 -27 -22 -27c-4.66699 0 -9.66699 1 -15 3c-18 6 -27 17.333 -27 34c0 6 1.33301 13 4 21c1.33301 4 10.333 65 27 183
l-111 -19c-42 -6.66699 -67 -8.66699 -75 -6c-12.667 4.66699 -19 13 -19 25c0 5.33301 2 9.66602 6 12.999c20.667 21.333 51 56 91 104c10 14 20.667 33 32 57l30.5 61.5c10.333 21 19.5 31.5 27.5 31.5c6.66699 0 12.667 -3.66699 18 -11s8 -15.333 8 -24
c0 -6 -1.33301 -11.333 -4 -16c-6.66699 -10.667 -28.667 -49.334 -66 -116.001c-12 -22 -30.667 -45.667 -56 -71c28 4.66699 69.333 10.667 124 18c6 45.333 12.333 89.333 19 132c1.33301 6 2.66602 11.333 3.99902 16c4 10.667 9 17 15 19
c8.66699 2 16.834 -1.5 24.501 -10.5s10.5 -17.5 8.5 -25.5c0 -4.66699 -2 -15.667 -6 -33c-5.33301 -22.667 -11 -55.334 -17 -98.001c30 -1.33301 55.333 -4 76 -8c14 -2.66699 21 -8.66699 21 -18c0 -12.667 -6.66699 -18.334 -20 -17.001zM552.001 652.004
c-22.667 -10.667 -41.999 -32.668 -57.999 -66.001c-161.333 -340.667 -242.333 -533.334 -243 -578.001c0 -19.333 -7 -31.333 -21 -36c-13.333 -4.66699 -22.333 -3.66699 -27 3c-2 4.66699 -4.66699 11.334 -8 20.001c-2 11.333 0.666992 21.333 8 30l48 121l8 23
c51.333 127.333 112.666 268 183.999 422c30 64.667 60 102.334 90 113.001c4 2 8 3 12 3c19.333 0 29 -11 29 -33c0 -7.33301 -2.5 -12.333 -7.5 -15s-9.83301 -5 -14.5 -7zM229.002 667.003c0.666992 -4.66699 -6.66504 -65.8301 -21.998 -183.497
s-22.333 -183.167 -21 -196.5c0.666992 -2 1.66699 -4.66699 3 -8c2.66699 -6.66699 4 -13.334 4 -20.001c-3.33301 -16.667 -11.666 -25 -24.999 -25c-2.66699 0 -5.66699 0.666992 -9 2c-10.667 3.33301 -17.334 6.83301 -20.001 10.5s-4.33398 10.5 -5.00098 20.5
c0 4 1.33301 10 4 18c0 8.66699 7 71 21 187l18 124c-76.667 -83.333 -118.667 -125.333 -126 -126c-4 -0.666992 -7.83301 2.16602 -11.5 8.49902s-5.5 13.166 -5.5 20.499c0 8.66699 11.333 24.334 34 47.001c10 9.33301 24 23.333 42 42c26 31.333 55.333 63.333 88 96v0
c5.33301 0.666992 11.666 -0.333008 18.999 -3s11.333 -7.33398 12 -14.001z" />
    <glyph glyph-name="onehalf" unicode="&#xbd;" horiz-adv-x="786" 
d="M746 35c0 -16 -7.33691 -25.6709 -22.0039 -29.0039c-5.33301 -0.666992 -10.666 0 -15.999 2c-7.33301 3.33301 -11.666 5 -12.999 5c-5.33301 1.33301 -25.666 -2 -60.999 -10c-37.333 -8 -66 -16 -86 -24c-60 -23.333 -94 -34 -102 -32c-6 1.33301 -10.667 6 -14 14
s-4 15.333 -2 22c1.33301 4 12 18.333 32 43c28.667 35.333 53.667 67.666 75 96.999c68 91.333 102 152.333 102 183c0 10.667 -3.33301 19 -10 25c-14 12.667 -32.333 19 -55 19c-20 0 -39.667 -4.66699 -59 -14c-21.333 -9.33301 -36.166 -22.166 -44.499 -38.499
s-19.833 -21.166 -34.5 -14.499c-8 3.33301 -12 9.33301 -12 18c0 13.333 8.33301 28.333 25 45c13.333 13.333 27.333 23.333 42 30c26.667 13.333 54.667 20 84 20c38 0 67.333 -11.333 88 -34c14.667 -15.333 22 -33.666 22 -54.999
c0 -37.333 -27.667 -94.666 -83 -171.999l-89 -119c29.333 10 50.333 16.667 63 20c22 6.66699 62.667 15.334 122 26.001c14 2.66699 25.5 2 34.5 -2s13.5 -12.333 13.5 -25zM553.996 651.996c-22.667 -10.667 -41.998 -32.668 -57.998 -66.001
c-162 -340.667 -243 -533.334 -243 -578.001c-0.666992 -19.333 -8 -31.333 -22 -36c-12.667 -4.66699 -21.334 -3.66699 -26.001 3c-2 4.66699 -4.66699 11.334 -8 20.001c-2 11.333 0.666992 21.333 8 30l47 120l9 24c51.333 127.333 112.666 268 183.999 422
c30 64.667 60 102.334 90 113.001c4 2 8 3 12 3c19.333 0 29 -11 29 -33c0 -7.33301 -2.5 -12.333 -7.5 -15s-9.83301 -5 -14.5 -7zM230.998 666.995c0.666992 -4.66699 -6.83496 -65.8301 -22.502 -183.497s-22.5 -183.167 -20.5 -196.5c0.666992 -2 1.66699 -4.66699 3 -8
c2.66699 -6.66699 4 -13.334 4 -20.001c-3.33301 -16.667 -11.666 -25 -24.999 -25c-2.66699 0 -5.66699 0.666992 -9 2c-10.667 3.33301 -17.5 6.83301 -20.5 10.5s-4.5 10.5 -4.5 20.5c0 4 1.33301 10 4 18c-0.666992 8.66699 6.33301 71 21 187l18 124
c-76.667 -83.333 -118.667 -125.333 -126 -126c-4.66699 -0.666992 -8.66699 2.16602 -12 8.49902s-5 13.166 -5 20.499c0 8.66699 11.333 24.334 34 47.001l42 42c26 31.333 55.333 63.333 88 96v0c5.33301 0.666992 11 -0.333008 17 -3
c8.66699 -2.66699 13.334 -7.33398 14.001 -14.001z" />
    <glyph glyph-name="threequarters" unicode="&#xbe;" horiz-adv-x="786" 
d="M722 187c-24.667 3.33301 -52.332 4.00391 -82.999 2.00391l-16 -121c-4.66699 -40.667 -7 -63.667 -7 -69c5.33301 -10 8 -20 8 -30c0 -18 -7.33301 -27 -22 -27c-4.66699 0 -9.66699 1 -15 3c-18 6 -27 17.333 -27 34c0 6 1.33301 13 4 21c1.33301 4 10.333 65 27 183
l-111 -19c-42 -6.66699 -67 -8.66699 -75 -6c-12.667 4.66699 -19 13 -19 25c0 5.33301 2 9.66602 6 12.999c20.667 21.333 51 56 91 104c10 14 20.667 33 32 57l30.5 61.5c10.333 21 19.5 31.5 27.5 31.5c6.66699 0 12.667 -3.66699 18 -11s8 -15.333 8 -24
c0 -6 -1.33301 -11.333 -4 -16c-6.66699 -10.667 -28.667 -49.334 -66 -116.001c-12 -22 -30.667 -45.667 -56 -71c28 4.66699 69.333 10.667 124 18c6 45.333 12.333 89.333 19 132c1.33301 6 2.66602 11.333 3.99902 16c4 10.667 9 17 15 19c8 2 16 -1.5 24 -10.5
s11 -17.5 9 -25.5c0 -4.66699 -2 -15.667 -6 -33c-5.33301 -22.667 -11 -55.334 -17 -98.001c30 -1.33301 55.333 -4 76 -8c14 -2.66699 21 -8.66699 21 -18c0 -12.667 -6.66699 -18.334 -20 -17.001zM552.002 652.004c-22.667 -10.667 -41.999 -32.668 -57.999 -66.001
c-161.333 -340.667 -242.333 -533.334 -243 -578.001c0 -19.333 -7 -31.333 -21 -36c-13.333 -4.66699 -22.333 -3.66699 -27 3c-2 4.66699 -4.66699 11.334 -8 20.001c-2 11.333 0.666992 21.333 8 30l47 121l9 23c51.333 127.333 112.666 268 183.999 422
c30 64.667 60 102.334 90 113.001c4 2 8 3 12 3c19.333 0 29 -11 29 -33c0 -7.33301 -2.5 -12.333 -7.5 -15s-9.83301 -5 -14.5 -7zM279.003 425.003c-0.666992 -62 -29.6641 -115.667 -86.9971 -161c-19.333 -15.333 -48 -33 -86 -53c-14.667 -8 -30 -6 -46 6
c-11.333 8.66699 -17 16 -17 22c0 10 11 12.667 33 8c4 -1.33301 6.66699 -1.66602 8 -0.999023l32 20c79.333 48.667 118.666 102 117.999 160c0 28 -19.333 48 -58 60c-16.667 5.33301 -47.334 10.666 -92.001 15.999c-6.66699 0.666992 -11 1.33398 -13 2.00098
c-18.667 9.33301 -26 20.666 -22 33.999c1.33301 2.66699 15.166 14.667 41.499 36s52.166 44.333 77.499 69c-72 -6.66699 -113.333 -10 -124 -10c-5.33301 0 -11 2.66699 -17 8s-9 11.333 -9 18c0 8.66699 6 15.667 18 21c12.667 -0.666992 49.334 1.33301 110.001 6
c50 4 78 1.66699 84 -7c2.66699 -3.33301 4 -7 4 -11c0 -16.667 -21 -44 -63 -82c-11.333 -9.33301 -28 -24 -50 -44c38 -2.66699 70 -10.667 96 -24c42 -21.333 62.667 -52.333 62 -93z" />
    <glyph glyph-name="questiondown" unicode="&#xbf;" horiz-adv-x="567" 
d="M414 656c-0.666992 -25.333 -10.999 -38.999 -30.999 -40.999c-10.667 -0.666992 -20.334 2.16602 -29.001 8.49902s-12.667 15.166 -12 26.499c0 12 3.83301 22.667 11.5 32s16.167 14 25.5 14c24 -1.33301 35.667 -14.666 35 -39.999zM505.001 -52.999
c4 -16 -11.6689 -36.001 -47.002 -60.001c-30.667 -20.667 -71 -41 -121 -61c-45.333 -18.667 -95.333 -28 -150 -28c-94 0 -146.333 27.667 -157 83c-2 10 -3 20 -3 30c0 58.667 33 119 99 181c46 42.667 107.667 85.667 185 129l100 56
c0.666992 22.667 -7.66602 48.334 -24.999 77.001c-20.667 34.667 -33.667 62.667 -39 84c-0.666992 4 -1 8.66699 -1 14c0 29.333 10.667 44 32 44c2.66699 0 5.33398 -0.333008 8.00098 -1c18 -4 27 -14 27 -30c0 -4.66699 -0.666992 -10 -2 -16s-2 -9.66699 -2 -11
c4.66699 -14 13.5 -32.833 26.5 -56.5s21.833 -43.167 26.5 -58.5c8 -25.333 10.667 -54 8 -86c-24.667 -9.33301 -49 -19.333 -73 -30c-58 -26.667 -109.667 -55.667 -155 -87c-105.333 -74 -158 -139.667 -158 -197c0 -10 1.33301 -20.333 4 -31c8 -28.667 41 -43 99 -43
c49.333 0 101.333 9.33301 156 28s87.667 39 99 61c9.33301 17.333 22.333 26 39 26c13.333 0 21.333 -5.66699 24 -17z" />
    <glyph glyph-name="Agrave" unicode="&#xc0;" horiz-adv-x="609" 
d="M635 344c1.33301 -23.333 -10.6699 -35.001 -36.0029 -35.001c-6 0 -11 1 -15 3l-129 -38l67 -285c15.333 -12.667 23 -24.667 23 -36c0 -10.667 -6.66699 -19.667 -20 -27c-3.33301 -1.33301 -6.66602 -2 -9.99902 -2c-10 0 -19.667 4.16699 -29 12.5s-13 16.5 -11 24.5
l-71 296c-32.667 -9.33301 -89 -26.666 -169 -51.999l-109 -40c-12 -23.333 -25.667 -57.333 -41 -102l-6 -35c-2 -8 -5.83301 -13.333 -11.5 -16s-11.167 -4 -16.5 -4c-13.333 0 -22 5.66699 -26 17c-4.66699 15.333 8 59.333 38 132c-20 3.33301 -30 14.333 -30 33
c0 4.66699 0.666992 9.66699 2 15c2.66699 10 22.334 20 59.001 30l205 448c9.33301 21.333 22 32 38 32c12 0 20.667 -12.667 26 -38c2 -20 9.66699 -60.333 23 -121c6.66699 -24.667 26.334 -103.667 59.001 -237l140 42c9.33301 4 18 6 26 6
c14.667 0 22.667 -7.66699 24 -23zM392.997 301.999l-37 142.998c-8.66699 30.667 -22 74.334 -40 131.001l-85 -164c-18.667 -37.333 -43.667 -93 -75 -167c26 4.66699 73.667 15 143 31c42.667 10.667 74 19.334 94 26.001zM461.997 752.997
c0 -14.667 -6.33203 -22.002 -18.999 -22.002c-3.33301 0 -7.33301 0.666992 -12 2c-16 5.33301 -55.333 35.333 -118 90c-64.667 56 -107.667 99 -129 129c-3.33301 4.66699 -5 10.667 -5 18c0 13.333 7.66699 20 23 20c5.33301 0 11.666 -1 18.999 -3
c4.66699 -1.33301 15 -11.333 31 -30c26 -29.333 52.333 -56.666 79 -81.999l43 -42c19.333 -18.667 35 -31 47 -37l15 -1c6.66699 0 12.667 -4.66699 18 -14s8 -18.666 8 -27.999z" />
    <glyph glyph-name="Aacute" unicode="&#xc1;" horiz-adv-x="609" 
d="M635 344c1.33301 -23.333 -10.6699 -35.001 -36.0029 -35.001c-6 0 -11 1 -15 3l-129 -38l67 -285c15.333 -12.667 23 -24.667 23 -36c0 -10.667 -6.66699 -19.667 -20 -27c-3.33301 -1.33301 -6.66602 -2 -9.99902 -2c-10 0 -19.667 4.16699 -29 12.5s-13 16.5 -11 24.5
l-71 296c-32.667 -9.33301 -89 -26.666 -169 -51.999l-109 -40c-12 -23.333 -25.667 -57.333 -41 -102l-6 -35c-2 -8 -5.83301 -13.333 -11.5 -16s-11.167 -4 -16.5 -4c-13.333 0 -22 5.66699 -26 17c-4.66699 15.333 8 59.333 38 132c-20 3.33301 -30 14.333 -30 33
c0 4.66699 0.666992 9.66699 2 15c2.66699 10 22.334 20 59.001 30l205 448c9.33301 21.333 22 32 38 32c12 0 20.667 -12.667 26 -38c2 -20 9.66699 -60.333 23 -121c6.66699 -24.667 26.334 -103.667 59.001 -237l140 42c9.33301 4 18 6 26 6
c14.667 0 22.667 -7.66699 24 -23zM392.997 301.999l-37 142.998c-8.66699 30.667 -22 74.334 -40 131.001l-85 -164c-18.667 -37.333 -43.667 -93 -75 -167c26 4.66699 73.667 15 143 31c42.667 10.667 74 19.334 94 26.001zM474.997 1015
c-0.666992 -4.66699 -9 -16.334 -25 -35.001c-26 -30 -49.667 -60 -71 -90c-19.333 -27.333 -41.333 -60.666 -66 -99.999c1.33301 3.33301 2 -2 2 -16c0 -6 -4 -12.333 -12 -19c-10.667 -8 -21 -12 -31 -12c-16 0 -22.333 9.33301 -19 28c2.66699 16.667 27 60.5 73 131.5
s82.333 118.833 109 143.5c5.33301 5.33301 12.333 8 21 8c16 0 22.333 -13 19 -39z" />
    <glyph glyph-name="Acircumflex" unicode="&#xc2;" horiz-adv-x="609" 
d="M635 344c1.33301 -23.333 -10.6699 -35.001 -36.0029 -35.001c-6 0 -11 1 -15 3l-129 -38l67 -285c15.333 -12.667 23 -24.667 23 -36c0 -10.667 -6.66699 -19.667 -20 -27c-3.33301 -1.33301 -6.66602 -2 -9.99902 -2c-10 0 -19.667 4.16699 -29 12.5s-13 16.5 -11 24.5
l-71 296c-32.667 -9.33301 -89 -26.666 -169 -51.999l-109 -40c-12 -23.333 -25.667 -57.333 -41 -102l-6 -35c-2 -8 -5.83301 -13.333 -11.5 -16s-11.167 -4 -16.5 -4c-13.333 0 -22 5.66699 -26 17c-4.66699 15.333 8 59.333 38 132c-20 3.33301 -30 14.333 -30 33
c0 4.66699 0.666992 9.66699 2 15c2.66699 10 22.334 20 59.001 30l205 448c9.33301 21.333 22 32 38 32c12 0 20.667 -12.667 26 -38c2 -20 9.66699 -60.333 23 -121c6.66699 -24.667 26.334 -103.667 59.001 -237l140 42c9.33301 4 18 6 26 6
c14.667 0 22.667 -7.66699 24 -23zM392.997 301.999l-37 142.998c-8.66699 30.667 -22 74.334 -40 131.001l-85 -164c-18.667 -37.333 -43.667 -93 -75 -167c26 4.66699 73.667 15 143 31c42.667 10.667 74 19.334 94 26.001zM440.997 773.997
c5.33301 -4 7.99902 -11.335 7.99902 -22.002c0 -16.667 -6.66699 -25 -20 -25c-17.333 0 -33.666 14.667 -48.999 44c-8 14.667 -15.667 29.667 -23 45c-4 0.666992 -21.5 -11.333 -52.5 -36s-47.5 -40.667 -49.5 -48c-4.66699 -15.333 -13.667 -23 -27 -23
c-6.66699 0 -12.667 4 -18 12s-8 15.667 -8 23c0 8.66699 4.33301 16.334 13 23.001c30.667 30.667 75.667 69.334 135 116.001c4 2.66699 8 5.66699 12 9c4 2 10.333 1.66699 19 -1c14.667 -4 22.667 -14 24 -30c3.33301 -40.667 15.333 -69.667 36 -87z" />
    <glyph glyph-name="Atilde" unicode="&#xc3;" horiz-adv-x="609" 
d="M635 344c1.33301 -23.333 -10.6699 -35.001 -36.0029 -35.001c-6 0 -11 1 -15 3l-129 -38l67 -285c15.333 -12.667 23 -24.667 23 -36c0 -10.667 -6.66699 -19.667 -20 -27c-3.33301 -1.33301 -6.66602 -2 -9.99902 -2c-10 0 -19.667 4.16699 -29 12.5s-13 16.5 -11 24.5
l-71 296c-32.667 -9.33301 -89 -26.666 -169 -51.999l-109 -40c-12 -23.333 -25.667 -57.333 -41 -102l-6 -35c-2 -8 -5.83301 -13.333 -11.5 -16s-11.167 -4 -16.5 -4c-13.333 0 -22 5.66699 -26 17c-4.66699 15.333 8 59.333 38 132c-20 3.33301 -30 14.333 -30 33
c0 4.66699 0.666992 9.66699 2 15c2.66699 10 22.334 20 59.001 30l205 448c9.33301 21.333 22 32 38 32c12 0 20.667 -12.667 26 -38c2 -20 9.66699 -60.333 23 -121c6.66699 -24.667 26.334 -103.667 59.001 -237l140 42c9.33301 4 18 6 26 6
c14.667 0 22.667 -7.66699 24 -23zM392.997 301.999l-37 142.998c-8.66699 30.667 -22 74.334 -40 131.001l-85 -164c-18.667 -37.333 -43.667 -93 -75 -167c26 4.66699 73.667 15 143 31c42.667 10.667 74 19.334 94 26.001zM587.997 824.997
c-0.666992 -2 -5.66602 -4.33203 -14.999 -6.99902c-15.333 -5.33301 -38 -23 -68 -53c-34.667 -35.333 -65.334 -53 -92.001 -53c-16.667 0 -27.667 6.33301 -33 19c-4 19.333 -8.33301 38.333 -13 57c-7.33301 28.667 -17.333 44 -30 46
c-14.667 2.66699 -35.167 -4.83301 -61.5 -22.5s-45.666 -36.834 -57.999 -57.501s-21.833 -31 -28.5 -31c-14.667 0 -22 7 -22 21c0 8.66699 4 19.667 12 33c13.333 22 34.333 44.333 63 67c36.667 30 71 45 103 45c16 0 30.667 -10.667 44 -32
c12 -18.667 20.667 -42.334 26 -71.001c2.66699 -10.667 7.66699 -16 15 -16c11.333 0 29.666 13.333 54.999 40c37.333 38.667 63 57.334 77 56.001c18.667 -2 28 -11.333 28 -28c0 -4 -0.666992 -8.33301 -2 -13z" />
    <glyph glyph-name="Adieresis" unicode="&#xc4;" horiz-adv-x="609" 
d="M635 344c1.33301 -23.333 -10.6699 -35.001 -36.0029 -35.001c-6 0 -11 1 -15 3l-129 -38l67 -285c15.333 -12.667 23 -24.667 23 -36c0 -10.667 -6.66699 -19.667 -20 -27c-3.33301 -1.33301 -6.66602 -2 -9.99902 -2c-10 0 -19.667 4.16699 -29 12.5s-13 16.5 -11 24.5
l-71 296c-32.667 -9.33301 -89 -26.666 -169 -51.999l-109 -40c-12 -23.333 -25.667 -57.333 -41 -102l-6 -35c-2 -8 -5.83301 -13.333 -11.5 -16s-11.167 -4 -16.5 -4c-13.333 0 -22 5.66699 -26 17c-4.66699 15.333 8 59.333 38 132c-20 3.33301 -30 14.333 -30 33
c0 4.66699 0.666992 9.66699 2 15c2.66699 10 22.334 20 59.001 30l205 448c9.33301 21.333 22 32 38 32c12 0 20.667 -12.667 26 -38c2 -20 9.66699 -60.333 23 -121c6.66699 -24.667 26.334 -103.667 59.001 -237l140 42c9.33301 4 18 6 26 6
c14.667 0 22.667 -7.66699 24 -23zM392.997 301.999l-37 142.998c-8.66699 30.667 -22 74.334 -40 131.001l-85 -164c-18.667 -37.333 -43.667 -93 -75 -167c26 4.66699 73.667 15 143 31c42.667 10.667 74 19.334 94 26.001zM468.997 870.997
c-0.666992 -4.66699 -3.99902 -12.668 -9.99902 -24.001c-16 -32.667 -25.333 -59.334 -28 -80.001c-0.666992 -5.33301 -3.33398 -12.666 -8.00098 -21.999c-6.66699 -6 -13 -9 -19 -9c-12 0 -18 11.333 -18 34c0 21.333 5.66699 44 17 68c4 8.66699 7.66699 18 11 28l8 25
c4.66699 8.66699 11.667 13 21 13c8 0 14.5 -3.16699 19.5 -9.5s7.16699 -14.166 6.5 -23.499zM317.998 874.996c-0.666992 -2 -3.66699 -10.335 -9 -25.002c-6 -17.333 -9 -39.666 -9 -66.999c-0.666992 -12.667 -2.66699 -21.667 -6 -27c-5.33301 -6.66699 -14 -9 -26 -7
c-9.33301 2 -14 15.667 -14 41c0 14 1.33301 30.333 4 49c2 12.667 5.66699 31.334 11 56.001c5.33301 13.333 12.333 20 21 20c4 0 8.33301 -1 13 -3c14.667 -8 19.667 -20.333 15 -37z" />
    <glyph glyph-name="Aring" unicode="&#xc5;" horiz-adv-x="609" 
d="M635 344c1.33301 -23.333 -10.6699 -35.001 -36.0029 -35.001c-6 0 -11 1 -15 3l-129 -38l67 -285c15.333 -12.667 23 -24.667 23 -36c0 -10.667 -6.66699 -19.667 -20 -27c-3.33301 -1.33301 -6.66602 -2 -9.99902 -2c-10 0 -19.667 4.16699 -29 12.5s-13 16.5 -11 24.5
l-71 296c-32.667 -9.33301 -89 -26.666 -169 -51.999l-109 -40c-12 -23.333 -25.667 -57.333 -41 -102l-6 -35c-2 -8 -5.83301 -13.333 -11.5 -16s-11.167 -4 -16.5 -4c-13.333 0 -22 5.66699 -26 17c-4.66699 15.333 8 59.333 38 132c-20 3.33301 -30 14.333 -30 33
c0 4.66699 0.666992 9.66699 2 15c2.66699 10 22.334 20 59.001 30l205 448c9.33301 21.333 22 32 38 32c12 0 20.667 -12.667 26 -38c2 -20 9.66699 -60.333 23 -121c6.66699 -24.667 26.334 -103.667 59.001 -237l140 42c9.33301 4 18 6 26 6
c14.667 0 22.667 -7.66699 24 -23zM392.997 301.999l-37 142.998c-8.66699 30.667 -22 74.334 -40 131.001l-85 -164c-18.667 -37.333 -43.667 -93 -75 -167c26 4.66699 73.667 15 143 31c42.667 10.667 74 19.334 94 26.001zM451.997 923.997
c8.66699 -6.66699 13 -17.332 13 -31.999c0 -21.333 -10.667 -44 -32 -68c-34.667 -39.333 -67 -59 -97 -59c-7.33301 0 -15.333 1.33301 -24 4c-20.667 5.33301 -31 22.333 -31 51c0 19.333 4.83301 39.666 14.5 60.999s22 37.333 37 48s33.167 16 54.5 16
c26 0 47.667 -7 65 -21zM392.997 900.999c-19.333 0 -35 -6.00098 -47 -18.001c-4 -4 -8.33301 -12.333 -13 -25s-7 -23.667 -7 -33c0 -14 6 -20 18 -18c12 2.66699 28.167 13.334 48.5 32.001s30.5 34 30.5 46c0 10.667 -10 16 -30 16z" />
    <glyph glyph-name="AE" unicode="&#xc6;" horiz-adv-x="819" 
d="M885 111c-38 -9.33301 -101.002 -31.6689 -189.002 -67.002l-194 -85c10 -10 15 -19.667 15 -29c0 -10 -6.66699 -18.667 -20 -26c-3.33301 -1.33301 -6.66602 -2 -9.99902 -2c-9.33301 0 -18.5 4 -27.5 12s-13.167 16 -12.5 24c-20 6.66699 -30 17.334 -30 32.001
c0 6.66699 3 12.667 9 18c1.33301 0.666992 4 2.66699 8 6l-62 257c-78 -33.333 -168.333 -70 -271 -110c-24 -57.333 -36.833 -91.5 -38.5 -102.5s-3.16699 -22.167 -4.5 -33.5c-2 -8 -6 -13.333 -12 -16s-11.667 -4 -17 -4c-12.667 0 -21 5.66699 -25 17
c-5.33301 19.333 7 62.666 37 129.999l12 26c-4 7.33301 -4.33301 15 -1 23c0.666992 2.66699 6 6.66699 16 12l157 348c-7.33301 6 -11 14 -11 24c0 10.667 3.33301 18.334 10 23.001c3.33301 2.66699 12 6 26 10l24 53c9.33301 20.667 21.666 31 36.999 31
c13.333 0 22 -12.333 26 -37c0.666992 -5.33301 1.66699 -12.666 3 -21.999l25 9c79.333 33.333 137.333 55.666 174 66.999c64.667 20 106.334 30 125.001 30c23.333 0 35 -7.33301 35 -22c0 -6.66699 -3.33301 -13.667 -10 -21c-8.66699 -10.667 -21.667 -16 -39 -16
c-9.33301 0 -17.333 2.33301 -24 7c-40 -10.667 -86.667 -27 -140 -49l-137 -57c3.33301 -16 7 -31.5 11 -46.5s20.333 -82.167 49 -201.5c216 80.667 333 118.667 351 114c16 -4 24 -11 24 -21c0 -6.66699 -4.66699 -13.667 -14 -21c-3.33301 -2.66699 -8 -4 -14 -4
c-11.333 -0.666992 -22 -2 -32 -4c-19.333 -4 -120.333 -42.667 -303 -116l61 -256l193 73c116.667 42.667 184 64 202 64c0.666992 0 5.33398 -2 14.001 -6c17.333 -7.33301 26 -14.666 26 -21.999c0 -2 -0.5 -3.5 -1.5 -4.5s-11.167 -3.83301 -30.5 -8.5zM358.998 303.997
c-14 56 -23.667 93.332 -29 111.999c-8 30 -21 73 -39 129c-33.333 -61.333 -61.333 -115.333 -84 -162c-12 -22 -36.333 -76 -73 -162c8 2.66699 83 30.334 225 83.001z" />
    <glyph glyph-name="Ccedilla" unicode="&#xc7;" horiz-adv-x="729" 
d="M764 237c2.66699 -5.33301 4 -10.3311 4 -14.998c0 -20 -19.333 -32 -58 -36c-8 -1.33301 -44.667 -17 -110 -47c-77.333 -36 -142 -63.333 -194 -82c-6.66699 -32.667 -3.33398 -57 9.99902 -73l30 -35c10 -12 15 -25 15 -39c0 -8.66699 -1.66699 -17.667 -5 -27
c-8 -24.667 -26 -50.667 -54 -78c-25.333 -24.667 -48.833 -41.5 -70.5 -50.5s-34.5 -13.5 -38.5 -13.5c-16.667 0 -25 8.33301 -25 25c0 6 2.16699 12 6.5 18s9.16602 9 14.499 9c1.33301 0 3.33301 -0.333008 6 -1h7c14 0 32 9 54 27c37.333 31.333 56 59.666 56 84.999
c0 10 -4 18.333 -12 25c-31.333 28 -47.666 57 -48.999 87c0 4.66699 -1 12 -3 22c-60 -18 -111.333 -27 -154 -27c-46.667 0 -83 10.333 -109 31c-48.667 38 -73 86.667 -73 146c0 87.333 48.333 184.666 145 291.999c88 98 177.667 165.333 269 202
c21.333 8.66699 39 13 53 13c14.667 0 24.334 -5 29.001 -15c2.66699 -6.66699 4 -12.667 4 -18c0 -16 -17.667 -27.667 -53 -35c-43.333 -8.66699 -96.333 -38.667 -159 -90s-115.667 -108 -159 -170c-48.667 -69.333 -73 -130 -73 -182c0 -44 18.333 -78 55 -102
c20 -13.333 47.333 -20 82 -20c70.667 0 168.667 28 294 84l184 91c25.333 11.333 42.333 17 51 17c13.333 0 23.333 -6 30 -18z" />
    <glyph glyph-name="Egrave" unicode="&#xc8;" horiz-adv-x="648" 
d="M686 233c-55.333 -14 -126.997 -40.001 -214.997 -78.001c-98.667 -42.667 -192.667 -87.667 -282 -135c-60 -31.333 -92 -46.333 -96 -45c-9.33301 3.33301 -19.666 12.666 -30.999 27.999c-9.33301 13.333 -15 23.666 -17 30.999
c-2.66699 14.667 -1.33398 41.667 3.99902 81c2.66699 19.333 5.66699 72.666 9 159.999s5 153 5 197c0 20 -0.333008 31.667 -1 35s-4 12.333 -10 27c-4 11.333 -6 20 -6 26c0 8 4.66699 14.667 14 20s18.666 8 27.999 8c8.66699 0 17 -2.33301 25 -7l300 112
c66 20.667 108.333 31 127 31c24 0 36 -7.33301 36 -22c0 -7.33301 -3.33301 -14.666 -10 -21.999c-9.33301 -10.667 -22.666 -16 -39.999 -16c-9.33301 0 -17.333 2.33301 -24 7l-83 -25c-60.667 -19.333 -105.667 -36.666 -135 -51.999c-19.333 -10 -73 -33 -161 -69
c2.66699 -52 2.66699 -85.333 0 -100c-0.666992 -20 -3.33398 -52.667 -8.00098 -98c185.333 80.667 287.666 119 306.999 115c16 -3.33301 24 -10.333 24 -21c0 -7.33301 -4 -15 -12 -23c-4 -4 -10.5 -6.66699 -19.5 -8s-15.833 -3.33301 -20.5 -6l-103 -39
c-73.333 -28.667 -132.666 -57.667 -177.999 -87c-2.66699 -31.333 -6 -72.666 -10 -123.999c-0.666992 -10.667 -0.666992 -24.667 0 -42c1.33301 -20.667 2 -35.334 2 -44.001c23.333 12.667 50.666 26.334 81.999 41.001c74.667 34.667 161.667 71.334 261 110.001
c135.333 52.667 219.666 79 252.999 79c6 0 11 -1 15 -3c18 -6 27 -13.333 27 -22c0 -2 -0.5 -3.5 -1.5 -4.5s-19.5 -6.16699 -55.5 -15.5zM402.003 732.999c0 -14.667 -6.33203 -22.002 -18.999 -22.002c-3.33301 0 -7.33301 0.666992 -12 2
c-16 5.33301 -55.333 35.333 -118 90c-64.667 56 -107.667 99 -129 129c-3.33301 4.66699 -5 10.667 -5 18c0 13.333 7.66699 20 23 20c5.33301 0 11.666 -1 18.999 -3c4.66699 -1.33301 15 -11.333 31 -30c26 -29.333 52.333 -56.666 79 -81.999l43 -42
c19.333 -18.667 35 -31 47 -37l15 -1c6.66699 0 12.667 -4.66699 18 -14s8 -18.666 8 -27.999z" />
    <glyph glyph-name="Eacute" unicode="&#xc9;" horiz-adv-x="648" 
d="M686 233c-55.333 -14 -126.997 -40.001 -214.997 -78.001c-98.667 -42.667 -192.667 -87.667 -282 -135c-60 -31.333 -92 -46.333 -96 -45c-9.33301 3.33301 -19.666 12.666 -30.999 27.999c-9.33301 13.333 -15 23.666 -17 30.999
c-2.66699 14.667 -1.33398 41.667 3.99902 81c2.66699 19.333 5.66699 72.666 9 159.999s5 153 5 197c0 20 -0.333008 31.667 -1 35s-4 12.333 -10 27c-4 11.333 -6 20 -6 26c0 8 4.66699 14.667 14 20s18.666 8 27.999 8c8.66699 0 17 -2.33301 25 -7l300 112
c66 20.667 108.333 31 127 31c24 0 36 -7.33301 36 -22c0 -7.33301 -3.33301 -14.666 -10 -21.999c-9.33301 -10.667 -22.666 -16 -39.999 -16c-9.33301 0 -17.333 2.33301 -24 7l-83 -25c-60.667 -19.333 -105.667 -36.666 -135 -51.999c-19.333 -10 -73 -33 -161 -69
c2.66699 -52 2.66699 -85.333 0 -100c-0.666992 -20 -3.33398 -52.667 -8.00098 -98c185.333 80.667 287.666 119 306.999 115c16 -3.33301 24 -10.333 24 -21c0 -7.33301 -4 -15 -12 -23c-4 -4 -10.5 -6.66699 -19.5 -8s-15.833 -3.33301 -20.5 -6l-103 -39
c-73.333 -28.667 -132.666 -57.667 -177.999 -87c-2.66699 -31.333 -6 -72.666 -10 -123.999c-0.666992 -10.667 -0.666992 -24.667 0 -42c1.33301 -20.667 2 -35.334 2 -44.001c23.333 12.667 50.666 26.334 81.999 41.001c74.667 34.667 161.667 71.334 261 110.001
c135.333 52.667 219.666 79 252.999 79c6 0 11 -1 15 -3c18 -6 27 -13.333 27 -22c0 -2 -0.5 -3.5 -1.5 -4.5s-19.5 -6.16699 -55.5 -15.5zM435.003 934.999c-0.666992 -4.66699 -9 -16.334 -25 -35.001c-26 -30 -49.667 -60 -71 -90
c-19.333 -27.333 -41.333 -60.666 -66 -99.999c1.33301 3.33301 2 -2 2 -16c0 -6 -4 -12.333 -12 -19c-10.667 -8 -21 -12 -31 -12c-16 0 -22.333 9.33301 -19 28c2.66699 16.667 27 60.5 73 131.5s82.333 118.833 109 143.5c5.33301 5.33301 12.333 8 21 8
c16 0 22.333 -13 19 -39z" />
    <glyph glyph-name="Ecircumflex" unicode="&#xca;" horiz-adv-x="648" 
d="M686 233c-55.333 -14 -126.997 -40.001 -214.997 -78.001c-98.667 -42.667 -192.667 -87.667 -282 -135c-60 -31.333 -92 -46.333 -96 -45c-9.33301 3.33301 -19.666 12.666 -30.999 27.999c-9.33301 13.333 -15 23.666 -17 30.999
c-2.66699 14.667 -1.33398 41.667 3.99902 81c2.66699 19.333 5.66699 72.666 9 159.999s5 153 5 197c0 20 -0.333008 31.667 -1 35s-4 12.333 -10 27c-4 11.333 -6 20 -6 26c0 8 4.66699 14.667 14 20s18.666 8 27.999 8c8.66699 0 17 -2.33301 25 -7l300 112
c66 20.667 108.333 31 127 31c24 0 36 -7.33301 36 -22c0 -7.33301 -3.33301 -14.666 -10 -21.999c-9.33301 -10.667 -22.666 -16 -39.999 -16c-9.33301 0 -17.333 2.33301 -24 7l-83 -25c-60.667 -19.333 -105.667 -36.666 -135 -51.999c-19.333 -10 -73 -33 -161 -69
c2.66699 -52 2.66699 -85.333 0 -100c-0.666992 -20 -3.33398 -52.667 -8.00098 -98c185.333 80.667 287.666 119 306.999 115c16 -3.33301 24 -10.333 24 -21c0 -7.33301 -4 -15 -12 -23c-4 -4 -10.5 -6.66699 -19.5 -8s-15.833 -3.33301 -20.5 -6l-103 -39
c-73.333 -28.667 -132.666 -57.667 -177.999 -87c-2.66699 -31.333 -6 -72.666 -10 -123.999c-0.666992 -10.667 -0.666992 -24.667 0 -42c1.33301 -20.667 2 -35.334 2 -44.001c23.333 12.667 50.666 26.334 81.999 41.001c74.667 34.667 161.667 71.334 261 110.001
c135.333 52.667 219.666 79 252.999 79c6 0 11 -1 15 -3c18 -6 27 -13.333 27 -22c0 -2 -0.5 -3.5 -1.5 -4.5s-19.5 -6.16699 -55.5 -15.5zM417.003 795.999c5.33301 -4 7.99902 -11.335 7.99902 -22.002c0 -16.667 -6.66699 -25 -20 -25
c-17.333 0 -33.666 14.667 -48.999 44c-8 14.667 -15.667 29.667 -23 45c-4 0.666992 -21.5 -11.333 -52.5 -36s-47.5 -40.667 -49.5 -48c-4.66699 -15.333 -13.667 -23 -27 -23c-6.66699 0 -12.667 4 -18 12s-8 15.667 -8 23c0 8.66699 4.33301 16.334 13 23.001
c30.667 30.667 75.667 69.334 135 116.001c4 2.66699 8 5.66699 12 9c4 2 10.333 1.66699 19 -1c14.667 -4 22.667 -14 24 -30c3.33301 -40.667 15.333 -69.667 36 -87z" />
    <glyph glyph-name="Edieresis" unicode="&#xcb;" horiz-adv-x="648" 
d="M686 233c-55.333 -14 -126.997 -40.001 -214.997 -78.001c-98.667 -42.667 -192.667 -87.667 -282 -135c-60 -31.333 -92 -46.333 -96 -45c-9.33301 3.33301 -19.666 12.666 -30.999 27.999c-9.33301 13.333 -15 23.666 -17 30.999
c-2.66699 14.667 -1.33398 41.667 3.99902 81c2.66699 19.333 5.66699 72.666 9 159.999s5 153 5 197c0 20 -0.333008 31.667 -1 35s-4 12.333 -10 27c-4 11.333 -6 20 -6 26c0 8 4.66699 14.667 14 20s18.666 8 27.999 8c8.66699 0 17 -2.33301 25 -7l300 112
c66 20.667 108.333 31 127 31c24 0 36 -7.33301 36 -22c0 -7.33301 -3.33301 -14.666 -10 -21.999c-9.33301 -10.667 -22.666 -16 -39.999 -16c-9.33301 0 -17.333 2.33301 -24 7l-83 -25c-60.667 -19.333 -105.667 -36.666 -135 -51.999c-19.333 -10 -73 -33 -161 -69
c2.66699 -52 2.66699 -85.333 0 -100c-0.666992 -20 -3.33398 -52.667 -8.00098 -98c185.333 80.667 287.666 119 306.999 115c16 -3.33301 24 -10.333 24 -21c0 -7.33301 -4 -15 -12 -23c-4 -4 -10.5 -6.66699 -19.5 -8s-15.833 -3.33301 -20.5 -6l-103 -39
c-73.333 -28.667 -132.666 -57.667 -177.999 -87c-2.66699 -31.333 -6 -72.666 -10 -123.999c-0.666992 -10.667 -0.666992 -24.667 0 -42c1.33301 -20.667 2 -35.334 2 -44.001c23.333 12.667 50.666 26.334 81.999 41.001c74.667 34.667 161.667 71.334 261 110.001
c135.333 52.667 219.666 79 252.999 79c6 0 11 -1 15 -3c18 -6 27 -13.333 27 -22c0 -2 -0.5 -3.5 -1.5 -4.5s-19.5 -6.16699 -55.5 -15.5zM444.003 868.999c-0.666992 -4.66699 -3.99902 -12.668 -9.99902 -24.001c-16 -32.667 -25.333 -59.334 -28 -80.001
c-0.666992 -5.33301 -3.33398 -12.666 -8.00098 -21.999c-6.66699 -6 -13 -9 -19 -9c-12 0 -18 11.333 -18 34c0 21.333 5.66699 44 17 68c4 8.66699 7.66699 18 11 28l8 25c4.66699 8.66699 11.667 13 21 13c8 0 14.5 -3.16699 19.5 -9.5s7.16699 -14.166 6.5 -23.499z
M293.004 872.998c-0.666992 -2 -3.66699 -10.335 -9 -25.002c-6 -17.333 -9 -39.666 -9 -66.999c-0.666992 -12.667 -2.66699 -21.667 -6 -27c-5.33301 -6.66699 -14 -9 -26 -7c-9.33301 2 -14 15.667 -14 41c0 14 1.33301 30.333 4 49c2 12.667 5.66699 31.334 11 56.001
c5.33301 13.333 12.333 20 21 20c4 0 8.33301 -1 13 -3c14.667 -8 19.667 -20.333 15 -37z" />
    <glyph glyph-name="Igrave" unicode="&#xcc;" horiz-adv-x="234" 
d="M273 714c0 -14.667 -6.33203 -22.002 -18.999 -22.002c-3.33301 0 -7.33301 0.666992 -12 2c-16 5.33301 -55.333 35.333 -118 90c-64.667 56 -107.667 99 -129 129c-3.33301 4.66699 -5 10.667 -5 18c0 13.333 7.66699 20 23 20c5.33301 0 11.666 -1 18.999 -3
c4.66699 -1.33301 15 -11.333 31 -30c26 -29.333 52.333 -56.666 79 -81.999l43 -42c19.333 -18.667 35 -31 47 -37l15 -1c6.66699 0 12.667 -4.66699 18 -14s8 -18.666 8 -27.999zM165.001 683.998c9.33301 -3.33301 14 -18.667 14 -46
c0 -21.333 -3.33301 -56.333 -10 -105c-8.66699 -68.667 -13.667 -110 -15 -124c-2 -26 -6.33301 -128.667 -13 -308c0 -12 -0.666992 -25 -2 -39c12 -16.667 18 -32 18 -46c0 -9.33301 -4 -16.833 -12 -22.5s-17 -8.5 -27 -8.5c-14 0 -24 6.66699 -30 20
c-2.66699 7.33301 -4 32 -4 74c0 64.667 3 156.667 9 276c6 109.333 10.333 175.333 13 198l10 93c4.66699 28.667 15 43 31 43c5.33301 0 11.333 -1.66699 18 -5z" />
    <glyph glyph-name="Iacute" unicode="&#xcd;" horiz-adv-x="234" 
d="M280 972c-0.666992 -4.66699 -9 -16.334 -25 -35.001c-26 -30 -49.667 -60 -71 -90c-19.333 -27.333 -41.333 -60.666 -66 -99.999c1.33301 3.33301 2 -2 2 -16c0 -6 -4 -12.333 -12 -19c-10.667 -8 -21 -12 -31 -12c-16 0 -22.333 9.33301 -19 28
c2.66699 16.667 27 60.5 73 131.5s82.333 118.833 109 143.5c5.33301 5.33301 12.333 8 21 8c16 0 22.333 -13 19 -39zM165 684c9.33301 -3.33301 14 -18.667 14 -46c0 -21.333 -3.33301 -56.333 -10 -105c-8.66699 -68.667 -13.667 -110 -15 -124
c-2 -26 -6.33301 -128.667 -13 -308c0 -12 -0.666992 -25 -2 -39c12 -16.667 18 -32 18 -46c0 -9.33301 -4 -16.833 -12 -22.5s-17 -8.5 -27 -8.5c-14 0 -24 6.66699 -30 20c-2.66699 7.33301 -4 32 -4 74c0 64.667 3 156.667 9 276c6 109.333 10.333 175.333 13 198l10 93
c4.66699 28.667 15 43 31 43c5.33301 0 11.333 -1.66699 18 -5z" />
    <glyph glyph-name="Icircumflex" unicode="&#xce;" horiz-adv-x="234" 
d="M262 767c5.33301 -4 7.99902 -11.335 7.99902 -22.002c0 -16.667 -6.66699 -25 -20 -25c-17.333 0 -33.666 14.667 -48.999 44c-8 14.667 -15.667 29.667 -23 45c-4 0.666992 -21.5 -11.333 -52.5 -36s-47.5 -40.667 -49.5 -48c-4.66699 -15.333 -13.667 -23 -27 -23
c-6.66699 0 -12.667 4 -18 12s-8 15.667 -8 23c0 8.66699 4.33301 16.334 13 23.001c30.667 30.667 75.667 69.334 135 116.001c4 2.66699 8 5.66699 12 9c4 2 10.333 1.66699 19 -1c14.667 -4 22.667 -14 24 -30c3.33301 -40.667 15.333 -69.667 36 -87zM164.999 683.998
c9.33301 -3.33301 14 -18.667 14 -46c0 -21.333 -3.33301 -56.333 -10 -105c-8.66699 -68.667 -13.667 -110 -15 -124c-2 -26 -6.33301 -128.667 -13 -308c0 -12 -0.666992 -25 -2 -39c12 -16.667 18 -32 18 -46c0 -9.33301 -4 -16.833 -12 -22.5s-17 -8.5 -27 -8.5
c-14 0 -24 6.66699 -30 20c-2.66699 7.33301 -4 32 -4 74c0 64.667 3 156.667 9 276c6 109.333 10.333 175.333 13 198l10 93c4.66699 28.667 15 43 31 43c5.33301 0 11.333 -1.66699 18 -5z" />
    <glyph glyph-name="Idieresis" unicode="&#xcf;" horiz-adv-x="234" 
d="M281 866c-0.666992 -4.66699 -3.99902 -12.668 -9.99902 -24.001c-16 -32.667 -25.333 -59.334 -28 -80.001c-0.666992 -5.33301 -3.33398 -12.666 -8.00098 -21.999c-6.66699 -6 -13 -9 -19 -9c-12 0 -18 11.333 -18 34c0 21.333 5.66699 44 17 68
c4 8.66699 7.66699 18 11 28l8 25c4.66699 8.66699 11.667 13 21 13c8 0 14.5 -3.16699 19.5 -9.5s7.16699 -14.166 6.5 -23.499zM130.001 869.999c-0.666992 -2 -3.66699 -10.335 -9 -25.002c-6 -17.333 -9 -39.666 -9 -66.999c-0.666992 -12.667 -2.66699 -21.667 -6 -27
c-5.33301 -6.66699 -14 -9 -26 -7c-9.33301 2 -14 15.667 -14 41c0 14 1.33301 30.333 4 49c2 12.667 5.66699 31.334 11 56.001c5.33301 13.333 12.333 20 21 20c4 0 8.33301 -1 13 -3c14.667 -8 19.667 -20.333 15 -37zM165.001 683.997
c9.33301 -3.33301 14 -18.667 14 -46c0 -21.333 -3.33301 -56.333 -10 -105c-8.66699 -68.667 -13.667 -110 -15 -124c-2 -26 -6.33301 -128.667 -13 -308c0 -12 -0.666992 -25 -2 -39c12 -16.667 18 -32 18 -46c0 -9.33301 -4 -16.833 -12 -22.5s-17 -8.5 -27 -8.5
c-14 0 -24 6.66699 -30 20c-2.66699 7.33301 -4 32 -4 74c0 64.667 3 156.667 9 276c6 109.333 10.333 175.333 13 198l10 93c4.66699 28.667 15 43 31 43c5.33301 0 11.333 -1.66699 18 -5z" />
    <glyph glyph-name="Eth" unicode="&#xd0;" horiz-adv-x="663" 
d="M679 465c0.666992 -75.333 -61.3301 -162.004 -185.997 -260.004c-60 -47.333 -166.333 -117 -319 -209c-3.33301 -1.33301 -8.33301 -8.66602 -15 -21.999s-16.667 -20.333 -30 -21c-2.66699 0 -5.33398 1.33301 -8.00098 4s-4.33398 4 -5.00098 4
c-2.66699 -0.666992 -6.66699 -0.333984 -12 0.999023c-12 12 -15 28.333 -9 49c2.66699 8 5 16.333 7 25c-8.66699 114 -12.667 203 -12 267c-36 -10 -64.333 -16.333 -85 -19c-6 0 -12.333 1.83301 -19 5.5s-10 8.83398 -10 15.501c0 8 5.33301 17.667 16 29
c3.33301 2.66699 12.333 5.33398 27 8.00098c25.333 4 49.666 9 72.999 15c3.33301 61.333 9 150.666 17 267.999l-75 -26c-8.66699 -1.33301 -17.5 1.83398 -26.5 9.50098s-13.5 15.834 -13.5 24.501s4.33301 15.667 13 21c18 11.333 49.5 21.833 94.5 31.5
s89.833 14.834 134.5 15.501c114 2.66699 216.167 -19.5 306.5 -66.5s135.833 -103.5 136.5 -169.5zM619.003 460.996c0 54 -40.999 100.333 -122.999 139c-74 34.667 -150.333 51.667 -229 51c-44 -0.666992 -74.333 -4 -91 -10c-11.333 -96.667 -20 -185.667 -26 -267
c32 9.33301 53.667 17.333 65 24l8 13c3.33301 5.33301 10.666 8 21.999 8c26.667 0.666992 40 -7.33301 40 -24c0 -6 -3.66699 -12.333 -11 -19c-14 -12.667 -56.333 -31 -127 -55l-2 -46c-2.66699 -68 3 -141.333 17 -220c73.333 40.667 138 80 194 118
c136 92 219.333 171.333 250 238c8.66699 18 13 34.667 13 50z" />
    <glyph glyph-name="Ntilde" unicode="&#xd1;" horiz-adv-x="612" 
d="M536 103c0 -15.333 -2.66797 -26.3271 -8.00098 -32.9941c1.33301 -8 2 -16 2 -24c0 -30 -10 -43.667 -30 -41s-30 17.667 -30 45c0 9.33301 1 18.666 3 27.999l-53 34c-30.667 18 -88.667 94 -174 228c-30 46.667 -61.667 108.667 -95 186
c-34 -230.667 -51 -378 -51 -442c0 -16 1.33301 -25.333 4 -28c6 -6.66699 9 -23 9 -49c0 -40 -10.333 -60 -31 -60c-7.33301 0 -15.666 3 -24.999 9c-4 2.66699 -6 19 -6 49c0 48 4.33301 123 13 225c7.33301 88.667 13.333 146.667 18 174c4 25.333 7 77.333 9 156
c2 65.333 5.66699 102 11 110c7.33301 12 16.333 18 27 18c9.33301 0 17 -4.66699 23 -14c14 -22.667 30.667 -63.334 50 -122.001c21.333 -62 43 -112.333 65 -151c70.667 -124.667 124.667 -200 162 -226c8 -6 21.333 -13 40 -21c-4 208 -4 338.333 0 391
c0.666992 11.333 1 22.666 1 33.999c0 15.333 -0.833008 33.166 -2.5 53.499s-2.5 33.166 -2.5 38.499c0 22.667 10.333 34 31 34c23.333 0 35 -38.333 35 -115c0 -26 -1.5 -61.167 -4.5 -105.5s-4.5 -70.166 -4.5 -77.499c0 -10.667 -1 -30.334 -3 -59.001
s-3 -53.334 -3 -74.001c0 -42.667 3.33301 -89.334 10 -140.001c6.66699 -13.333 10 -23.666 10 -30.999zM543.999 843.006c-0.666992 -2 -5.66602 -4.33203 -14.999 -6.99902c-15.333 -5.33301 -38 -23 -68 -53c-34.667 -35.333 -65.334 -53 -92.001 -53
c-16.667 0 -27.667 6.33301 -33 19c-4 19.333 -8.33301 38.333 -13 57c-7.33301 28.667 -17.333 44 -30 46c-14.667 2.66699 -35.167 -4.83301 -61.5 -22.5s-45.666 -36.834 -57.999 -57.501s-21.833 -31 -28.5 -31c-14.667 0 -22 7 -22 21c0 8.66699 4 19.667 12 33
c13.333 22 34.333 44.333 63 67c36.667 30 71 45 103 45c16 0 30.667 -10.667 44 -32c12 -18.667 20.667 -42.334 26 -71.001c2.66699 -10.667 7.66699 -16 15 -16c11.333 0 29.666 13.333 54.999 40c37.333 38.667 63 57.334 77 56.001c18.667 -2 28 -11.333 28 -28
c0 -4 -0.666992 -8.33301 -2 -13z" />
    <glyph glyph-name="Ograve" unicode="&#xd2;" horiz-adv-x="696" 
d="M702 389c-2.66699 -45.333 -31.833 -99.5 -87.5 -162.5s-121.167 -116.167 -196.5 -159.5c-82 -48 -156 -72 -222 -72c-31.333 0 -59.333 5.66699 -84 17c-64.667 30 -97 87 -97 171c0 98 37 200.833 111 308.5s146 162.167 216 163.5
c48 1.33301 81.333 -9.66699 100 -33c179.333 -34 266 -111.667 260 -233zM643.001 391c2.66699 80 -44.001 133.666 -140.001 160.999c-40 10.667 -88.333 16 -145 16c-2 -0.666992 -11 -7 -27 -19c-12.667 -9.33301 -23.667 -13.333 -33 -12
c-13.333 2 -22.666 6.33301 -27.999 13s-8 9.66699 -8 9c-56 -45.333 -102.333 -104.666 -139 -177.999c-34.667 -70 -52 -134.667 -52 -194c0 -57.333 17.333 -95.333 52 -114c24 -13.333 51.667 -20 83 -20c58 0 122.667 21 194 63c64.667 38 121 84.167 169 138.5
s72.667 99.833 74 136.5zM513 705.999c0 -14.667 -6.33203 -22.002 -18.999 -22.002c-3.33301 0 -7.33301 0.666992 -12 2c-16 5.33301 -55.333 35.333 -118 90c-64.667 56 -107.667 99 -129 129c-3.33301 4.66699 -5 10.667 -5 18c0 13.333 7.66699 20 23 20
c5.33301 0 11.666 -1 18.999 -3c4.66699 -1.33301 15 -11.333 31 -30c26 -29.333 52.333 -56.666 79 -81.999l43 -42c19.333 -18.667 35 -31 47 -37l15 -1c6.66699 0 12.667 -4.66699 18 -14s8 -18.666 8 -27.999z" />
    <glyph glyph-name="Oacute" unicode="&#xd3;" horiz-adv-x="696" 
d="M702 389c-2.66699 -45.333 -31.833 -99.5 -87.5 -162.5s-121.167 -116.167 -196.5 -159.5c-82 -48 -156 -72 -222 -72c-31.333 0 -59.333 5.66699 -84 17c-64.667 30 -97 87 -97 171c0 98 37 200.833 111 308.5s146 162.167 216 163.5
c48 1.33301 81.333 -9.66699 100 -33c179.333 -34 266 -111.667 260 -233zM643.001 391c2.66699 80 -44.001 133.666 -140.001 160.999c-40 10.667 -88.333 16 -145 16c-2 -0.666992 -11 -7 -27 -19c-12.667 -9.33301 -23.667 -13.333 -33 -12
c-13.333 2 -22.666 6.33301 -27.999 13s-8 9.66699 -8 9c-56 -45.333 -102.333 -104.666 -139 -177.999c-34.667 -70 -52 -134.667 -52 -194c0 -57.333 17.333 -95.333 52 -114c24 -13.333 51.667 -20 83 -20c58 0 122.667 21 194 63c64.667 38 121 84.167 169 138.5
s72.667 99.833 74 136.5zM576 966.999c-0.666992 -4.66699 -9 -16.334 -25 -35.001c-26 -30 -49.667 -60 -71 -90c-19.333 -27.333 -41.333 -60.666 -66 -99.999c1.33301 3.33301 2 -2 2 -16c0 -6 -4 -12.333 -12 -19c-10.667 -8 -21 -12 -31 -12
c-16 0 -22.333 9.33301 -19 28c2.66699 16.667 27 60.5 73 131.5s82.333 118.833 109 143.5c5.33301 5.33301 12.333 8 21 8c16 0 22.333 -13 19 -39z" />
    <glyph glyph-name="Ocircumflex" unicode="&#xd4;" horiz-adv-x="696" 
d="M702 389c-2.66699 -45.333 -31.833 -99.5 -87.5 -162.5s-121.167 -116.167 -196.5 -159.5c-82 -48 -156 -72 -222 -72c-31.333 0 -59.333 5.66699 -84 17c-64.667 30 -97 87 -97 171c0 98 37 200.833 111 308.5s146 162.167 216 163.5
c48 1.33301 81.333 -9.66699 100 -33c179.333 -34 266 -111.667 260 -233zM643.001 391c2.66699 80 -44.001 133.666 -140.001 160.999c-40 10.667 -88.333 16 -145 16c-2 -0.666992 -11 -7 -27 -19c-12.667 -9.33301 -23.667 -13.333 -33 -12
c-13.333 2 -22.666 6.33301 -27.999 13s-8 9.66699 -8 9c-56 -45.333 -102.333 -104.666 -139 -177.999c-34.667 -70 -52 -134.667 -52 -194c0 -57.333 17.333 -95.333 52 -114c24 -13.333 51.667 -20 83 -20c58 0 122.667 21 194 63c64.667 38 121 84.167 169 138.5
s72.667 99.833 74 136.5zM495 771.999c5.33301 -4 7.99902 -11.335 7.99902 -22.002c0 -16.667 -6.66699 -25 -20 -25c-17.333 0 -33.666 14.667 -48.999 44c-8 14.667 -15.667 29.667 -23 45c-4 0.666992 -21.5 -11.333 -52.5 -36s-47.5 -40.667 -49.5 -48
c-4.66699 -15.333 -13.667 -23 -27 -23c-6.66699 0 -12.667 4 -18 12s-8 15.667 -8 23c0 8.66699 4.33301 16.334 13 23.001c30.667 30.667 75.667 69.334 135 116.001c4 2.66699 8 5.66699 12 9c4 2 10.333 1.66699 19 -1c14.667 -4 22.667 -14 24 -30
c3.33301 -40.667 15.333 -69.667 36 -87z" />
    <glyph glyph-name="Otilde" unicode="&#xd5;" horiz-adv-x="696" 
d="M702 389c-2.66699 -45.333 -31.833 -99.5 -87.5 -162.5s-121.167 -116.167 -196.5 -159.5c-82 -48 -156 -72 -222 -72c-31.333 0 -59.333 5.66699 -84 17c-64.667 30 -97 87 -97 171c0 98 37 200.833 111 308.5s146 162.167 216 163.5
c48 1.33301 81.333 -9.66699 100 -33c179.333 -34 266 -111.667 260 -233zM643.001 391c2.66699 80 -44.001 133.666 -140.001 160.999c-40 10.667 -88.333 16 -145 16c-2 -0.666992 -11 -7 -27 -19c-12.667 -9.33301 -23.667 -13.333 -33 -12
c-13.333 2 -22.666 6.33301 -27.999 13s-8 9.66699 -8 9c-56 -45.333 -102.333 -104.666 -139 -177.999c-34.667 -70 -52 -134.667 -52 -194c0 -57.333 17.333 -95.333 52 -114c24 -13.333 51.667 -20 83 -20c58 0 122.667 21 194 63c64.667 38 121 84.167 169 138.5
s72.667 99.833 74 136.5zM634 804.999c-0.666992 -2 -5.66602 -4.33203 -14.999 -6.99902c-15.333 -5.33301 -38 -23 -68 -53c-34.667 -35.333 -65.334 -53 -92.001 -53c-16.667 0 -27.667 6.33301 -33 19c-4 19.333 -8.33301 38.333 -13 57
c-7.33301 28.667 -17.333 44 -30 46c-14.667 2.66699 -35.167 -4.83301 -61.5 -22.5s-45.666 -36.834 -57.999 -57.501s-21.833 -31 -28.5 -31c-14.667 0 -22 7 -22 21c0 8.66699 4 19.667 12 33c13.333 22 34.333 44.333 63 67c36.667 30 71 45 103 45
c16 0 30.667 -10.667 44 -32c12 -18.667 20.667 -42.334 26 -71.001c2.66699 -10.667 7.66699 -16 15 -16c11.333 0 29.666 13.333 54.999 40c37.333 38.667 63 57.334 77 56.001c18.667 -2 28 -11.333 28 -28c0 -4 -0.666992 -8.33301 -2 -13z" />
    <glyph glyph-name="Odieresis" unicode="&#xd6;" horiz-adv-x="696" 
d="M702 389c-2.66699 -45.333 -31.833 -99.5 -87.5 -162.5s-121.167 -116.167 -196.5 -159.5c-82 -48 -156 -72 -222 -72c-31.333 0 -59.333 5.66699 -84 17c-64.667 30 -97 87 -97 171c0 98 37 200.833 111 308.5s146 162.167 216 163.5
c48 1.33301 81.333 -9.66699 100 -33c179.333 -34 266 -111.667 260 -233zM643.001 391c2.66699 80 -44.001 133.666 -140.001 160.999c-40 10.667 -88.333 16 -145 16c-2 -0.666992 -11 -7 -27 -19c-12.667 -9.33301 -23.667 -13.333 -33 -12
c-13.333 2 -22.666 6.33301 -27.999 13s-8 9.66699 -8 9c-56 -45.333 -102.333 -104.666 -139 -177.999c-34.667 -70 -52 -134.667 -52 -194c0 -57.333 17.333 -95.333 52 -114c24 -13.333 51.667 -20 83 -20c58 0 122.667 21 194 63c64.667 38 121 84.167 169 138.5
s72.667 99.833 74 136.5zM555 851.999c-0.666992 -4.66699 -3.99902 -12.668 -9.99902 -24.001c-16 -32.667 -25.333 -59.334 -28 -80.001c-0.666992 -5.33301 -3.33398 -12.666 -8.00098 -21.999c-6.66699 -6 -13 -9 -19 -9c-12 0 -18 11.333 -18 34
c0 21.333 5.66699 44 17 68c4 8.66699 7.66699 18 11 28l8 25c4.66699 8.66699 11.667 13 21 13c8 0 14.5 -3.16699 19.5 -9.5s7.16699 -14.166 6.5 -23.499zM404.001 855.998c-0.666992 -2 -3.66699 -10.335 -9 -25.002c-6 -17.333 -9 -39.666 -9 -66.999
c-0.666992 -12.667 -2.66699 -21.667 -6 -27c-5.33301 -6.66699 -14 -9 -26 -7c-9.33301 2 -14 15.667 -14 41c0 14 1.33301 30.333 4 49c2 12.667 5.66699 31.334 11 56.001c5.33301 13.333 12.333 20 21 20c4 0 8.33301 -1 13 -3c14.667 -8 19.667 -20.333 15 -37z" />
    <glyph glyph-name="multiply" unicode="&#xd7;" horiz-adv-x="636" 
d="M485 6c1.33301 -4.66699 -2.33301 -8.49902 -11 -11.499s-19 -3.83301 -31 -2.5c-21.333 2.66699 -34.666 16.667 -39.999 42c-1.33301 5.33301 -26.333 45.333 -75 120c-60.667 -82.667 -90.667 -125 -90 -127c2 -8.66699 0.333008 -17.334 -5 -26.001
c-8 -14 -23.333 -20.333 -46 -19c-18.667 0 -28 8.66699 -28 26c0 10.667 4.33301 18.334 13 23.001c6.66699 3.33301 49 59.333 127 168l-103 152c-6 8.66699 -9 15.667 -9 21c0 10.667 10 16 30 16c16 0 37.667 -20.667 65 -62l51 -80c63.333 89.333 100 135 110 137
c4 1.33301 7.66699 2 11 2c13.333 0 21.666 -8.66699 24.999 -26c0.666992 -0.666992 -38.333 -53.334 -117 -158.001l94 -148l20 -25c6.66699 -8.66699 9.66699 -16 9 -22z" />
    <glyph glyph-name="Oslash" unicode="&#xd8;" horiz-adv-x="696" 
d="M702 389c-2.66699 -45.333 -31.8311 -99.498 -87.498 -162.498s-121.167 -116.167 -196.5 -159.5c-82 -48 -156 -72 -222 -72c-18 0 -34.667 1.66699 -50 5c-8.66699 -19.333 -12.5 -33.833 -11.5 -43.5s-3 -19.834 -12 -30.501s-18.5 -16 -28.5 -16
c-8.66699 0 -15.834 4.66699 -21.501 14s-8.5 18.666 -8.5 27.999c0 8.66699 9.66699 32 29 70c-52 32 -78 85.667 -78 161c0 98 37 200.833 111 308.5s146 162.167 216 163.5c48 1.33301 81.333 -9.66699 100 -33c18.667 -3.33301 36 -7.33301 52 -12l29 36
c23.333 28 42.333 42 57 42c10.667 0 19 -7 25 -21c3.33301 -7.33301 -12.667 -33 -48 -77c101.333 -41.333 149.666 -108.333 144.999 -201zM643.003 391.002c2.66699 74.667 -37.999 126.333 -121.999 155c-50 -62 -94.333 -120 -133 -174l-95 -133
c-52.667 -75.333 -92.334 -136.333 -119.001 -183c10.667 -2 21.334 -3 32.001 -3c58 0 122.667 21 194 63c64 38 120.167 84.167 168.5 138.5s73.166 99.833 74.499 136.5zM457.004 562.001c-34 5.33301 -67.001 7.33203 -99.001 5.99902c-2 -0.666992 -11 -7 -27 -19
c-12.667 -9.33301 -23.667 -13.333 -33 -12c-13.333 2 -22.666 6.33301 -27.999 13s-8 9.66699 -8 9c-56 -45.333 -102.333 -104.666 -139 -177.999c-34.667 -70 -52 -134.667 -52 -194c0 -56 16.333 -93.667 49 -113c13.333 22.667 33.666 54.667 60.999 96
c78.667 119.333 138.334 206.333 179.001 261z" />
    <glyph glyph-name="Ugrave" unicode="&#xd9;" horiz-adv-x="660" 
d="M677 625c-18 -138 -62.0029 -268.998 -132.003 -392.998c-91.333 -160.667 -198 -240 -320 -238c-46.667 0.666992 -87.667 43.334 -123 128.001c-33.333 79.333 -50.666 166.666 -51.999 261.999c-1.33301 98 -0.666016 171.333 2.00098 220
c1.33301 35.333 17.333 51.666 48 48.999c11.333 -1.33301 18.5 -4.83301 21.5 -10.5s3.83301 -19.167 2.5 -40.5c-3.33301 -40.667 -7.33301 -129 -12 -265c-0.666992 -64.667 13 -128.334 41 -191.001c30 -68 62.667 -100.333 98 -97c74.667 8 142.334 54.333 203.001 139
c47.333 64.667 87.333 147 120 247c25.333 78 39 137.667 41 179c0 4 -0.666992 12.5 -2 25.5s-2 22.833 -2 29.5c0 26 8.66699 39.333 26 40c31.333 0.666992 47 -10.666 47 -33.999c0 3.33301 -2.33301 -13.334 -7 -50.001zM515.997 695.002
c0 -14.667 -6.33203 -22.002 -18.999 -22.002c-3.33301 0 -7.33301 0.666992 -12 2c-16 5.33301 -55.333 35.333 -118 90c-64.667 56 -107.667 99 -129 129c-3.33301 4.66699 -5 10.667 -5 18c0 13.333 7.66699 20 23 20c5.33301 0 11.666 -1 18.999 -3
c4.66699 -1.33301 15 -11.333 31 -30c26 -29.333 52.333 -56.666 79 -81.999l43 -42c19.333 -18.667 35 -31 47 -37l15 -1c6.66699 0 12.667 -4.66699 18 -14s8 -18.666 8 -27.999z" />
    <glyph glyph-name="Uacute" unicode="&#xda;" horiz-adv-x="660" 
d="M677 625c-18 -138 -62.0029 -268.998 -132.003 -392.998c-91.333 -160.667 -198 -240 -320 -238c-46.667 0.666992 -87.667 43.334 -123 128.001c-33.333 79.333 -50.666 166.666 -51.999 261.999c-1.33301 98 -0.666016 171.333 2.00098 220
c1.33301 35.333 17.333 51.666 48 48.999c11.333 -1.33301 18.5 -4.83301 21.5 -10.5s3.83301 -19.167 2.5 -40.5c-3.33301 -40.667 -7.33301 -129 -12 -265c-0.666992 -64.667 13 -128.334 41 -191.001c30 -68 62.667 -100.333 98 -97c74.667 8 142.334 54.333 203.001 139
c47.333 64.667 87.333 147 120 247c25.333 78 39 137.667 41 179c0 4 -0.666992 12.5 -2 25.5s-2 22.833 -2 29.5c0 26 8.66699 39.333 26 40c31.333 0.666992 47 -10.666 47 -33.999c0 3.33301 -2.33301 -13.334 -7 -50.001zM533.997 980.002
c-0.666992 -4.66699 -9 -16.334 -25 -35.001c-26 -30 -49.667 -60 -71 -90c-19.333 -27.333 -41.333 -60.666 -66 -99.999c1.33301 3.33301 2 -2 2 -16c0 -6 -4 -12.333 -12 -19c-10.667 -8 -21 -12 -31 -12c-16 0 -22.333 9.33301 -19 28c2.66699 16.667 27 60.5 73 131.5
s82.333 118.833 109 143.5c5.33301 5.33301 12.333 8 21 8c16 0 22.333 -13 19 -39z" />
    <glyph glyph-name="Ucircumflex" unicode="&#xdb;" horiz-adv-x="660" 
d="M677 625c-18 -138 -62.0029 -268.998 -132.003 -392.998c-91.333 -160.667 -198 -240 -320 -238c-46.667 0.666992 -87.667 43.334 -123 128.001c-33.333 79.333 -50.666 166.666 -51.999 261.999c-1.33301 98 -0.666016 171.333 2.00098 220
c1.33301 35.333 17.333 51.666 48 48.999c11.333 -1.33301 18.5 -4.83301 21.5 -10.5s3.83301 -19.167 2.5 -40.5c-3.33301 -40.667 -7.33301 -129 -12 -265c-0.666992 -64.667 13 -128.334 41 -191.001c30 -68 62.667 -100.333 98 -97c74.667 8 142.334 54.333 203.001 139
c47.333 64.667 87.333 147 120 247c25.333 78 39 137.667 41 179c0 4 -0.666992 12.5 -2 25.5s-2 22.833 -2 29.5c0 26 8.66699 39.333 26 40c31.333 0.666992 47 -10.666 47 -33.999c0 3.33301 -2.33301 -13.334 -7 -50.001zM495.997 787.002
c5.33301 -4 7.99902 -11.335 7.99902 -22.002c0 -16.667 -6.66699 -25 -20 -25c-17.333 0 -33.666 14.667 -48.999 44c-8 14.667 -15.667 29.667 -23 45c-4 0.666992 -21.5 -11.333 -52.5 -36s-47.5 -40.667 -49.5 -48c-4.66699 -15.333 -13.667 -23 -27 -23
c-6.66699 0 -12.667 4 -18 12s-8 15.667 -8 23c0 8.66699 4.33301 16.334 13 23.001c30.667 30.667 75.667 69.334 135 116.001c4 2.66699 8 5.66699 12 9c4 2 10.333 1.66699 19 -1c14.667 -4 22.667 -14 24 -30c3.33301 -40.667 15.333 -69.667 36 -87z" />
    <glyph glyph-name="Udieresis" unicode="&#xdc;" horiz-adv-x="660" 
d="M677 625c-18 -138 -62.0029 -268.998 -132.003 -392.998c-91.333 -160.667 -198 -240 -320 -238c-46.667 0.666992 -87.667 43.334 -123 128.001c-33.333 79.333 -50.666 166.666 -51.999 261.999c-1.33301 98 -0.666016 171.333 2.00098 220
c1.33301 35.333 17.333 51.666 48 48.999c11.333 -1.33301 18.5 -4.83301 21.5 -10.5s3.83301 -19.167 2.5 -40.5c-3.33301 -40.667 -7.33301 -129 -12 -265c-0.666992 -64.667 13 -128.334 41 -191.001c30 -68 62.667 -100.333 98 -97c74.667 8 142.334 54.333 203.001 139
c47.333 64.667 87.333 147 120 247c25.333 78 39 137.667 41 179c0 4 -0.666992 12.5 -2 25.5s-2 22.833 -2 29.5c0 26 8.66699 39.333 26 40c31.333 0.666992 47 -10.666 47 -33.999c0 3.33301 -2.33301 -13.334 -7 -50.001zM500.997 847.002
c-0.666992 -4.66699 -3.99902 -12.668 -9.99902 -24.001c-16 -32.667 -25.333 -59.334 -28 -80.001c-0.666992 -5.33301 -3.33398 -12.666 -8.00098 -21.999c-6.66699 -6 -13 -9 -19 -9c-12 0 -18 11.333 -18 34c0 21.333 5.66699 44 17 68c4 8.66699 7.66699 18 11 28l8 25
c4.66699 8.66699 11.667 13 21 13c8 0 14.5 -3.16699 19.5 -9.5s7.16699 -14.166 6.5 -23.499zM349.998 851.001c-0.666992 -2 -3.66699 -10.335 -9 -25.002c-6 -17.333 -9 -39.666 -9 -66.999c-0.666992 -12.667 -2.66699 -21.667 -6 -27c-5.33301 -6.66699 -14 -9 -26 -7
c-9.33301 2 -14 15.667 -14 41c0 14 1.33301 30.333 4 49c2 12.667 5.66699 31.334 11 56.001c5.33301 13.333 12.333 20 21 20c4 0 8.33301 -1 13 -3c14.667 -8 19.667 -20.333 15 -37z" />
    <glyph glyph-name="Yacute" unicode="&#xdd;" horiz-adv-x="526" 
d="M568 680c0 -6.66699 -5.99805 -14 -17.998 -22c-14 -8.66699 -21.333 -14 -22 -16c-14.667 -29.333 -104.334 -115 -269.001 -257c4 -30.667 5 -76 3 -136c-3.33301 -86 -1 -162 7 -228c0.666992 -3.33301 3.16699 -10.666 7.5 -21.999s6.5 -20 6.5 -26
c0 -10 -4.66699 -18 -14 -24c-6 -3.33301 -12.333 -5 -19 -5c-11.333 0 -20.833 4.66699 -28.5 14s-10.167 21.333 -7.5 36c1.33301 6.66699 0 26.334 -4 59.001c-5.33301 43.333 -8.66602 86.166 -9.99902 128.499s-3 89.833 -5 142.5c-7.33301 3.33301 -16 9 -26 17
c-8.66699 28 -17 56.333 -25 85c-18 54.667 -39.333 102 -64 142c-8.66699 14 -21.334 25 -38.001 33c-12 6 -18 14 -18 24c0 15.333 9 23 27 23c13.333 0 27.5 -4.33301 42.5 -13s26.5 -20 34.5 -34c16 -28 42.667 -88.333 80 -181l109 86c79.333 66 136 120.333 170 163
l19 25c9.33301 10.667 18.666 16 27.999 16c6.66699 0 14 -3.33301 22 -10s12 -13.334 12 -20.001zM443.002 856c-0.666992 -4.66699 -9 -16.334 -25 -35.001c-26 -30 -49.667 -60 -71 -90c-19.333 -27.333 -41.333 -60.666 -66 -99.999c1.33301 3.33301 2 -2 2 -16
c0 -6 -4 -12.333 -12 -19c-10.667 -8 -21 -12 -31 -12c-16 0 -22.333 9.33301 -19 28c2.66699 16.667 27 60.5 73 131.5s82.333 118.833 109 143.5c5.33301 5.33301 12.333 8 21 8c16 0 22.333 -13 19 -39z" />
    <glyph glyph-name="Thorn" unicode="&#xde;" horiz-adv-x="576" 
d="M621 582c7.33301 -10 11.001 -20.6689 11.001 -32.002c0 -50 -69.333 -114.333 -208 -193c-84 -48 -183.667 -96.333 -299 -145c-3.33301 -38 -5 -71.333 -5 -100c0 -20.667 1 -36 3 -46s3 -19 3 -27c0 -30 -11.667 -45 -35 -45c-11.333 0 -19.333 4 -24 12
s-5.66699 25.333 -3 52c0.666992 18.667 2.33398 60.334 5.00098 125.001c-4 8.66699 -6 15 -6 19c0 8 2 14.667 6 20c3.33301 40 7.66602 97.667 12.999 173c0.666992 20 1.66699 67.667 3 143c-2.66699 66.667 -4.33398 135.334 -5.00098 206.001
c7.33301 10.667 18 16 32 16c12 0 21.333 -5 28 -15c0.666992 -44.667 1.33398 -97 2.00098 -157c3.33301 -0.666992 9.66602 -1.66699 18.999 -3c2.66699 0 43 3.66699 121 11c85.333 8.66699 153.333 13 204 13c76.667 0 121.667 -9 135 -27zM560.001 538.998
c0 14 -28.001 21 -84.001 21c-38 0 -85.667 -3 -143 -9c-45.333 -5.33301 -76 -9.66602 -92 -12.999c-22 -4.66699 -53.333 -8.33398 -94 -11.001l-15 -251c82.667 33.333 153.667 65 213 95c142.667 71.333 214.334 127.333 215.001 168z" />
    <glyph glyph-name="germandbls" unicode="&#xdf;" horiz-adv-x="498" 
d="M467 150c4 -35.333 -13.6621 -76.6641 -52.9951 -123.997c-32 -38 -66 -68 -102 -90c-32.667 -20 -64.334 -36.333 -95.001 -49l-44 -18c-4.66699 -2.66699 -10.667 -4 -18 -4c-14.667 0 -24.667 5.33301 -30 16c-2.66699 5.33301 -4 10.666 -4 15.999
c0 9.33301 3.83301 17.666 11.5 24.999s15.5 11.666 23.5 12.999c20.667 2 45.334 5.66699 74.001 11c37.333 12 75.666 36.333 114.999 73c46.667 43.333 70 84.333 70 123c0 4.66699 -0.333008 9.33398 -1 14.001c-2 10.667 -21 22 -57 34c-50 15.333 -83.667 28 -101 38
c-36.667 21.333 -57 49.333 -61 84c-4.66699 42 12.333 86.667 51 134c16 18.667 51.667 52.667 107 102c38.667 34 58 56.667 58 68c0 7.33301 -9.33301 11 -28 11c-36.667 0 -89.334 -9.66699 -158.001 -29s-107.667 -36 -117 -50
c-7.33301 -19.333 -11 -71.666 -11 -156.999c0 -28 0.333008 -59 1 -93l14 -415c1.33301 -32.667 4.66602 -61 9.99902 -85c7.33301 -30 11 -46.667 11 -50c0 -6.66699 -1.5 -13.5 -4.5 -20.5s-10.833 -10.5 -23.5 -10.5c-18 0 -29.333 4.66699 -34 14
c-8 16.667 -10 43 -6 79c1.33301 12 0 71 -4 177c-4.66699 136 -7.33398 235.333 -8.00098 298c-1.33301 111.333 -1.33301 189.666 0 234.999c-14 -2 -21.333 -3 -22 -3c-7.33301 0 -16 6.66699 -26 20c-1.33301 2 -2 4.33301 -2 7c0 14 8.33301 26.333 25 37l22 13
c2 22 9.33301 35 22 39c4.66699 1.33301 9 2 13 2c10.667 0 18 -6.66699 22 -20c112.667 36 205 54 277 54c26 0 45.833 -2.33301 59.5 -7s20.5 -14 20.5 -28c0 -24.667 -15 -53 -45 -85c-18 -18 -56.333 -53.667 -115 -107
c-20.667 -18.667 -36.834 -40.334 -48.501 -65.001s-16.167 -44 -13.5 -58c4 -24.667 17.333 -43 40 -55c0.666992 -0.666992 26.667 -10.667 78 -30c42 -16.667 65.667 -26.667 71 -30c20.667 -12.667 32.667 -30.667 36 -54z" />
    <glyph glyph-name="agrave" unicode="&#xe0;" horiz-adv-x="369" 
d="M287 5c-2.66699 -3.33301 -7.66797 -4.66602 -15.001 -3.99902s-13 3.16699 -17 7.5s-7.33301 12.166 -10 23.499c-50 -33.333 -94.333 -50 -133 -50c-24.667 0 -44 7.33301 -58 22s-21 33.667 -21 57c0 34 12.333 67.5 37 100.5s53 51.833 85 56.5
c49.333 6.66699 85.666 -24.666 108.999 -93.999c10.667 27.333 16 57.666 16 90.999c0 46 -11 89 -33 129c-14.667 27.333 -37 41 -67 41c-18.667 0 -36.5 -4.83301 -53.5 -14.5s-26.167 -18.5 -27.5 -26.5c0.666992 -3.33301 -2 -5 -8 -5c-18 0 -27.667 7.66699 -29 23
c-1.33301 16.667 11.334 32.5 38.001 47.5s55 22.5 85 22.5c22.667 0 41.334 -4.66699 56.001 -14c59.333 -37.333 89 -104.333 89 -201c0 -45.333 -6.66699 -93.333 -20 -144c-10 -42 -17.667 -64.667 -23 -68zM229.999 85c-19.333 60 -40.001 87.999 -62.001 83.999
c-29.333 -5.33301 -52 -19.666 -68 -42.999c-13.333 -18.667 -20 -39 -20 -61c0 -15.333 3.33301 -25 10 -29s14.667 -6 24 -6c30.667 0 69.334 18.333 116.001 55zM354.998 473.999c0 -14.667 -6.33203 -22.002 -18.999 -22.002c-3.33301 0 -7.33301 0.666992 -12 2
c-16 5.33301 -55.333 35.333 -118 90c-64.667 56 -107.667 99 -129 129c-3.33301 4.66699 -5 10.667 -5 18c0 13.333 7.66699 20 23 20c5.33301 0 11.666 -1 18.999 -3c4.66699 -1.33301 15 -11.333 31 -30c26 -29.333 52.333 -56.666 79 -81.999l43 -42
c19.333 -18.667 35 -31 47 -37l15 -1c6.66699 0 12.667 -4.66699 18 -14s8 -18.666 8 -27.999z" />
    <glyph glyph-name="aacute" unicode="&#xe1;" horiz-adv-x="369" 
d="M287 5c-2.66699 -3.33301 -7.66797 -4.66602 -15.001 -3.99902s-13 3.16699 -17 7.5s-7.33301 12.166 -10 23.499c-50 -33.333 -94.333 -50 -133 -50c-24.667 0 -44 7.33301 -58 22s-21 33.667 -21 57c0 34 12.333 67.5 37 100.5s53 51.833 85 56.5
c49.333 6.66699 85.666 -24.666 108.999 -93.999c10.667 27.333 16 57.666 16 90.999c0 46 -11 89 -33 129c-14.667 27.333 -37 41 -67 41c-18.667 0 -36.5 -4.83301 -53.5 -14.5s-26.167 -18.5 -27.5 -26.5c0.666992 -3.33301 -2 -5 -8 -5c-18 0 -27.667 7.66699 -29 23
c-1.33301 16.667 11.334 32.5 38.001 47.5s55 22.5 85 22.5c22.667 0 41.334 -4.66699 56.001 -14c59.333 -37.333 89 -104.333 89 -201c0 -45.333 -6.66699 -93.333 -20 -144c-10 -42 -17.667 -64.667 -23 -68zM229.999 85c-19.333 60 -40.001 87.999 -62.001 83.999
c-29.333 -5.33301 -52 -19.666 -68 -42.999c-13.333 -18.667 -20 -39 -20 -61c0 -15.333 3.33301 -25 10 -29s14.667 -6 24 -6c30.667 0 69.334 18.333 116.001 55zM384.998 734.999c-0.666992 -4.66699 -9 -16.334 -25 -35.001c-26 -30 -49.667 -60 -71 -90
c-19.333 -27.333 -41.333 -60.666 -66 -99.999c1.33301 3.33301 2 -2 2 -16c0 -6 -4 -12.333 -12 -19c-10.667 -8 -21 -12 -31 -12c-16 0 -22.333 9.33301 -19 28c2.66699 16.667 27 60.5 73 131.5s82.333 118.833 109 143.5c5.33301 5.33301 12.333 8 21 8
c16 0 22.333 -13 19 -39z" />
    <glyph glyph-name="acircumflex" unicode="&#xe2;" horiz-adv-x="369" 
d="M287 5c-2.66699 -3.33301 -7.66797 -4.66602 -15.001 -3.99902s-13 3.16699 -17 7.5s-7.33301 12.166 -10 23.499c-50 -33.333 -94.333 -50 -133 -50c-24.667 0 -44 7.33301 -58 22s-21 33.667 -21 57c0 34 12.333 67.5 37 100.5s53 51.833 85 56.5
c49.333 6.66699 85.666 -24.666 108.999 -93.999c10.667 27.333 16 57.666 16 90.999c0 46 -11 89 -33 129c-14.667 27.333 -37 41 -67 41c-18.667 0 -36.5 -4.83301 -53.5 -14.5s-26.167 -18.5 -27.5 -26.5c0.666992 -3.33301 -2 -5 -8 -5c-18 0 -27.667 7.66699 -29 23
c-1.33301 16.667 11.334 32.5 38.001 47.5s55 22.5 85 22.5c22.667 0 41.334 -4.66699 56.001 -14c59.333 -37.333 89 -104.333 89 -201c0 -45.333 -6.66699 -93.333 -20 -144c-10 -42 -17.667 -64.667 -23 -68zM229.999 85c-19.333 60 -40.001 87.999 -62.001 83.999
c-29.333 -5.33301 -52 -19.666 -68 -42.999c-13.333 -18.667 -20 -39 -20 -61c0 -15.333 3.33301 -25 10 -29s14.667 -6 24 -6c30.667 0 69.334 18.333 116.001 55zM336.998 571.999c5.33301 -4 7.99902 -11.335 7.99902 -22.002c0 -16.667 -6.66699 -25 -20 -25
c-17.333 0 -33.666 14.667 -48.999 44c-8 14.667 -15.667 29.667 -23 45c-4 0.666992 -21.5 -11.333 -52.5 -36s-47.5 -40.667 -49.5 -48c-4.66699 -15.333 -13.667 -23 -27 -23c-6.66699 0 -12.667 4 -18 12s-8 15.667 -8 23c0 8.66699 4.33301 16.334 13 23.001
c30.667 30.667 75.667 69.334 135 116.001c4 2.66699 8 5.66699 12 9c4 2 10.333 1.66699 19 -1c14.667 -4 22.667 -14 24 -30c3.33301 -40.667 15.333 -69.667 36 -87z" />
    <glyph glyph-name="atilde" unicode="&#xe3;" horiz-adv-x="369" 
d="M444 611c-0.666992 -2 -5.66602 -4.33203 -14.999 -6.99902c-15.333 -5.33301 -38 -23 -68 -53c-34.667 -35.333 -65.334 -53 -92.001 -53c-16.667 0 -27.667 6.33301 -33 19c-4 19.333 -8.33301 38.333 -13 57c-7.33301 28.667 -17.333 44 -30 46
c-14.667 2.66699 -35.167 -4.83301 -61.5 -22.5s-45.666 -36.834 -57.999 -57.501s-21.833 -31 -28.5 -31c-14.667 0 -22 7 -22 21c0 8.66699 4 19.667 12 33c13.333 22 34.333 44.333 63 67c36.667 30 71 45 103 45c16 0 30.667 -10.667 44 -32
c12 -18.667 20.667 -42.334 26 -71.001c2.66699 -10.667 7.66699 -16 15 -16c11.333 0 29.666 13.333 54.999 40c37.333 38.667 63 57.334 77 56.001c18.667 -2 28 -11.333 28 -28c0 -4 -0.666992 -8.33301 -2 -13zM287.001 5.00098
c-2.66699 -3.33301 -7.66797 -4.66602 -15.001 -3.99902s-13 3.16699 -17 7.5s-7.33301 12.166 -10 23.499c-50 -33.333 -94.333 -50 -133 -50c-24.667 0 -44 7.33301 -58 22s-21 33.667 -21 57c0 34 12.333 67.5 37 100.5s53 51.833 85 56.5
c49.333 6.66699 85.666 -24.666 108.999 -93.999c10.667 27.333 16 57.666 16 90.999c0 46 -11 89 -33 129c-14.667 27.333 -37 41 -67 41c-18.667 0 -36.5 -4.83301 -53.5 -14.5s-26.167 -18.5 -27.5 -26.5c0.666992 -3.33301 -2 -5 -8 -5c-18 0 -27.667 7.66699 -29 23
c-1.33301 16.667 11.334 32.5 38.001 47.5s55 22.5 85 22.5c22.667 0 41.334 -4.66699 56.001 -14c59.333 -37.333 89 -104.333 89 -201c0 -45.333 -6.66699 -93.333 -20 -144c-10 -42 -17.667 -64.667 -23 -68zM230 85.001c-19.333 60 -40.001 87.999 -62.001 83.999
c-29.333 -5.33301 -52 -19.666 -68 -42.999c-13.333 -18.667 -20 -39 -20 -61c0 -15.333 3.33301 -25 10 -29s14.667 -6 24 -6c30.667 0 69.334 18.333 116.001 55z" />
    <glyph glyph-name="adieresis" unicode="&#xe4;" horiz-adv-x="369" 
d="M287 5c-2.66699 -3.33301 -7.66797 -4.66602 -15.001 -3.99902s-13 3.16699 -17 7.5s-7.33301 12.166 -10 23.499c-50 -33.333 -94.333 -50 -133 -50c-24.667 0 -44 7.33301 -58 22s-21 33.667 -21 57c0 34 12.333 67.5 37 100.5s53 51.833 85 56.5
c49.333 6.66699 85.666 -24.666 108.999 -93.999c10.667 27.333 16 57.666 16 90.999c0 46 -11 89 -33 129c-14.667 27.333 -37 41 -67 41c-18.667 0 -36.5 -4.83301 -53.5 -14.5s-26.167 -18.5 -27.5 -26.5c0.666992 -3.33301 -2 -5 -8 -5c-18 0 -27.667 7.66699 -29 23
c-1.33301 16.667 11.334 32.5 38.001 47.5s55 22.5 85 22.5c22.667 0 41.334 -4.66699 56.001 -14c59.333 -37.333 89 -104.333 89 -201c0 -45.333 -6.66699 -93.333 -20 -144c-10 -42 -17.667 -64.667 -23 -68zM229.999 85c-19.333 60 -40.001 87.999 -62.001 83.999
c-29.333 -5.33301 -52 -19.666 -68 -42.999c-13.333 -18.667 -20 -39 -20 -61c0 -15.333 3.33301 -25 10 -29s14.667 -6 24 -6c30.667 0 69.334 18.333 116.001 55zM338.998 620.999c-0.666992 -4.66699 -3.99902 -12.668 -9.99902 -24.001
c-16 -32.667 -25.333 -59.334 -28 -80.001c-0.666992 -5.33301 -3.33398 -12.666 -8.00098 -21.999c-6.66699 -6 -13 -9 -19 -9c-12 0 -18 11.333 -18 34c0 21.333 5.66699 44 17 68c4 8.66699 7.66699 18 11 28l8 25c4.66699 8.66699 11.667 13 21 13
c8 0 14.5 -3.16699 19.5 -9.5s7.16699 -14.166 6.5 -23.499zM187.999 624.998c-0.666992 -2 -3.66699 -10.335 -9 -25.002c-6 -17.333 -9 -39.666 -9 -66.999c-0.666992 -12.667 -2.66699 -21.667 -6 -27c-5.33301 -6.66699 -14 -9 -26 -7c-9.33301 2 -14 15.667 -14 41
c0 14 1.33301 30.333 4 49c2 12.667 5.66699 31.334 11 56.001c5.33301 13.333 12.333 20 21 20c4 0 8.33301 -1 13 -3c14.667 -8 19.667 -20.333 15 -37z" />
    <glyph glyph-name="aring" unicode="&#xe5;" horiz-adv-x="369" 
d="M287 5c-2.66699 -3.33301 -7.66797 -4.66602 -15.001 -3.99902s-13 3.16699 -17 7.5s-7.33301 12.166 -10 23.499c-50 -33.333 -94.333 -50 -133 -50c-24.667 0 -44 7.33301 -58 22s-21 33.667 -21 57c0 34 12.333 67.5 37 100.5s53 51.833 85 56.5
c49.333 6.66699 85.666 -24.666 108.999 -93.999c10.667 27.333 16 57.666 16 90.999c0 46 -11 89 -33 129c-14.667 27.333 -37 41 -67 41c-18.667 0 -36.5 -4.83301 -53.5 -14.5s-26.167 -18.5 -27.5 -26.5c0.666992 -3.33301 -2 -5 -8 -5c-18 0 -27.667 7.66699 -29 23
c-1.33301 16.667 11.334 32.5 38.001 47.5s55 22.5 85 22.5c22.667 0 41.334 -4.66699 56.001 -14c59.333 -37.333 89 -104.333 89 -201c0 -45.333 -6.66699 -93.333 -20 -144c-10 -42 -17.667 -64.667 -23 -68zM229.999 85c-19.333 60 -40.001 87.999 -62.001 83.999
c-29.333 -5.33301 -52 -19.666 -68 -42.999c-13.333 -18.667 -20 -39 -20 -61c0 -15.333 3.33301 -25 10 -29s14.667 -6 24 -6c30.667 0 69.334 18.333 116.001 55zM319.998 658.999c8.66699 -6.66699 13 -17.332 13 -31.999c0 -21.333 -10.667 -44 -32 -68
c-34.667 -39.333 -67 -59 -97 -59c-7.33301 0 -15.333 1.33301 -24 4c-20.667 5.33301 -31 22.333 -31 51c0 19.333 4.83301 39.666 14.5 60.999s22 37.333 37 48s33.167 16 54.5 16c26 0 47.667 -7 65 -21zM260.998 636.001c-19.333 0 -35 -6.00098 -47 -18.001
c-4 -4 -8.33301 -12.333 -13 -25s-7 -23.667 -7 -33c0 -14 6 -20 18 -18c12 2.66699 28.167 13.334 48.5 32.001s30.5 34 30.5 46c0 10.667 -10 16 -30 16z" />
    <glyph glyph-name="ae" unicode="&#xe6;" horiz-adv-x="747" 
d="M738 219c10 -7.33301 14.9971 -16.334 14.9971 -27.001c0 -14.667 -7.66699 -27.334 -23 -38.001l-113 -84c-74.667 -50 -135.667 -75 -183 -75c-48 0 -88.667 27.333 -122 82c-11.333 -44.667 -19.666 -68.667 -24.999 -72
c-2.66699 -3.33301 -7.66699 -4.66602 -15 -3.99902s-13 3.16699 -17 7.5s-7.33301 12.166 -10 23.499c-50 -33.333 -94.333 -50 -133 -50c-24.667 0 -44 7.33301 -58 22s-21 33.667 -21 57c0 34 12.333 67.5 37 100.5s53 51.833 85 56.5
c49.333 6.66699 85.666 -24.666 108.999 -93.999c10.667 27.333 16 57.666 16 90.999c0 46 -11 89 -33 129c-14.667 27.333 -37 41 -67 41c-18.667 0 -36.5 -4.83301 -53.5 -14.5s-26.167 -18.5 -27.5 -26.5c0.666992 -3.33301 -2 -5 -8 -5c-18 0 -27.667 7.66699 -29 23
c-1.33301 16.667 11.334 32.5 38.001 47.5s55 22.5 85 22.5c33.333 0 63 -13.667 89 -41c22 -23.333 37.667 -53.666 47 -90.999c26 34 60.167 61.333 102.5 82s84.166 31 125.499 31c36.667 0 67.334 -8.66699 92.001 -26c1.33301 -0.666992 2 -1.66699 2 -3
c0 -7.33301 -15.5 -22.666 -46.5 -45.999s-64.167 -45 -99.5 -65c-21.333 -12 -72.666 -31 -153.999 -57c-3.33301 -9.33301 -5 -20.666 -5 -33.999c0 -28 8.66699 -55.667 26 -83c23.333 -36.667 51.333 -54.334 84 -53.001c34 1.33301 83 23.333 147 66
c52.667 36 84 61 94 75c14 24.667 25.667 37 35 37c4.66699 0 9.33398 -1.66699 14.001 -5zM553.997 366.999c-10 0 -20.665 -0.998047 -31.998 -2.99805c-26 -4.66699 -51.333 -13.334 -76 -26.001s-51 -34.334 -79 -65.001c15.333 3.33301 29.666 7.33301 42.999 12
c32 10 55.667 20 71 30s39.666 27.333 72.999 52zM229.999 85.001c-19.333 60 -40.001 87.999 -62.001 83.999c-29.333 -5.33301 -52 -19.666 -68 -42.999c-13.333 -18.667 -20 -39 -20 -61c0 -15.333 3.33301 -25 10 -29s14.667 -6 24 -6
c30.667 0 69.334 18.333 116.001 55z" />
    <glyph glyph-name="ccedilla" unicode="&#xe7;" horiz-adv-x="510" 
d="M547 183c-0.666992 -6 -30.999 -27.001 -90.999 -63.001c-69.333 -42 -134.333 -73.667 -195 -95c-4.66699 -32.667 -1.33398 -56 9.99902 -70l30 -34c10 -13.333 15 -27 15 -41c0 -8 -1.33301 -16.667 -4 -26c-8 -24.667 -26 -50.667 -54 -78
c-26 -24.667 -49.833 -41.5 -71.5 -50.5s-34.5 -13.5 -38.5 -13.5c-16.667 0 -25 8.33301 -25 25c0 5.33301 2.16699 11.166 6.5 17.499s9.16602 9.5 14.499 9.5c1.33301 0 3.33301 -0.333008 6 -1h7c14 0 32 9 54 27c37.333 30.667 56 58.667 56 84
c0 10.667 -3.66699 19.334 -11 26.001c-32 28 -48.667 57 -50 87c0 4.66699 -1 12 -3 22c-25.333 -6 -48.333 -9 -69 -9c-48 0 -83.333 14.667 -106 44c-12.667 16 -19 35.667 -19 59c0 56 28.667 119.333 86 190c56 68.667 106.667 106.334 152 113.001
c6 0.666992 11.667 1 17 1c22.667 0 34 -8 34 -24c0 -9.33301 -4.33301 -19.666 -13 -30.999s-17.667 -17 -27 -17c-3.33301 0 -8.66602 0.833008 -15.999 2.5s-13 2.5 -17 2.5c-2.66699 0 -5.33398 -0.333008 -8.00098 -1
c-17.333 -4.66699 -45.666 -32.334 -84.999 -83.001c-45.333 -58 -68 -106 -68 -144c0 -24 10 -42.333 30 -55c12 -7.33301 27.667 -11 47 -11c52.667 0 129.667 26.333 231 79l145 82c2.66699 1.33301 5.66699 2 9 2c6.66699 0 12.167 -2.83301 16.5 -8.5
s5.83301 -11.5 4.5 -17.5z" />
    <glyph glyph-name="egrave" unicode="&#xe8;" horiz-adv-x="486" 
d="M477 219c10 -7.33301 15 -16.334 15 -27.001c0 -14.667 -7.66699 -27.334 -23 -38.001l-114 -84c-74.667 -50 -135.334 -75 -182.001 -75c-42.667 0 -80 21.667 -112 65c-28.667 40.667 -43 83 -43 127c0 61.333 29.333 115 88 161c54.667 43.333 113.334 65 176.001 65
c34 0 62.667 -7.66699 86 -23c2.66699 -1.33301 4 -3.66602 4 -6.99902c0 -11.333 -16.667 -30.666 -50 -57.999c-28 -23.333 -58.667 -45 -92 -65c-44.667 -27.333 -95 -42.666 -151 -45.999c-2 -8 -3 -17.667 -3 -29c0 -29.333 9 -58 27 -86
c23.333 -36.667 51.333 -54.334 84 -53.001c33.333 1.33301 82 23.333 146 66c53.333 36 85 61 95 75c14 24.667 25.333 37 34 37c4.66699 0 9.66699 -1.66699 15 -5zM295 364.999c-36.667 0 -73.333 -9.33105 -110 -27.998c-32 -16 -59.333 -38.333 -82 -67
c12 0.666992 24 2.66699 36 6c28.667 7.33301 56.5 19.166 83.5 35.499s51.167 34.166 72.5 53.499zM405.001 474.001c0 -14.667 -6.33203 -22.002 -18.999 -22.002c-3.33301 0 -7.33301 0.666992 -12 2c-16 5.33301 -55.333 35.333 -118 90
c-64.667 56 -107.667 99 -129 129c-3.33301 4.66699 -5 10.667 -5 18c0 13.333 7.66699 20 23 20c5.33301 0 11.666 -1 18.999 -3c4.66699 -1.33301 15 -11.333 31 -30c26 -29.333 52.333 -56.666 79 -81.999l43 -42c19.333 -18.667 35 -31 47 -37l15 -1
c6.66699 0 12.667 -4.66699 18 -14s8 -18.666 8 -27.999z" />
    <glyph glyph-name="eacute" unicode="&#xe9;" horiz-adv-x="486" 
d="M477 219c10 -7.33301 15 -16.334 15 -27.001c0 -14.667 -7.66699 -27.334 -23 -38.001l-114 -84c-74.667 -50 -135.334 -75 -182.001 -75c-42.667 0 -80 21.667 -112 65c-28.667 40.667 -43 83 -43 127c0 61.333 29.333 115 88 161c54.667 43.333 113.334 65 176.001 65
c34 0 62.667 -7.66699 86 -23c2.66699 -1.33301 4 -3.66602 4 -6.99902c0 -11.333 -16.667 -30.666 -50 -57.999c-28 -23.333 -58.667 -45 -92 -65c-44.667 -27.333 -95 -42.666 -151 -45.999c-2 -8 -3 -17.667 -3 -29c0 -29.333 9 -58 27 -86
c23.333 -36.667 51.333 -54.334 84 -53.001c33.333 1.33301 82 23.333 146 66c53.333 36 85 61 95 75c14 24.667 25.333 37 34 37c4.66699 0 9.66699 -1.66699 15 -5zM295 364.999c-36.667 0 -73.333 -9.33105 -110 -27.998c-32 -16 -59.333 -38.333 -82 -67
c12 0.666992 24 2.66699 36 6c28.667 7.33301 56.5 19.166 83.5 35.499s51.167 34.166 72.5 53.499zM385.001 695.001c-0.666992 -4.66699 -9 -16.334 -25 -35.001c-26 -30 -49.667 -60 -71 -90c-19.333 -27.333 -41.333 -60.666 -66 -99.999c1.33301 3.33301 2 -2 2 -16
c0 -6 -4 -12.333 -12 -19c-10.667 -8 -21 -12 -31 -12c-16 0 -22.333 9.33301 -19 28c2.66699 16.667 27 60.5 73 131.5s82.333 118.833 109 143.5c5.33301 5.33301 12.333 8 21 8c16 0 22.333 -13 19 -39z" />
    <glyph glyph-name="ecircumflex" unicode="&#xea;" horiz-adv-x="486" 
d="M477 219c10 -7.33301 15 -16.334 15 -27.001c0 -14.667 -7.66699 -27.334 -23 -38.001l-114 -84c-74.667 -50 -135.334 -75 -182.001 -75c-42.667 0 -80 21.667 -112 65c-28.667 40.667 -43 83 -43 127c0 61.333 29.333 115 88 161c54.667 43.333 113.334 65 176.001 65
c34 0 62.667 -7.66699 86 -23c2.66699 -1.33301 4 -3.66602 4 -6.99902c0 -11.333 -16.667 -30.666 -50 -57.999c-28 -23.333 -58.667 -45 -92 -65c-44.667 -27.333 -95 -42.666 -151 -45.999c-2 -8 -3 -17.667 -3 -29c0 -29.333 9 -58 27 -86
c23.333 -36.667 51.333 -54.334 84 -53.001c33.333 1.33301 82 23.333 146 66c53.333 36 85 61 95 75c14 24.667 25.333 37 34 37c4.66699 0 9.66699 -1.66699 15 -5zM295 364.999c-36.667 0 -73.333 -9.33105 -110 -27.998c-32 -16 -59.333 -38.333 -82 -67
c12 0.666992 24 2.66699 36 6c28.667 7.33301 56.5 19.166 83.5 35.499s51.167 34.166 72.5 53.499zM397.001 572.001c5.33301 -4 7.99902 -11.335 7.99902 -22.002c0 -16.667 -6.66699 -25 -20 -25c-17.333 0 -33.666 14.667 -48.999 44c-8 14.667 -15.667 29.667 -23 45
c-4 0.666992 -21.5 -11.333 -52.5 -36s-47.5 -40.667 -49.5 -48c-4.66699 -15.333 -13.667 -23 -27 -23c-6.66699 0 -12.667 4 -18 12s-8 15.667 -8 23c0 8.66699 4.33301 16.334 13 23.001c30.667 30.667 75.667 69.334 135 116.001c4 2.66699 8 5.66699 12 9
c4 2 10.333 1.66699 19 -1c14.667 -4 22.667 -14 24 -30c3.33301 -40.667 15.333 -69.667 36 -87z" />
    <glyph glyph-name="edieresis" unicode="&#xeb;" horiz-adv-x="486" 
d="M477 219c10 -7.33301 15 -16.334 15 -27.001c0 -14.667 -7.66699 -27.334 -23 -38.001l-114 -84c-74.667 -50 -135.334 -75 -182.001 -75c-42.667 0 -80 21.667 -112 65c-28.667 40.667 -43 83 -43 127c0 61.333 29.333 115 88 161c54.667 43.333 113.334 65 176.001 65
c34 0 62.667 -7.66699 86 -23c2.66699 -1.33301 4 -3.66602 4 -6.99902c0 -11.333 -16.667 -30.666 -50 -57.999c-28 -23.333 -58.667 -45 -92 -65c-44.667 -27.333 -95 -42.666 -151 -45.999c-2 -8 -3 -17.667 -3 -29c0 -29.333 9 -58 27 -86
c23.333 -36.667 51.333 -54.334 84 -53.001c33.333 1.33301 82 23.333 146 66c53.333 36 85 61 95 75c14 24.667 25.333 37 34 37c4.66699 0 9.66699 -1.66699 15 -5zM295 364.999c-36.667 0 -73.333 -9.33105 -110 -27.998c-32 -16 -59.333 -38.333 -82 -67
c12 0.666992 24 2.66699 36 6c28.667 7.33301 56.5 19.166 83.5 35.499s51.167 34.166 72.5 53.499zM399.001 621.001c-0.666992 -4.66699 -3.99902 -12.668 -9.99902 -24.001c-16 -32.667 -25.333 -59.334 -28 -80.001
c-0.666992 -5.33301 -3.33398 -12.666 -8.00098 -21.999c-6.66699 -6 -13 -9 -19 -9c-12 0 -18 11.333 -18 34c0 21.333 5.66699 44 17 68c4 8.66699 7.66699 18 11 28l8 25c4.66699 8.66699 11.667 13 21 13c8 0 14.5 -3.16699 19.5 -9.5s7.16699 -14.166 6.5 -23.499z
M248.002 625c-0.666992 -2 -3.66699 -10.335 -9 -25.002c-6 -17.333 -9 -39.666 -9 -66.999c-0.666992 -12.667 -2.66699 -21.667 -6 -27c-5.33301 -6.66699 -14 -9 -26 -7c-9.33301 2 -14 15.667 -14 41c0 14 1.33301 30.333 4 49c2 12.667 5.66699 31.334 11 56.001
c5.33301 13.333 12.333 20 21 20c4 0 8.33301 -1 13 -3c14.667 -8 19.667 -20.333 15 -37z" />
    <glyph glyph-name="igrave" unicode="&#xec;" horiz-adv-x="234" 
d="M290 474c0 -14.667 -6.33203 -22.002 -18.999 -22.002c-3.33301 0 -7.33301 0.666992 -12 2c-16 5.33301 -55.333 35.333 -118 90c-64.667 56 -107.667 99 -129 129c-3.33301 4.66699 -5 10.667 -5 18c0 13.333 7.66699 20 23 20c5.33301 0 11.666 -1 18.999 -3
c4.66699 -1.33301 15 -11.333 31 -30c26 -29.333 52.333 -56.666 79 -81.999l43 -42c19.333 -18.667 35 -31 47 -37l15 -1c6.66699 0 12.667 -4.66699 18 -14s8 -18.666 8 -27.999zM154.001 364.998c-14 -128.667 -22.0029 -209.671 -24.0029 -243.004
c-1.33301 -25.333 0.333984 -45.166 5.00098 -59.499s7 -22.5 7 -24.5c0 -4.66699 -1 -10.667 -3 -18c-2.66699 -10 -10.667 -15 -24 -15c-8 0 -16 3.16699 -24 9.5s-12 27.833 -12 64.5c0 2 3.33301 74 10 216c2.66699 46.667 4.33398 72.334 5.00098 77.001
c4 24 13 36.333 27 37c10 0.666992 18.333 -3.16602 25 -11.499s9.33398 -19.166 8.00098 -32.499z" />
    <glyph glyph-name="iacute" unicode="&#xed;" horiz-adv-x="234" 
d="M266 695c-0.666992 -4.66699 -9 -16.334 -25 -35.001c-26 -30 -49.667 -60 -71 -90c-19.333 -27.333 -41.333 -60.666 -66 -99.999c1.33301 3.33301 2 -2 2 -16c0 -6 -4 -12.333 -12 -19c-10.667 -8 -21 -12 -31 -12c-16 0 -22.333 9.33301 -19 28
c2.66699 16.667 27 60.5 73 131.5s82.333 118.833 109 143.5c5.33301 5.33301 12.333 8 21 8c16 0 22.333 -13 19 -39zM154 365c-14 -128.667 -22.0029 -209.671 -24.0029 -243.004c-1.33301 -25.333 0.333984 -45.166 5.00098 -59.499s7 -22.5 7 -24.5
c0 -4.66699 -1 -10.667 -3 -18c-2.66699 -10 -10.667 -15 -24 -15c-8 0 -16 3.16699 -24 9.5s-12 27.833 -12 64.5c0 2 3.33301 74 10 216c2.66699 46.667 4.33398 72.334 5.00098 77.001c4 24 13 36.333 27 37c10 0.666992 18.333 -3.16602 25 -11.499
s9.33398 -19.166 8.00098 -32.499z" />
    <glyph glyph-name="icircumflex" unicode="&#xee;" horiz-adv-x="234" 
d="M252 572c5.33301 -4 7.99902 -11.335 7.99902 -22.002c0 -16.667 -6.66699 -25 -20 -25c-17.333 0 -33.666 14.667 -48.999 44c-8 14.667 -15.667 29.667 -23 45c-4 0.666992 -21.5 -11.333 -52.5 -36s-47.5 -40.667 -49.5 -48c-4.66699 -15.333 -13.667 -23 -27 -23
c-6.66699 0 -12.667 4 -18 12s-8 15.667 -8 23c0 8.66699 4.33301 16.334 13 23.001c30.667 30.667 75.667 69.334 135 116.001c4 2.66699 8 5.66699 12 9c4 2 10.333 1.66699 19 -1c14.667 -4 22.667 -14 24 -30c3.33301 -40.667 15.333 -69.667 36 -87zM153.999 364.998
c-14 -128.667 -22.0029 -209.671 -24.0029 -243.004c-1.33301 -25.333 0.333984 -45.166 5.00098 -59.499s7 -22.5 7 -24.5c0 -4.66699 -1 -10.667 -3 -18c-2.66699 -10 -10.667 -15 -24 -15c-8 0 -16 3.16699 -24 9.5s-12 27.833 -12 64.5c0 2 3.33301 74 10 216
c2.66699 46.667 4.33398 72.334 5.00098 77.001c4 24 13 36.333 27 37c10 0.666992 18.333 -3.16602 25 -11.499s9.33398 -19.166 8.00098 -32.499z" />
    <glyph glyph-name="idieresis" unicode="&#xef;" horiz-adv-x="234" 
d="M269 631c-0.666992 -4.66699 -3.99902 -12.668 -9.99902 -24.001c-16 -32.667 -25.333 -59.334 -28 -80.001c-0.666992 -5.33301 -3.33398 -12.666 -8.00098 -21.999c-6.66699 -6 -13 -9 -19 -9c-12 0 -18 11.333 -18 34c0 21.333 5.66699 44 17 68
c4 8.66699 7.66699 18 11 28l8 25c4.66699 8.66699 11.667 13 21 13c8 0 14.5 -3.16699 19.5 -9.5s7.16699 -14.166 6.5 -23.499zM118.001 634.999c-0.666992 -2 -3.66699 -10.335 -9 -25.002c-6 -17.333 -9 -39.666 -9 -66.999c-0.666992 -12.667 -2.66699 -21.667 -6 -27
c-5.33301 -6.66699 -14 -9 -26 -7c-9.33301 2 -14 15.667 -14 41c0 14 1.33301 30.333 4 49c2 12.667 5.66699 31.334 11 56.001c5.33301 13.333 12.333 20 21 20c4 0 8.33301 -1 13 -3c14.667 -8 19.667 -20.333 15 -37zM154.001 364.997
c-14 -128.667 -22.0029 -209.671 -24.0029 -243.004c-1.33301 -25.333 0.333984 -45.166 5.00098 -59.499s7 -22.5 7 -24.5c0 -4.66699 -1 -10.667 -3 -18c-2.66699 -10 -10.667 -15 -24 -15c-8 0 -16 3.16699 -24 9.5s-12 27.833 -12 64.5c0 2 3.33301 74 10 216
c2.66699 46.667 4.33398 72.334 5.00098 77.001c4 24 13 36.333 27 37c10 0.666992 18.333 -3.16602 25 -11.499s9.33398 -19.166 8.00098 -32.499z" />
    <glyph glyph-name="eth" unicode="&#xf0;" horiz-adv-x="483" 
d="M505 606c-10 -8.66699 -38.3379 -22.002 -85.0049 -40.002c10 -20 16.333 -41.333 19 -64c4.66699 -34.667 7 -60.334 7 -77.001c0 -18 -5 -46.667 -15 -86c19.333 -8.66699 39.666 -19 60.999 -31c5.33301 -10.667 8 -20 8 -28c0 -12.667 -6.33301 -20.667 -19 -24
c-3.33301 -0.666992 -6.66602 -1 -9.99902 -1c-9.33301 0 -17.666 4 -24.999 12c-8.66699 11.333 -13.667 17.333 -15 18c-3.33301 2 -9.66602 3 -18.999 3c-9.33301 -20 -20 -40.333 -32 -61c-28.667 -48.667 -61.334 -93.667 -98.001 -135
c-24.667 -28 -54 -53.333 -88 -76c-42.667 -28 -79 -42 -109 -42c-20.667 0 -38 7.16699 -52 21.5s-21 33.166 -21 56.499c0 30.667 11.667 64.667 35 102c21.333 34 47.333 64 78 90c66.667 55.333 150.334 87.666 251.001 96.999c12.667 30.667 19 66 19 106
c0 40.667 -7.33301 74.667 -22 102c-59.333 -20 -105 -31.667 -137 -35c-6.66699 0 -13.167 1.83301 -19.5 5.5s-9.5 8.83398 -9.5 15.501c0 8 5.33301 17.667 16 29c3.33301 2.66699 13.333 5.33398 30 8.00098c28.667 5.33301 58.334 12 89.001 20
c-31.333 31.333 -66.333 47 -105 47c-51.333 0 -94.666 -14.667 -129.999 -44c-3.33301 -2.66699 -8 -4 -14 -4c-8 0 -15.833 2.33301 -23.5 7s-11.5 10.334 -11.5 17.001c0 20.667 23.667 38.334 71 53.001c38.667 12.667 70.334 18.667 95.001 18
c70 -1.33301 126.667 -27.666 170 -78.999c24 7.33301 41 14.333 51 21l8 13c4 5.33301 11.333 8.33301 22 9c27.333 0 41 -8.33301 41 -25c0 -6 -3.66699 -12.333 -11 -19zM355.995 285.998c-24 -2.66699 -47.333 -7.66602 -70 -14.999
c-54 -16.667 -100.667 -42.334 -140 -77.001c-20 -18 -38.333 -40.333 -55 -67c-19.333 -30 -29 -54.333 -29 -73c0 -19.333 8 -29 24 -29c19.333 0 48 13.333 86 40c36 24.667 61.333 47 76 67l55 69c23.333 30 41 58.333 53 85z" />
    <glyph glyph-name="ntilde" unicode="&#xf1;" horiz-adv-x="384" 
d="M428 611c-0.666992 -2 -5.66602 -4.33203 -14.999 -6.99902c-15.333 -5.33301 -38 -23 -68 -53c-34.667 -35.333 -65.334 -53 -92.001 -53c-16.667 0 -27.667 6.33301 -33 19c-4 19.333 -8.33301 38.333 -13 57c-7.33301 28.667 -17.333 44 -30 46
c-14.667 2.66699 -35.167 -4.83301 -61.5 -22.5s-45.666 -36.834 -57.999 -57.501s-21.833 -31 -28.5 -31c-14.667 0 -22 7 -22 21c0 8.66699 4 19.667 12 33c13.333 22 34.333 44.333 63 67c36.667 30 71 45 103 45c16 0 30.667 -10.667 44 -32
c12 -18.667 20.667 -42.334 26 -71.001c2.66699 -10.667 7.66699 -16 15 -16c11.333 0 29.666 13.333 54.999 40c37.333 38.667 63 57.334 77 56.001c18.667 -2 28 -11.333 28 -28c0 -4 -0.666992 -8.33301 -2 -13zM331.001 -49.999c-10.667 0 -20.834 4.33301 -30.501 13
s-14.5 19.334 -14.5 32.001c0 2.66699 0.5 6.5 1.5 11.5s1.5 8.83301 1.5 11.5c0 -1.33301 -1.66699 18.667 -5 60c-4 39.333 -5.66699 80.666 -5 123.999c2.66699 101.333 -0.666016 155.666 -9.99902 162.999c-7.33301 6 -26.333 -19.833 -57 -77.5
s-58 -118.167 -82 -181.5c-9.33301 -24.667 -18.333 -53 -27 -85c-4.66699 -17.333 -9.33398 -27.666 -14.001 -30.999c-7.33301 -3.33301 -13.666 -5 -18.999 -5c-18.667 0 -28 15 -28 45c0 7.33301 1 31 3 71c2.66699 43.333 4.33398 85.666 5.00098 126.999
c1.33301 66 5.66602 126 12.999 180c2.66699 15.333 10 23 22 23c13.333 0 24 -5.33301 32 -16c2.66699 -3.33301 4 -9 4 -17c0 -5.33301 -1.5 -20.833 -4.5 -46.5s-4.83301 -49.5 -5.5 -71.5c-0.666992 -45.333 -1 -69.666 -1 -72.999c77.333 160.667 135 237 173 229
c23.333 -4.66699 38.333 -32.334 45 -83.001c4.66699 -33.333 6.66699 -96 6 -188c0 -87.333 1 -134.333 3 -141c11.333 -23.333 17 -39.666 17 -48.999c0 -16.667 -7.66699 -25 -23 -25z" />
    </font>
</defs>
</svg>
